<svg xmlns="http://www.w3.org/2000/svg" xmlns:xlink="http://www.w3.org/1999/xlink" width="100" zoomAndPan="magnify" viewBox="0 0 75 74.999997" height="100" preserveAspectRatio="xMidYMid meet" version="1.0"><defs><clipPath id="143966932d"><path d="M 34.6875 37.160156 L 38 37.160156 L 38 37.910156 L 34.6875 37.910156 Z M 34.6875 37.160156 " clip-rule="nonzero"/></clipPath><clipPath id="fc5d4d9cf1"><path d="M 37 37.160156 L 40.6875 37.160156 L 40.6875 37.910156 L 37 37.910156 Z M 37 37.160156 " clip-rule="nonzero"/></clipPath><clipPath id="6b49bf6399"><path d="M 2 38 L 7 38 L 7 43 L 2 43 Z M 2 38 " clip-rule="nonzero"/></clipPath><clipPath id="74dde9ebd1"><path d="M 0 40.433594 L 47.382812 0.0625 L 75.109375 32.601562 L 27.726562 72.972656 Z M 0 40.433594 " clip-rule="nonzero"/></clipPath><clipPath id="b9e08cbcb3"><path d="M 47.453125 0 L 0.0742188 40.375 L 27.800781 72.914062 L 75.179688 32.539062 Z M 47.453125 0 " clip-rule="nonzero"/></clipPath><clipPath id="c494ea797c"><path d="M 1 37 L 9 37 L 9 46 L 1 46 Z M 1 37 " clip-rule="nonzero"/></clipPath><clipPath id="6667589d3f"><path d="M 0 40.433594 L 47.382812 0.0625 L 75.109375 32.601562 L 27.726562 72.972656 Z M 0 40.433594 " clip-rule="nonzero"/></clipPath><clipPath id="c6ae1c9b84"><path d="M 47.453125 0 L 0.0742188 40.375 L 27.800781 72.914062 L 75.179688 32.539062 Z M 47.453125 0 " clip-rule="nonzero"/></clipPath><clipPath id="a253274991"><path d="M 48 28 L 52 28 L 52 31 L 48 31 Z M 48 28 " clip-rule="nonzero"/></clipPath><clipPath id="cdcbd739ce"><path d="M 0 40.433594 L 47.382812 0.0625 L 75.109375 32.601562 L 27.726562 72.972656 Z M 0 40.433594 " clip-rule="nonzero"/></clipPath><clipPath id="949699ec0a"><path d="M 47.453125 0 L 0.0742188 40.375 L 27.800781 72.914062 L 75.179688 32.539062 Z M 47.453125 0 " clip-rule="nonzero"/></clipPath><clipPath id="5897b643cf"><path d="M 47 31 L 49 31 L 49 35 L 47 35 Z M 47 31 " clip-rule="nonzero"/></clipPath><clipPath id="4228812f18"><path d="M 0 40.433594 L 47.382812 0.0625 L 75.109375 32.601562 L 27.726562 72.972656 Z M 0 40.433594 " clip-rule="nonzero"/></clipPath><clipPath id="c05eadea6b"><path d="M 47.453125 0 L 0.0742188 40.375 L 27.800781 72.914062 L 75.179688 32.539062 Z M 47.453125 0 " clip-rule="nonzero"/></clipPath><clipPath id="ee17c09645"><path d="M 47 34 L 50 34 L 50 39 L 47 39 Z M 47 34 " clip-rule="nonzero"/></clipPath><clipPath id="ce500cf781"><path d="M 0 40.433594 L 47.382812 0.0625 L 75.109375 32.601562 L 27.726562 72.972656 Z M 0 40.433594 " clip-rule="nonzero"/></clipPath><clipPath id="4ba72f0a88"><path d="M 47.453125 0 L 0.0742188 40.375 L 27.800781 72.914062 L 75.179688 32.539062 Z M 47.453125 0 " clip-rule="nonzero"/></clipPath><clipPath id="294c7dc900"><path d="M 48 38 L 51 38 L 51 42 L 48 42 Z M 48 38 " clip-rule="nonzero"/></clipPath><clipPath id="5b65dfe20f"><path d="M 0 40.433594 L 47.382812 0.0625 L 75.109375 32.601562 L 27.726562 72.972656 Z M 0 40.433594 " clip-rule="nonzero"/></clipPath><clipPath id="c139e51663"><path d="M 47.453125 0 L 0.0742188 40.375 L 27.800781 72.914062 L 75.179688 32.539062 Z M 47.453125 0 " clip-rule="nonzero"/></clipPath><clipPath id="726fcc62e5"><path d="M 50 42 L 52 42 L 52 47 L 50 47 Z M 50 42 " clip-rule="nonzero"/></clipPath><clipPath id="b9a7ae696e"><path d="M 0 40.433594 L 47.382812 0.0625 L 75.109375 32.601562 L 27.726562 72.972656 Z M 0 40.433594 " clip-rule="nonzero"/></clipPath><clipPath id="1a579de781"><path d="M 47.453125 0 L 0.0742188 40.375 L 27.800781 72.914062 L 75.179688 32.539062 Z M 47.453125 0 " clip-rule="nonzero"/></clipPath><clipPath id="af54a5fc97"><path d="M 50 46 L 52 46 L 52 50 L 50 50 Z M 50 46 " clip-rule="nonzero"/></clipPath><clipPath id="bcf85ccebf"><path d="M 0 40.433594 L 47.382812 0.0625 L 75.109375 32.601562 L 27.726562 72.972656 Z M 0 40.433594 " clip-rule="nonzero"/></clipPath><clipPath id="ad969c5f91"><path d="M 47.453125 0 L 0.0742188 40.375 L 27.800781 72.914062 L 75.179688 32.539062 Z M 47.453125 0 " clip-rule="nonzero"/></clipPath><clipPath id="aeab386963"><path d="M 48 50 L 51 50 L 51 54 L 48 54 Z M 48 50 " clip-rule="nonzero"/></clipPath><clipPath id="faa47684e4"><path d="M 0 40.433594 L 47.382812 0.0625 L 75.109375 32.601562 L 27.726562 72.972656 Z M 0 40.433594 " clip-rule="nonzero"/></clipPath><clipPath id="a9261ebb6e"><path d="M 47.453125 0 L 0.0742188 40.375 L 27.800781 72.914062 L 75.179688 32.539062 Z M 47.453125 0 " clip-rule="nonzero"/></clipPath><clipPath id="8ba4cc1857"><path d="M 46 53 L 49 53 L 49 56 L 46 56 Z M 46 53 " clip-rule="nonzero"/></clipPath><clipPath id="b3404082dd"><path d="M 0 40.433594 L 47.382812 0.0625 L 75.109375 32.601562 L 27.726562 72.972656 Z M 0 40.433594 " clip-rule="nonzero"/></clipPath><clipPath id="e30d1f19c7"><path d="M 47.453125 0 L 0.0742188 40.375 L 27.800781 72.914062 L 75.179688 32.539062 Z M 47.453125 0 " clip-rule="nonzero"/></clipPath><clipPath id="46d2b05e39"><path d="M 43 56 L 46 56 L 46 59 L 43 59 Z M 43 56 " clip-rule="nonzero"/></clipPath><clipPath id="2e4cecffc9"><path d="M 0 40.433594 L 47.382812 0.0625 L 75.109375 32.601562 L 27.726562 72.972656 Z M 0 40.433594 " clip-rule="nonzero"/></clipPath><clipPath id="40a22526ba"><path d="M 47.453125 0 L 0.0742188 40.375 L 27.800781 72.914062 L 75.179688 32.539062 Z M 47.453125 0 " clip-rule="nonzero"/></clipPath><clipPath id="fbf251e87d"><path d="M 39 58 L 43 58 L 43 60 L 39 60 Z M 39 58 " clip-rule="nonzero"/></clipPath><clipPath id="e3de0c76dd"><path d="M 0 40.433594 L 47.382812 0.0625 L 75.109375 32.601562 L 27.726562 72.972656 Z M 0 40.433594 " clip-rule="nonzero"/></clipPath><clipPath id="c54acf6ca7"><path d="M 47.453125 0 L 0.0742188 40.375 L 27.800781 72.914062 L 75.179688 32.539062 Z M 47.453125 0 " clip-rule="nonzero"/></clipPath><clipPath id="682790f053"><path d="M 36 58 L 40 58 L 40 60 L 36 60 Z M 36 58 " clip-rule="nonzero"/></clipPath><clipPath id="9872f09974"><path d="M 0 40.433594 L 47.382812 0.0625 L 75.109375 32.601562 L 27.726562 72.972656 Z M 0 40.433594 " clip-rule="nonzero"/></clipPath><clipPath id="886fd2060b"><path d="M 47.453125 0 L 0.0742188 40.375 L 27.800781 72.914062 L 75.179688 32.539062 Z M 47.453125 0 " clip-rule="nonzero"/></clipPath><clipPath id="cb076e4bf8"><path d="M 35 56 L 37 56 L 37 59 L 35 59 Z M 35 56 " clip-rule="nonzero"/></clipPath><clipPath id="a0b49c7fac"><path d="M 0 40.433594 L 47.382812 0.0625 L 75.109375 32.601562 L 27.726562 72.972656 Z M 0 40.433594 " clip-rule="nonzero"/></clipPath><clipPath id="27127f4d42"><path d="M 47.453125 0 L 0.0742188 40.375 L 27.800781 72.914062 L 75.179688 32.539062 Z M 47.453125 0 " clip-rule="nonzero"/></clipPath><clipPath id="07c177e6eb"><path d="M 35 52 L 37 52 L 37 56 L 35 56 Z M 35 52 " clip-rule="nonzero"/></clipPath><clipPath id="86457ead3c"><path d="M 0 40.433594 L 47.382812 0.0625 L 75.109375 32.601562 L 27.726562 72.972656 Z M 0 40.433594 " clip-rule="nonzero"/></clipPath><clipPath id="fe4512bc65"><path d="M 47.453125 0 L 0.0742188 40.375 L 27.800781 72.914062 L 75.179688 32.539062 Z M 47.453125 0 " clip-rule="nonzero"/></clipPath><clipPath id="42d99414d8"><path d="M 35 49 L 37 49 L 37 53 L 35 53 Z M 35 49 " clip-rule="nonzero"/></clipPath><clipPath id="ae731d0490"><path d="M 0 40.433594 L 47.382812 0.0625 L 75.109375 32.601562 L 27.726562 72.972656 Z M 0 40.433594 " clip-rule="nonzero"/></clipPath><clipPath id="5d651c5894"><path d="M 47.453125 0 L 0.0742188 40.375 L 27.800781 72.914062 L 75.179688 32.539062 Z M 47.453125 0 " clip-rule="nonzero"/></clipPath><clipPath id="a833abd404"><path d="M 35 45 L 37 45 L 37 49 L 35 49 Z M 35 45 " clip-rule="nonzero"/></clipPath><clipPath id="d1128b390a"><path d="M 0 40.433594 L 47.382812 0.0625 L 75.109375 32.601562 L 27.726562 72.972656 Z M 0 40.433594 " clip-rule="nonzero"/></clipPath><clipPath id="64a98f4b4e"><path d="M 47.453125 0 L 0.0742188 40.375 L 27.800781 72.914062 L 75.179688 32.539062 Z M 47.453125 0 " clip-rule="nonzero"/></clipPath><clipPath id="bdcc5faf48"><path d="M 33 42 L 37 42 L 37 46 L 33 46 Z M 33 42 " clip-rule="nonzero"/></clipPath><clipPath id="22cbe29e95"><path d="M 0 40.433594 L 47.382812 0.0625 L 75.109375 32.601562 L 27.726562 72.972656 Z M 0 40.433594 " clip-rule="nonzero"/></clipPath><clipPath id="8864e7cfb9"><path d="M 47.453125 0 L 0.0742188 40.375 L 27.800781 72.914062 L 75.179688 32.539062 Z M 47.453125 0 " clip-rule="nonzero"/></clipPath><clipPath id="5f1a5fbfab"><path d="M 30 41 L 34 41 L 34 43 L 30 43 Z M 30 41 " clip-rule="nonzero"/></clipPath><clipPath id="2b77fd3a5d"><path d="M 0 40.433594 L 47.382812 0.0625 L 75.109375 32.601562 L 27.726562 72.972656 Z M 0 40.433594 " clip-rule="nonzero"/></clipPath><clipPath id="932cc8320b"><path d="M 47.453125 0 L 0.0742188 40.375 L 27.800781 72.914062 L 75.179688 32.539062 Z M 47.453125 0 " clip-rule="nonzero"/></clipPath><clipPath id="69a1d7bad4"><path d="M 27 41 L 30 41 L 30 44 L 27 44 Z M 27 41 " clip-rule="nonzero"/></clipPath><clipPath id="f338255da4"><path d="M 0 40.433594 L 47.382812 0.0625 L 75.109375 32.601562 L 27.726562 72.972656 Z M 0 40.433594 " clip-rule="nonzero"/></clipPath><clipPath id="f82b4edd1f"><path d="M 47.453125 0 L 0.0742188 40.375 L 27.800781 72.914062 L 75.179688 32.539062 Z M 47.453125 0 " clip-rule="nonzero"/></clipPath><clipPath id="6795c5bc62"><path d="M 24 43 L 28 43 L 28 47 L 24 47 Z M 24 43 " clip-rule="nonzero"/></clipPath><clipPath id="03deae4d89"><path d="M 0 40.433594 L 47.382812 0.0625 L 75.109375 32.601562 L 27.726562 72.972656 Z M 0 40.433594 " clip-rule="nonzero"/></clipPath><clipPath id="4dfd446a64"><path d="M 47.453125 0 L 0.0742188 40.375 L 27.800781 72.914062 L 75.179688 32.539062 Z M 47.453125 0 " clip-rule="nonzero"/></clipPath><clipPath id="760c9cbf1a"><path d="M 23 46 L 25 46 L 25 49 L 23 49 Z M 23 46 " clip-rule="nonzero"/></clipPath><clipPath id="690363f9e3"><path d="M 0 40.433594 L 47.382812 0.0625 L 75.109375 32.601562 L 27.726562 72.972656 Z M 0 40.433594 " clip-rule="nonzero"/></clipPath><clipPath id="14e6f4448a"><path d="M 47.453125 0 L 0.0742188 40.375 L 27.800781 72.914062 L 75.179688 32.539062 Z M 47.453125 0 " clip-rule="nonzero"/></clipPath><clipPath id="790d86776b"><path d="M 21 48 L 24 48 L 24 52 L 21 52 Z M 21 48 " clip-rule="nonzero"/></clipPath><clipPath id="3ac2e3dd80"><path d="M 0 40.433594 L 47.382812 0.0625 L 75.109375 32.601562 L 27.726562 72.972656 Z M 0 40.433594 " clip-rule="nonzero"/></clipPath><clipPath id="ab081b2b0f"><path d="M 47.453125 0 L 0.0742188 40.375 L 27.800781 72.914062 L 75.179688 32.539062 Z M 47.453125 0 " clip-rule="nonzero"/></clipPath><clipPath id="cc6aa69c59"><path d="M 18 51 L 22 51 L 22 54 L 18 54 Z M 18 51 " clip-rule="nonzero"/></clipPath><clipPath id="1d8b9a6fe3"><path d="M 0 40.433594 L 47.382812 0.0625 L 75.109375 32.601562 L 27.726562 72.972656 Z M 0 40.433594 " clip-rule="nonzero"/></clipPath><clipPath id="5da83efc07"><path d="M 47.453125 0 L 0.0742188 40.375 L 27.800781 72.914062 L 75.179688 32.539062 Z M 47.453125 0 " clip-rule="nonzero"/></clipPath><clipPath id="505e7293cb"><path d="M 14 52 L 18 52 L 18 54 L 14 54 Z M 14 52 " clip-rule="nonzero"/></clipPath><clipPath id="5c03bc3423"><path d="M 0 40.433594 L 47.382812 0.0625 L 75.109375 32.601562 L 27.726562 72.972656 Z M 0 40.433594 " clip-rule="nonzero"/></clipPath><clipPath id="ddc20ee610"><path d="M 47.453125 0 L 0.0742188 40.375 L 27.800781 72.914062 L 75.179688 32.539062 Z M 47.453125 0 " clip-rule="nonzero"/></clipPath><clipPath id="8fa1be07ee"><path d="M 12 50 L 15 50 L 15 53 L 12 53 Z M 12 50 " clip-rule="nonzero"/></clipPath><clipPath id="a51f275e68"><path d="M 0 40.433594 L 47.382812 0.0625 L 75.109375 32.601562 L 27.726562 72.972656 Z M 0 40.433594 " clip-rule="nonzero"/></clipPath><clipPath id="e1986b9f02"><path d="M 47.453125 0 L 0.0742188 40.375 L 27.800781 72.914062 L 75.179688 32.539062 Z M 47.453125 0 " clip-rule="nonzero"/></clipPath><clipPath id="4fc77003b2"><path d="M 10 48 L 13 48 L 13 51 L 10 51 Z M 10 48 " clip-rule="nonzero"/></clipPath><clipPath id="09d0b34105"><path d="M 0 40.433594 L 47.382812 0.0625 L 75.109375 32.601562 L 27.726562 72.972656 Z M 0 40.433594 " clip-rule="nonzero"/></clipPath><clipPath id="f23e2df6e2"><path d="M 47.453125 0 L 0.0742188 40.375 L 27.800781 72.914062 L 75.179688 32.539062 Z M 47.453125 0 " clip-rule="nonzero"/></clipPath><clipPath id="de637f6e55"><path d="M 8 46 L 11 46 L 11 49 L 8 49 Z M 8 46 " clip-rule="nonzero"/></clipPath><clipPath id="c1e95e5531"><path d="M 0 40.433594 L 47.382812 0.0625 L 75.109375 32.601562 L 27.726562 72.972656 Z M 0 40.433594 " clip-rule="nonzero"/></clipPath><clipPath id="54ba5bd6e6"><path d="M 47.453125 0 L 0.0742188 40.375 L 27.800781 72.914062 L 75.179688 32.539062 Z M 47.453125 0 " clip-rule="nonzero"/></clipPath><clipPath id="048a43c93a"><path d="M 51 15 L 65 15 L 65 30 L 51 30 Z M 51 15 " clip-rule="nonzero"/></clipPath><clipPath id="d44e509bcc"><path d="M 0 40.433594 L 47.382812 0.0625 L 75.109375 32.601562 L 27.726562 72.972656 Z M 0 40.433594 " clip-rule="nonzero"/></clipPath><clipPath id="0e27566e3a"><path d="M 47.453125 0 L 0.0742188 40.375 L 27.800781 72.914062 L 75.179688 32.539062 Z M 47.453125 0 " clip-rule="nonzero"/></clipPath></defs><g clip-path="url(#143966932d)"><path fill="#a2383a" d="M 34.738281 37.578125 C 34.746094 37.566406 34.757812 37.554688 34.769531 37.546875 C 34.78125 37.535156 34.792969 37.527344 34.808594 37.519531 C 34.832031 37.507812 34.863281 37.496094 34.890625 37.488281 C 34.921875 37.480469 34.949219 37.476562 34.980469 37.476562 C 35.011719 37.472656 35.039062 37.472656 35.070312 37.476562 C 35.085938 37.476562 35.101562 37.480469 35.117188 37.484375 C 35.121094 37.484375 35.128906 37.484375 35.136719 37.488281 C 35.144531 37.488281 35.152344 37.488281 35.160156 37.492188 C 35.1875 37.496094 35.21875 37.503906 35.246094 37.511719 C 35.304688 37.527344 35.359375 37.546875 35.417969 37.558594 C 35.445312 37.566406 35.472656 37.570312 35.503906 37.574219 C 35.53125 37.578125 35.558594 37.578125 35.585938 37.578125 C 35.597656 37.574219 35.613281 37.574219 35.625 37.570312 C 35.636719 37.566406 35.648438 37.558594 35.660156 37.554688 C 35.679688 37.539062 35.695312 37.523438 35.703125 37.5 C 35.707031 37.488281 35.707031 37.476562 35.707031 37.464844 L 35.707031 37.457031 C 35.707031 37.457031 35.703125 37.453125 35.703125 37.449219 L 35.703125 37.445312 L 35.699219 37.445312 C 35.699219 37.441406 35.699219 37.441406 35.695312 37.441406 C 35.691406 37.433594 35.683594 37.425781 35.671875 37.421875 C 35.667969 37.421875 35.664062 37.421875 35.660156 37.417969 C 35.652344 37.417969 35.648438 37.417969 35.644531 37.421875 C 35.640625 37.421875 35.636719 37.421875 35.632812 37.425781 C 35.628906 37.425781 35.625 37.429688 35.625 37.429688 C 35.621094 37.4375 35.617188 37.445312 35.617188 37.453125 C 35.621094 37.464844 35.621094 37.472656 35.628906 37.480469 C 35.628906 37.484375 35.628906 37.484375 35.628906 37.484375 L 35.632812 37.488281 L 35.632812 37.492188 C 35.636719 37.492188 35.636719 37.492188 35.636719 37.492188 C 35.640625 37.496094 35.644531 37.5 35.648438 37.503906 C 35.660156 37.511719 35.671875 37.515625 35.683594 37.519531 C 35.6875 37.519531 35.695312 37.523438 35.703125 37.523438 C 35.707031 37.523438 35.714844 37.527344 35.722656 37.527344 C 35.746094 37.53125 35.773438 37.53125 35.800781 37.527344 C 35.828125 37.523438 35.855469 37.519531 35.878906 37.507812 C 35.902344 37.5 35.929688 37.488281 35.949219 37.472656 L 35.957031 37.46875 C 35.960938 37.464844 35.964844 37.464844 35.964844 37.460938 C 35.972656 37.457031 35.976562 37.453125 35.980469 37.449219 L 35.996094 37.433594 C 36 37.429688 36.003906 37.425781 36.007812 37.417969 C 36.011719 37.417969 36.011719 37.417969 36.011719 37.414062 L 36.023438 37.402344 C 36.027344 37.398438 36.03125 37.394531 36.03125 37.386719 C 36.039062 37.378906 36.046875 37.367188 36.050781 37.355469 C 36.054688 37.34375 36.058594 37.332031 36.058594 37.320312 L 36.058594 37.316406 C 36.058594 37.316406 36.0625 37.3125 36.0625 37.3125 C 36.0625 37.308594 36.0625 37.304688 36.0625 37.304688 C 36.0625 37.300781 36.0625 37.300781 36.0625 37.300781 C 36.0625 37.296875 36.0625 37.296875 36.058594 37.296875 L 36.058594 37.292969 C 36.058594 37.289062 36.058594 37.289062 36.058594 37.289062 C 36.058594 37.277344 36.054688 37.269531 36.046875 37.261719 C 36.046875 37.257812 36.046875 37.257812 36.046875 37.257812 L 36.035156 37.246094 L 36.03125 37.246094 L 36.03125 37.242188 L 36.027344 37.242188 C 36.011719 37.230469 35.996094 37.230469 35.980469 37.242188 C 35.972656 37.246094 35.964844 37.253906 35.960938 37.261719 C 35.953125 37.269531 35.949219 37.28125 35.949219 37.289062 C 35.945312 37.292969 35.945312 37.300781 35.945312 37.304688 L 35.945312 37.3125 C 35.945312 37.3125 35.945312 37.3125 35.945312 37.316406 C 35.945312 37.316406 35.945312 37.316406 35.945312 37.320312 C 35.949219 37.328125 35.953125 37.339844 35.957031 37.351562 C 35.964844 37.371094 35.980469 37.390625 36 37.40625 C 36.011719 37.414062 36.023438 37.421875 36.03125 37.429688 L 36.035156 37.433594 L 36.042969 37.433594 L 36.050781 37.441406 C 36.050781 37.441406 36.054688 37.445312 36.058594 37.445312 L 36.066406 37.449219 C 36.09375 37.460938 36.117188 37.472656 36.144531 37.476562 C 36.195312 37.492188 36.25 37.496094 36.304688 37.488281 L 36.324219 37.484375 L 36.34375 37.476562 C 36.355469 37.476562 36.367188 37.472656 36.382812 37.464844 C 36.40625 37.457031 36.433594 37.445312 36.457031 37.429688 C 36.480469 37.417969 36.503906 37.402344 36.53125 37.386719 C 36.554688 37.371094 36.578125 37.355469 36.601562 37.335938 C 36.648438 37.300781 36.699219 37.265625 36.753906 37.238281 C 36.78125 37.222656 36.8125 37.210938 36.839844 37.199219 C 36.84375 37.199219 36.847656 37.195312 36.851562 37.195312 L 36.875 37.1875 C 36.878906 37.1875 36.882812 37.1875 36.886719 37.1875 C 36.894531 37.183594 36.902344 37.183594 36.910156 37.179688 C 36.914062 37.179688 36.917969 37.179688 36.921875 37.179688 L 36.933594 37.175781 C 36.96875 37.171875 37 37.171875 37.03125 37.179688 C 37.035156 37.179688 37.039062 37.179688 37.042969 37.179688 C 37.046875 37.179688 37.054688 37.179688 37.058594 37.183594 L 37.070312 37.183594 L 37.074219 37.1875 L 37.082031 37.1875 L 37.09375 37.191406 C 37.097656 37.195312 37.101562 37.195312 37.105469 37.199219 C 37.113281 37.199219 37.121094 37.203125 37.128906 37.207031 C 37.144531 37.214844 37.15625 37.226562 37.171875 37.238281 C 37.183594 37.246094 37.195312 37.257812 37.207031 37.273438 C 37.230469 37.300781 37.246094 37.332031 37.253906 37.363281 C 37.257812 37.378906 37.261719 37.398438 37.261719 37.414062 C 37.261719 37.453125 37.253906 37.488281 37.234375 37.519531 C 37.222656 37.535156 37.214844 37.546875 37.199219 37.558594 C 37.1875 37.570312 37.175781 37.582031 37.160156 37.589844 C 37.144531 37.597656 37.128906 37.605469 37.113281 37.613281 C 37.082031 37.621094 37.050781 37.628906 37.019531 37.632812 C 37.003906 37.632812 36.988281 37.632812 36.972656 37.632812 C 36.96875 37.632812 36.964844 37.632812 36.960938 37.632812 L 36.953125 37.632812 L 36.945312 37.628906 C 36.9375 37.628906 36.929688 37.628906 36.921875 37.625 C 36.90625 37.621094 36.890625 37.617188 36.875 37.609375 C 36.859375 37.605469 36.84375 37.59375 36.832031 37.585938 C 36.816406 37.574219 36.804688 37.558594 36.792969 37.542969 C 36.777344 37.519531 36.773438 37.488281 36.78125 37.460938 C 36.785156 37.449219 36.789062 37.441406 36.792969 37.433594 C 36.804688 37.417969 36.816406 37.402344 36.828125 37.390625 C 36.84375 37.382812 36.855469 37.375 36.871094 37.367188 C 36.886719 37.359375 36.902344 37.355469 36.917969 37.347656 C 36.921875 37.347656 36.925781 37.347656 36.929688 37.347656 L 36.941406 37.34375 C 36.949219 37.34375 36.957031 37.339844 36.964844 37.339844 L 36.984375 37.335938 L 36.996094 37.335938 L 37.007812 37.332031 L 37.03125 37.332031 C 37.039062 37.332031 37.046875 37.332031 37.054688 37.332031 L 37.066406 37.328125 C 37.070312 37.328125 37.074219 37.328125 37.078125 37.328125 L 37.101562 37.332031 C 37.132812 37.332031 37.160156 37.335938 37.191406 37.34375 L 37.207031 37.34375 L 37.214844 37.347656 L 37.238281 37.351562 C 37.242188 37.355469 37.25 37.355469 37.257812 37.359375 L 37.269531 37.363281 C 37.273438 37.363281 37.277344 37.363281 37.28125 37.367188 L 37.300781 37.375 C 37.304688 37.375 37.308594 37.378906 37.3125 37.378906 L 37.320312 37.382812 C 37.328125 37.386719 37.335938 37.390625 37.34375 37.394531 L 37.363281 37.402344 L 37.375 37.410156 L 37.382812 37.414062 L 37.421875 37.4375 L 37.429688 37.445312 C 37.433594 37.449219 37.4375 37.449219 37.441406 37.453125 C 37.464844 37.46875 37.488281 37.492188 37.507812 37.511719 C 37.527344 37.535156 37.546875 37.5625 37.558594 37.589844 C 37.566406 37.601562 37.570312 37.617188 37.574219 37.632812 C 37.578125 37.648438 37.582031 37.664062 37.582031 37.679688 C 37.582031 37.691406 37.578125 37.707031 37.578125 37.722656 C 37.574219 37.738281 37.566406 37.753906 37.558594 37.765625 C 37.554688 37.78125 37.542969 37.792969 37.535156 37.804688 C 37.523438 37.8125 37.511719 37.820312 37.496094 37.828125 L 37.496094 37.824219 C 37.523438 37.8125 37.542969 37.789062 37.554688 37.761719 C 37.5625 37.75 37.566406 37.734375 37.566406 37.722656 C 37.570312 37.707031 37.574219 37.691406 37.570312 37.679688 C 37.570312 37.664062 37.570312 37.648438 37.566406 37.636719 C 37.558594 37.621094 37.554688 37.609375 37.546875 37.59375 C 37.535156 37.566406 37.515625 37.542969 37.496094 37.523438 C 37.476562 37.503906 37.453125 37.484375 37.429688 37.464844 C 37.425781 37.464844 37.425781 37.460938 37.421875 37.460938 L 37.410156 37.453125 L 37.394531 37.441406 L 37.375 37.429688 L 37.363281 37.425781 L 37.355469 37.421875 L 37.335938 37.410156 C 37.328125 37.40625 37.320312 37.40625 37.316406 37.402344 L 37.304688 37.398438 C 37.300781 37.394531 37.296875 37.394531 37.292969 37.394531 L 37.273438 37.386719 C 37.269531 37.386719 37.265625 37.382812 37.261719 37.382812 L 37.253906 37.378906 C 37.246094 37.378906 37.238281 37.375 37.230469 37.375 L 37.210938 37.367188 L 37.199219 37.367188 L 37.1875 37.363281 L 37.171875 37.363281 C 37.167969 37.363281 37.167969 37.359375 37.167969 37.359375 L 37.144531 37.359375 C 37.136719 37.355469 37.128906 37.355469 37.121094 37.355469 L 37.113281 37.355469 C 37.109375 37.355469 37.105469 37.355469 37.101562 37.355469 L 37.078125 37.355469 C 37.074219 37.355469 37.070312 37.355469 37.066406 37.355469 L 37.054688 37.355469 C 37.050781 37.355469 37.042969 37.355469 37.035156 37.355469 L 37.011719 37.359375 L 37 37.359375 L 36.992188 37.363281 L 36.96875 37.367188 C 36.960938 37.367188 36.953125 37.367188 36.945312 37.371094 C 36.941406 37.371094 36.933594 37.375 36.925781 37.375 C 36.898438 37.382812 36.871094 37.398438 36.847656 37.414062 C 36.835938 37.425781 36.828125 37.433594 36.820312 37.449219 C 36.8125 37.460938 36.808594 37.472656 36.808594 37.488281 C 36.808594 37.503906 36.8125 37.515625 36.820312 37.527344 C 36.828125 37.539062 36.839844 37.550781 36.851562 37.558594 C 36.863281 37.570312 36.875 37.574219 36.886719 37.582031 C 36.902344 37.585938 36.914062 37.589844 36.929688 37.59375 C 36.9375 37.59375 36.945312 37.597656 36.949219 37.597656 C 36.953125 37.597656 36.957031 37.597656 36.960938 37.597656 C 36.964844 37.597656 36.96875 37.597656 36.972656 37.597656 C 36.988281 37.597656 37.003906 37.597656 37.015625 37.597656 C 37.046875 37.59375 37.074219 37.589844 37.101562 37.578125 C 37.117188 37.574219 37.128906 37.566406 37.140625 37.558594 C 37.152344 37.550781 37.164062 37.542969 37.175781 37.53125 C 37.1875 37.523438 37.195312 37.511719 37.203125 37.5 C 37.21875 37.472656 37.226562 37.445312 37.222656 37.417969 C 37.222656 37.402344 37.222656 37.386719 37.21875 37.375 C 37.210938 37.34375 37.195312 37.320312 37.175781 37.296875 C 37.160156 37.273438 37.136719 37.257812 37.109375 37.242188 C 37.101562 37.238281 37.097656 37.238281 37.089844 37.234375 C 37.085938 37.234375 37.082031 37.230469 37.078125 37.230469 L 37.070312 37.226562 L 37.0625 37.226562 L 37.058594 37.222656 L 37.046875 37.222656 C 37.042969 37.21875 37.042969 37.21875 37.039062 37.21875 C 37.035156 37.21875 37.03125 37.21875 37.027344 37.21875 C 36.996094 37.214844 36.96875 37.214844 36.941406 37.21875 C 36.910156 37.222656 36.882812 37.226562 36.855469 37.238281 C 36.828125 37.25 36.800781 37.261719 36.773438 37.273438 C 36.722656 37.300781 36.675781 37.335938 36.625 37.371094 C 36.578125 37.40625 36.53125 37.441406 36.476562 37.46875 C 36.453125 37.484375 36.425781 37.496094 36.394531 37.507812 C 36.382812 37.511719 36.367188 37.515625 36.355469 37.519531 L 36.308594 37.527344 C 36.25 37.539062 36.191406 37.535156 36.132812 37.519531 C 36.101562 37.511719 36.074219 37.5 36.046875 37.488281 L 36.039062 37.480469 C 36.035156 37.480469 36.03125 37.480469 36.027344 37.476562 L 36.019531 37.472656 L 36.015625 37.46875 L 36.007812 37.464844 C 35.996094 37.457031 35.984375 37.449219 35.972656 37.4375 C 35.949219 37.417969 35.929688 37.394531 35.917969 37.367188 C 35.910156 37.355469 35.90625 37.339844 35.90625 37.324219 C 35.902344 37.308594 35.902344 37.292969 35.90625 37.277344 C 35.910156 37.265625 35.917969 37.25 35.925781 37.238281 C 35.9375 37.226562 35.945312 37.214844 35.960938 37.207031 C 35.988281 37.1875 36.019531 37.1875 36.046875 37.207031 C 36.050781 37.207031 36.050781 37.207031 36.054688 37.210938 C 36.054688 37.210938 36.058594 37.210938 36.058594 37.214844 L 36.0625 37.214844 L 36.066406 37.21875 C 36.070312 37.222656 36.070312 37.226562 36.074219 37.230469 C 36.074219 37.230469 36.078125 37.230469 36.078125 37.234375 C 36.078125 37.234375 36.078125 37.238281 36.082031 37.238281 C 36.089844 37.25 36.09375 37.265625 36.097656 37.28125 C 36.101562 37.296875 36.101562 37.3125 36.097656 37.324219 C 36.097656 37.339844 36.09375 37.355469 36.085938 37.371094 C 36.082031 37.382812 36.074219 37.398438 36.066406 37.410156 C 36.0625 37.414062 36.058594 37.421875 36.050781 37.425781 L 36.046875 37.4375 L 36.042969 37.441406 C 36.042969 37.441406 36.039062 37.445312 36.039062 37.445312 C 36.035156 37.449219 36.027344 37.457031 36.023438 37.460938 L 36.007812 37.476562 C 36 37.480469 35.996094 37.484375 35.988281 37.492188 C 35.988281 37.492188 35.984375 37.496094 35.980469 37.496094 L 35.972656 37.503906 C 35.945312 37.519531 35.921875 37.535156 35.890625 37.542969 C 35.863281 37.554688 35.835938 37.5625 35.804688 37.5625 C 35.773438 37.566406 35.746094 37.566406 35.714844 37.5625 C 35.699219 37.558594 35.6875 37.554688 35.671875 37.550781 C 35.65625 37.546875 35.644531 37.539062 35.632812 37.53125 C 35.625 37.527344 35.617188 37.523438 35.613281 37.515625 C 35.597656 37.5 35.585938 37.480469 35.585938 37.457031 C 35.585938 37.4375 35.589844 37.425781 35.597656 37.410156 C 35.605469 37.40625 35.609375 37.398438 35.617188 37.394531 C 35.625 37.390625 35.632812 37.390625 35.640625 37.390625 C 35.65625 37.386719 35.667969 37.386719 35.683594 37.394531 C 35.699219 37.398438 35.710938 37.410156 35.722656 37.421875 C 35.726562 37.425781 35.730469 37.433594 35.730469 37.441406 C 35.734375 37.445312 35.734375 37.449219 35.734375 37.453125 L 35.738281 37.457031 C 35.738281 37.460938 35.738281 37.460938 35.738281 37.464844 C 35.738281 37.480469 35.734375 37.492188 35.730469 37.507812 C 35.71875 37.539062 35.699219 37.5625 35.671875 37.578125 C 35.660156 37.585938 35.648438 37.589844 35.632812 37.59375 C 35.617188 37.597656 35.601562 37.601562 35.585938 37.601562 C 35.558594 37.605469 35.527344 37.601562 35.5 37.597656 C 35.46875 37.59375 35.441406 37.589844 35.410156 37.582031 C 35.355469 37.566406 35.296875 37.546875 35.242188 37.53125 C 35.210938 37.523438 35.183594 37.515625 35.15625 37.507812 C 35.148438 37.507812 35.140625 37.503906 35.132812 37.503906 C 35.125 37.5 35.121094 37.5 35.113281 37.5 C 35.097656 37.496094 35.082031 37.492188 35.070312 37.492188 C 35.011719 37.484375 34.949219 37.484375 34.894531 37.496094 C 34.863281 37.503906 34.835938 37.515625 34.808594 37.527344 C 34.785156 37.542969 34.761719 37.558594 34.738281 37.578125 Z M 34.738281 37.578125 " fill-opacity="1" fill-rule="nonzero"/></g><g clip-path="url(#fc5d4d9cf1)"><path fill="#a2383a" d="M 40.261719 37.578125 C 40.238281 37.558594 40.214844 37.542969 40.1875 37.53125 C 40.160156 37.515625 40.132812 37.507812 40.105469 37.503906 C 40.046875 37.492188 39.988281 37.492188 39.933594 37.5 C 39.917969 37.503906 39.902344 37.503906 39.890625 37.507812 C 39.886719 37.511719 39.882812 37.511719 39.878906 37.511719 L 39.867188 37.515625 C 39.859375 37.515625 39.855469 37.515625 39.847656 37.519531 C 39.820312 37.527344 39.789062 37.535156 39.761719 37.542969 C 39.707031 37.5625 39.652344 37.582031 39.59375 37.597656 C 39.5625 37.605469 39.535156 37.613281 39.503906 37.617188 C 39.472656 37.621094 39.441406 37.625 39.410156 37.621094 C 39.378906 37.621094 39.34375 37.613281 39.316406 37.59375 C 39.300781 37.585938 39.285156 37.574219 39.273438 37.5625 C 39.265625 37.546875 39.253906 37.53125 39.25 37.515625 C 39.242188 37.5 39.238281 37.480469 39.238281 37.460938 C 39.238281 37.460938 39.238281 37.457031 39.238281 37.453125 L 39.242188 37.449219 C 39.242188 37.445312 39.242188 37.441406 39.242188 37.441406 L 39.246094 37.433594 L 39.246094 37.429688 C 39.246094 37.429688 39.246094 37.425781 39.246094 37.425781 L 39.25 37.421875 L 39.25 37.417969 C 39.253906 37.414062 39.257812 37.410156 39.257812 37.40625 C 39.273438 37.390625 39.289062 37.378906 39.308594 37.371094 C 39.324219 37.363281 39.34375 37.363281 39.363281 37.363281 C 39.375 37.367188 39.386719 37.367188 39.394531 37.375 C 39.40625 37.378906 39.414062 37.386719 39.421875 37.394531 C 39.433594 37.414062 39.441406 37.433594 39.441406 37.457031 C 39.4375 37.464844 39.4375 37.476562 39.433594 37.484375 C 39.433594 37.496094 39.429688 37.503906 39.421875 37.511719 C 39.421875 37.515625 39.421875 37.515625 39.417969 37.519531 L 39.414062 37.523438 L 39.410156 37.53125 C 39.410156 37.53125 39.40625 37.535156 39.40625 37.535156 C 39.398438 37.542969 39.390625 37.546875 39.382812 37.554688 C 39.371094 37.5625 39.355469 37.570312 39.335938 37.578125 C 39.328125 37.582031 39.320312 37.582031 39.3125 37.585938 C 39.304688 37.585938 39.296875 37.585938 39.289062 37.589844 C 39.257812 37.59375 39.226562 37.597656 39.191406 37.59375 C 39.160156 37.589844 39.128906 37.582031 39.097656 37.574219 C 39.066406 37.5625 39.039062 37.546875 39.011719 37.527344 L 39 37.523438 C 39 37.519531 38.996094 37.519531 38.992188 37.515625 C 38.984375 37.511719 38.980469 37.503906 38.972656 37.5 L 38.953125 37.484375 C 38.949219 37.476562 38.945312 37.472656 38.9375 37.464844 C 38.9375 37.464844 38.933594 37.460938 38.933594 37.460938 L 38.929688 37.457031 L 38.921875 37.445312 C 38.917969 37.441406 38.914062 37.433594 38.910156 37.425781 C 38.898438 37.410156 38.890625 37.398438 38.882812 37.382812 C 38.878906 37.363281 38.871094 37.347656 38.871094 37.332031 C 38.867188 37.3125 38.867188 37.292969 38.871094 37.273438 C 38.875 37.253906 38.882812 37.238281 38.890625 37.222656 C 38.894531 37.21875 38.894531 37.214844 38.894531 37.214844 C 38.898438 37.210938 38.898438 37.210938 38.902344 37.207031 L 38.90625 37.203125 C 38.90625 37.203125 38.90625 37.203125 38.90625 37.199219 L 38.910156 37.199219 C 38.914062 37.195312 38.914062 37.195312 38.917969 37.191406 L 38.921875 37.1875 C 38.921875 37.1875 38.921875 37.1875 38.925781 37.183594 L 38.929688 37.183594 C 38.929688 37.179688 38.933594 37.179688 38.933594 37.179688 C 38.953125 37.167969 38.972656 37.160156 38.996094 37.160156 C 39.007812 37.160156 39.019531 37.164062 39.027344 37.164062 C 39.039062 37.167969 39.046875 37.171875 39.058594 37.179688 C 39.074219 37.1875 39.089844 37.203125 39.101562 37.21875 C 39.109375 37.234375 39.121094 37.25 39.125 37.269531 C 39.125 37.28125 39.128906 37.289062 39.128906 37.300781 L 39.128906 37.308594 C 39.128906 37.308594 39.128906 37.3125 39.128906 37.316406 C 39.128906 37.316406 39.128906 37.320312 39.128906 37.320312 C 39.128906 37.324219 39.128906 37.328125 39.128906 37.328125 C 39.125 37.347656 39.121094 37.367188 39.113281 37.382812 C 39.105469 37.398438 39.09375 37.414062 39.082031 37.425781 C 39.074219 37.441406 39.0625 37.453125 39.046875 37.464844 C 39.035156 37.476562 39.023438 37.484375 39.007812 37.492188 L 39 37.5 L 38.988281 37.507812 C 38.984375 37.507812 38.980469 37.511719 38.976562 37.511719 L 38.964844 37.519531 C 38.9375 37.53125 38.90625 37.542969 38.875 37.550781 C 38.8125 37.570312 38.75 37.574219 38.683594 37.5625 L 38.660156 37.558594 L 38.636719 37.550781 C 38.621094 37.546875 38.605469 37.542969 38.589844 37.539062 C 38.5625 37.527344 38.535156 37.511719 38.507812 37.5 C 38.480469 37.484375 38.453125 37.46875 38.429688 37.449219 C 38.402344 37.433594 38.378906 37.414062 38.355469 37.398438 C 38.304688 37.363281 38.257812 37.332031 38.210938 37.304688 C 38.1875 37.289062 38.160156 37.277344 38.132812 37.269531 C 38.109375 37.261719 38.082031 37.253906 38.054688 37.25 C 38.03125 37.246094 38.003906 37.246094 37.976562 37.25 C 37.972656 37.25 37.972656 37.25 37.96875 37.25 L 37.957031 37.253906 L 37.945312 37.253906 L 37.941406 37.257812 L 37.929688 37.257812 C 37.925781 37.261719 37.925781 37.261719 37.921875 37.261719 C 37.914062 37.265625 37.910156 37.269531 37.902344 37.269531 C 37.859375 37.292969 37.824219 37.335938 37.8125 37.382812 C 37.808594 37.394531 37.804688 37.40625 37.804688 37.417969 C 37.804688 37.429688 37.804688 37.441406 37.808594 37.453125 C 37.8125 37.464844 37.816406 37.472656 37.824219 37.484375 C 37.828125 37.496094 37.835938 37.503906 37.84375 37.511719 C 37.863281 37.53125 37.882812 37.542969 37.90625 37.554688 C 37.933594 37.5625 37.960938 37.570312 37.984375 37.570312 C 38 37.574219 38.011719 37.574219 38.027344 37.574219 C 38.03125 37.574219 38.03125 37.574219 38.035156 37.570312 L 38.046875 37.570312 C 38.050781 37.570312 38.058594 37.570312 38.066406 37.570312 C 38.078125 37.566406 38.089844 37.5625 38.101562 37.558594 C 38.113281 37.554688 38.125 37.546875 38.136719 37.539062 C 38.144531 37.535156 38.152344 37.527344 38.160156 37.515625 C 38.164062 37.507812 38.167969 37.5 38.167969 37.488281 C 38.167969 37.476562 38.164062 37.46875 38.160156 37.457031 C 38.152344 37.449219 38.148438 37.441406 38.136719 37.433594 C 38.117188 37.417969 38.09375 37.40625 38.066406 37.394531 C 38.066406 37.394531 38.0625 37.394531 38.058594 37.394531 L 38.046875 37.390625 C 38.042969 37.390625 38.035156 37.386719 38.027344 37.386719 L 38.007812 37.382812 L 37.996094 37.378906 L 37.984375 37.378906 L 37.964844 37.375 C 37.957031 37.375 37.949219 37.375 37.941406 37.375 L 37.933594 37.375 C 37.929688 37.375 37.925781 37.375 37.921875 37.375 L 37.898438 37.375 C 37.898438 37.375 37.894531 37.375 37.890625 37.375 L 37.878906 37.375 C 37.871094 37.375 37.863281 37.375 37.859375 37.375 L 37.835938 37.378906 C 37.835938 37.378906 37.832031 37.378906 37.832031 37.378906 L 37.824219 37.378906 L 37.816406 37.382812 L 37.792969 37.382812 L 37.773438 37.390625 C 37.765625 37.390625 37.757812 37.390625 37.75 37.394531 L 37.742188 37.398438 C 37.738281 37.398438 37.734375 37.398438 37.730469 37.402344 L 37.710938 37.40625 C 37.707031 37.410156 37.703125 37.410156 37.699219 37.410156 L 37.691406 37.414062 C 37.683594 37.417969 37.675781 37.421875 37.671875 37.421875 L 37.652344 37.433594 L 37.640625 37.4375 L 37.632812 37.441406 L 37.59375 37.464844 L 37.585938 37.46875 C 37.582031 37.472656 37.578125 37.472656 37.578125 37.476562 C 37.554688 37.492188 37.53125 37.507812 37.511719 37.53125 C 37.488281 37.550781 37.472656 37.574219 37.457031 37.597656 C 37.453125 37.609375 37.445312 37.625 37.441406 37.636719 C 37.4375 37.648438 37.433594 37.664062 37.433594 37.679688 C 37.433594 37.691406 37.433594 37.707031 37.4375 37.722656 C 37.4375 37.734375 37.441406 37.75 37.449219 37.761719 C 37.460938 37.789062 37.480469 37.808594 37.503906 37.824219 L 37.503906 37.828125 C 37.476562 37.8125 37.457031 37.792969 37.441406 37.765625 C 37.433594 37.75 37.429688 37.738281 37.425781 37.722656 C 37.425781 37.707031 37.421875 37.691406 37.421875 37.679688 C 37.425781 37.664062 37.425781 37.648438 37.429688 37.632812 C 37.433594 37.621094 37.441406 37.605469 37.449219 37.59375 C 37.460938 37.566406 37.480469 37.542969 37.5 37.519531 C 37.519531 37.5 37.542969 37.480469 37.566406 37.460938 C 37.570312 37.460938 37.574219 37.457031 37.574219 37.453125 L 37.585938 37.449219 L 37.625 37.425781 L 37.632812 37.421875 L 37.644531 37.414062 L 37.664062 37.40625 C 37.667969 37.402344 37.675781 37.398438 37.683594 37.394531 L 37.695312 37.390625 C 37.695312 37.390625 37.699219 37.390625 37.703125 37.386719 L 37.726562 37.378906 C 37.726562 37.378906 37.730469 37.378906 37.734375 37.378906 L 37.746094 37.375 C 37.753906 37.371094 37.761719 37.371094 37.765625 37.367188 L 37.789062 37.363281 L 37.792969 37.359375 L 37.8125 37.359375 C 37.839844 37.351562 37.871094 37.351562 37.898438 37.347656 L 37.921875 37.347656 C 37.925781 37.347656 37.929688 37.347656 37.933594 37.347656 L 37.945312 37.347656 C 37.953125 37.347656 37.957031 37.351562 37.964844 37.351562 L 37.988281 37.351562 L 38 37.355469 L 38.011719 37.355469 L 38.03125 37.359375 C 38.039062 37.359375 38.046875 37.363281 38.054688 37.363281 C 38.0625 37.367188 38.070312 37.367188 38.078125 37.371094 C 38.105469 37.378906 38.132812 37.390625 38.15625 37.410156 C 38.167969 37.417969 38.179688 37.429688 38.1875 37.445312 C 38.195312 37.457031 38.199219 37.472656 38.199219 37.488281 C 38.199219 37.503906 38.195312 37.519531 38.183594 37.53125 C 38.175781 37.546875 38.167969 37.554688 38.15625 37.566406 C 38.140625 37.574219 38.128906 37.582031 38.117188 37.585938 C 38.101562 37.59375 38.085938 37.597656 38.074219 37.601562 C 38.066406 37.601562 38.058594 37.601562 38.050781 37.605469 C 38.046875 37.605469 38.042969 37.605469 38.039062 37.605469 C 38.035156 37.605469 38.03125 37.605469 38.027344 37.605469 C 38.011719 37.605469 37.996094 37.605469 37.984375 37.605469 C 37.953125 37.601562 37.925781 37.597656 37.894531 37.585938 C 37.882812 37.578125 37.867188 37.574219 37.855469 37.566406 C 37.84375 37.558594 37.832031 37.546875 37.820312 37.539062 C 37.808594 37.527344 37.800781 37.515625 37.792969 37.503906 C 37.777344 37.476562 37.769531 37.449219 37.769531 37.417969 C 37.769531 37.402344 37.769531 37.386719 37.773438 37.371094 C 37.785156 37.34375 37.796875 37.316406 37.816406 37.292969 C 37.835938 37.269531 37.859375 37.25 37.886719 37.234375 C 37.894531 37.234375 37.898438 37.230469 37.90625 37.226562 C 37.910156 37.226562 37.914062 37.222656 37.917969 37.222656 L 37.929688 37.21875 L 37.933594 37.21875 L 37.9375 37.214844 L 37.949219 37.214844 C 37.953125 37.210938 37.957031 37.210938 37.960938 37.210938 C 37.964844 37.210938 37.96875 37.210938 37.972656 37.210938 C 38 37.207031 38.03125 37.207031 38.0625 37.210938 C 38.089844 37.214844 38.121094 37.222656 38.148438 37.230469 C 38.175781 37.242188 38.203125 37.253906 38.230469 37.265625 C 38.28125 37.296875 38.332031 37.328125 38.378906 37.363281 C 38.425781 37.398438 38.476562 37.433594 38.527344 37.460938 C 38.550781 37.476562 38.578125 37.488281 38.605469 37.496094 C 38.621094 37.503906 38.632812 37.507812 38.648438 37.511719 L 38.667969 37.515625 L 38.691406 37.519531 C 38.75 37.527344 38.808594 37.527344 38.867188 37.511719 C 38.894531 37.503906 38.921875 37.492188 38.949219 37.480469 L 38.957031 37.476562 C 38.960938 37.472656 38.964844 37.472656 38.96875 37.46875 L 38.976562 37.464844 L 38.984375 37.457031 C 38.996094 37.449219 39.007812 37.441406 39.019531 37.433594 C 39.042969 37.414062 39.0625 37.390625 39.074219 37.363281 C 39.082031 37.351562 39.085938 37.335938 39.085938 37.324219 C 39.089844 37.308594 39.089844 37.296875 39.085938 37.28125 C 39.082031 37.265625 39.074219 37.253906 39.066406 37.242188 C 39.058594 37.230469 39.046875 37.222656 39.035156 37.214844 C 39.007812 37.195312 38.980469 37.195312 38.957031 37.210938 C 38.929688 37.226562 38.914062 37.253906 38.910156 37.28125 C 38.90625 37.296875 38.90625 37.308594 38.910156 37.324219 C 38.910156 37.339844 38.914062 37.351562 38.921875 37.367188 C 38.925781 37.378906 38.933594 37.394531 38.941406 37.40625 C 38.945312 37.410156 38.949219 37.417969 38.953125 37.421875 L 38.960938 37.429688 L 38.964844 37.4375 C 38.964844 37.4375 38.964844 37.4375 38.96875 37.441406 C 38.972656 37.445312 38.976562 37.449219 38.980469 37.457031 L 38.996094 37.472656 C 39.003906 37.476562 39.007812 37.480469 39.015625 37.484375 C 39.019531 37.488281 39.019531 37.488281 39.023438 37.492188 L 39.03125 37.496094 C 39.058594 37.515625 39.082031 37.527344 39.109375 37.539062 C 39.136719 37.546875 39.167969 37.554688 39.195312 37.558594 C 39.226562 37.558594 39.253906 37.558594 39.285156 37.554688 C 39.296875 37.550781 39.3125 37.550781 39.328125 37.542969 C 39.339844 37.539062 39.351562 37.535156 39.363281 37.527344 C 39.378906 37.519531 39.386719 37.507812 39.394531 37.496094 C 39.402344 37.484375 39.40625 37.46875 39.40625 37.453125 C 39.40625 37.441406 39.402344 37.425781 39.394531 37.414062 C 39.390625 37.410156 39.386719 37.40625 39.378906 37.402344 C 39.375 37.398438 39.367188 37.398438 39.359375 37.394531 C 39.347656 37.394531 39.332031 37.394531 39.316406 37.398438 C 39.304688 37.40625 39.292969 37.414062 39.285156 37.425781 C 39.28125 37.429688 39.277344 37.4375 39.273438 37.441406 C 39.273438 37.445312 39.273438 37.449219 39.269531 37.453125 L 39.269531 37.464844 C 39.269531 37.480469 39.269531 37.492188 39.277344 37.507812 C 39.285156 37.535156 39.304688 37.554688 39.328125 37.570312 C 39.34375 37.578125 39.355469 37.585938 39.371094 37.589844 C 39.382812 37.59375 39.398438 37.59375 39.414062 37.597656 C 39.441406 37.597656 39.472656 37.597656 39.5 37.59375 C 39.53125 37.585938 39.558594 37.582031 39.585938 37.574219 C 39.644531 37.5625 39.699219 37.542969 39.757812 37.527344 C 39.785156 37.515625 39.8125 37.507812 39.84375 37.503906 C 39.851562 37.5 39.859375 37.5 39.863281 37.496094 C 39.871094 37.496094 39.878906 37.496094 39.886719 37.492188 C 39.902344 37.492188 39.914062 37.488281 39.929688 37.488281 C 39.988281 37.480469 40.050781 37.480469 40.109375 37.492188 C 40.136719 37.5 40.164062 37.507812 40.191406 37.523438 C 40.21875 37.539062 40.242188 37.554688 40.261719 37.578125 Z M 40.261719 37.578125 " fill-opacity="1" fill-rule="nonzero"/></g><g clip-path="url(#6b49bf6399)"><g clip-path="url(#74dde9ebd1)"><g clip-path="url(#b9e08cbcb3)"><path fill="#3c2d96" d="M 4.832031 39.363281 C 5.453125 39.496094 5.703125 40.121094 5.707031 40.128906 C 5.894531 40.613281 5.769531 41.171875 5.390625 41.519531 C 4.972656 41.90625 4.355469 41.964844 3.882812 41.671875 C 3.398438 41.367188 3.183594 40.75 3.371094 40.195312 C 3.570312 39.605469 4.230469 39.230469 4.832031 39.363281 Z M 5.742188 42.011719 C 5.761719 41.996094 5.78125 41.980469 5.796875 41.960938 C 6.355469 41.449219 6.542969 40.625 6.265625 39.910156 C 6.25 39.875 5.894531 38.980469 4.960938 38.777344 C 4.054688 38.578125 3.105469 39.117188 2.800781 40.003906 C 2.523438 40.816406 2.84375 41.734375 3.566406 42.179688 C 4.246094 42.605469 5.132812 42.53125 5.742188 42.011719 " fill-opacity="1" fill-rule="nonzero"/></g></g></g><g clip-path="url(#c494ea797c)"><g clip-path="url(#6667589d3f)"><g clip-path="url(#c6ae1c9b84)"><path fill="#3c2d96" d="M 7.320312 40.375 C 7.375 40.496094 7.515625 40.808594 7.78125 42.59375 C 7.886719 43.308594 7.976562 44.03125 8.050781 44.742188 C 7.175781 44.546875 6.316406 44.285156 5.492188 43.96875 C 3.808594 43.324219 3.046875 43.003906 2.597656 42.230469 C 2.535156 42.121094 1.984375 41.113281 2.378906 40.019531 C 2.773438 38.929688 3.890625 38.179688 4.984375 38.269531 C 5.933594 38.351562 6.71875 39.058594 7.320312 40.375 Z M 8.726562 45.496094 L 8.691406 45.09375 C 8.609375 44.238281 8.503906 43.367188 8.375 42.507812 C 8.097656 40.636719 7.941406 40.292969 7.867188 40.128906 C 7.167969 38.597656 6.214844 37.769531 5.035156 37.671875 C 3.679688 37.558594 2.296875 38.480469 1.816406 39.816406 C 1.339844 41.136719 1.953125 42.308594 2.078125 42.53125 C 2.652344 43.519531 3.636719 43.902344 5.277344 44.527344 C 6.257812 44.90625 7.285156 45.203125 8.332031 45.417969 L 8.726562 45.496094 " fill-opacity="1" fill-rule="nonzero"/></g></g></g><g clip-path="url(#a253274991)"><g clip-path="url(#cdcbd739ce)"><g clip-path="url(#949699ec0a)"><path fill="#3c2d96" d="M 50.902344 29.132812 C 50.722656 29.21875 50.546875 29.3125 50.378906 29.414062 C 50.351562 29.429688 50.324219 29.449219 50.296875 29.464844 C 50.289062 29.46875 50.210938 29.519531 50.257812 29.488281 C 50.304688 29.457031 50.210938 29.519531 50.203125 29.527344 C 50.179688 29.542969 50.15625 29.558594 50.132812 29.574219 C 50.027344 29.648438 49.925781 29.722656 49.828125 29.800781 C 49.628906 29.960938 49.4375 30.132812 49.257812 30.316406 C 49.214844 30.359375 49.175781 30.402344 49.132812 30.449219 C 49.082031 30.503906 49.179688 30.394531 49.128906 30.457031 C 49.109375 30.476562 49.09375 30.496094 49.074219 30.515625 C 49.007812 30.59375 48.941406 30.675781 48.878906 30.757812 C 48.761719 30.90625 48.539062 30.976562 48.378906 30.855469 C 48.230469 30.742188 48.15625 30.511719 48.28125 30.355469 C 48.898438 29.558594 49.691406 28.914062 50.597656 28.480469 C 50.769531 28.398438 51.003906 28.476562 51.078125 28.65625 C 51.152344 28.835938 51.085938 29.046875 50.902344 29.132812 " fill-opacity="1" fill-rule="nonzero"/></g></g></g><g clip-path="url(#5897b643cf)"><g clip-path="url(#4228812f18)"><g clip-path="url(#c05eadea6b)"><path fill="#3c2d96" d="M 48.414062 31.492188 C 48.296875 32.277344 48.230469 33.066406 48.226562 33.859375 C 48.226562 34.050781 48.023438 34.210938 47.839844 34.191406 C 47.632812 34.164062 47.507812 34.003906 47.507812 33.800781 C 47.515625 33.011719 47.578125 32.21875 47.699219 31.4375 C 47.726562 31.25 47.882812 31.082031 48.085938 31.105469 C 48.265625 31.128906 48.445312 31.292969 48.414062 31.492188 " fill-opacity="1" fill-rule="nonzero"/></g></g></g><g clip-path="url(#ee17c09645)"><g clip-path="url(#ce500cf781)"><g clip-path="url(#4ba72f0a88)"><path fill="#3c2d96" d="M 48.359375 35.019531 C 48.710938 35.851562 49.0625 36.683594 49.410156 37.515625 C 49.484375 37.6875 49.421875 37.917969 49.238281 37.992188 C 49.0625 38.066406 48.835938 38.007812 48.757812 37.820312 C 48.40625 36.988281 48.058594 36.15625 47.707031 35.324219 C 47.632812 35.148438 47.695312 34.921875 47.878906 34.84375 C 48.054688 34.769531 48.28125 34.832031 48.359375 35.019531 " fill-opacity="1" fill-rule="nonzero"/></g></g></g><g clip-path="url(#294c7dc900)"><g clip-path="url(#5b65dfe20f)"><g clip-path="url(#c139e51663)"><path fill="#3c2d96" d="M 49.554688 38.617188 C 49.90625 39.515625 50.253906 40.414062 50.601562 41.3125 C 50.671875 41.488281 50.617188 41.714844 50.429688 41.789062 C 50.257812 41.863281 50.023438 41.804688 49.949219 41.617188 C 49.601562 40.71875 49.25 39.820312 48.902344 38.921875 C 48.835938 38.75 48.890625 38.523438 49.078125 38.445312 C 49.246094 38.375 49.484375 38.429688 49.554688 38.617188 " fill-opacity="1" fill-rule="nonzero"/></g></g></g><g clip-path="url(#726fcc62e5)"><g clip-path="url(#b9a7ae696e)"><g clip-path="url(#1a579de781)"><path fill="#3c2d96" d="M 51.058594 43.003906 C 51.25 43.894531 51.328125 44.808594 51.300781 45.714844 C 51.292969 45.90625 51.097656 46.070312 50.910156 46.046875 C 50.710938 46.019531 50.574219 45.859375 50.582031 45.660156 C 50.589844 45.441406 50.589844 45.222656 50.582031 45.007812 C 50.582031 44.953125 50.578125 44.898438 50.578125 44.84375 C 50.574219 44.800781 50.578125 44.902344 50.574219 44.832031 C 50.574219 44.804688 50.574219 44.773438 50.570312 44.742188 C 50.5625 44.636719 50.554688 44.527344 50.546875 44.417969 C 50.507812 43.984375 50.441406 43.554688 50.351562 43.132812 C 50.3125 42.945312 50.453125 42.738281 50.640625 42.714844 C 50.839844 42.6875 51.015625 42.808594 51.058594 43.003906 " fill-opacity="1" fill-rule="nonzero"/></g></g></g><g clip-path="url(#af54a5fc97)"><g clip-path="url(#bcf85ccebf)"><g clip-path="url(#ad969c5f91)"><path fill="#3c2d96" d="M 51.171875 46.949219 C 51.210938 47.847656 51.066406 48.757812 50.765625 49.609375 C 50.699219 49.785156 50.488281 49.902344 50.304688 49.832031 C 50.125 49.757812 50.015625 49.5625 50.085938 49.371094 C 50.15625 49.167969 50.21875 48.960938 50.273438 48.753906 C 50.285156 48.699219 50.300781 48.644531 50.3125 48.589844 C 50.316406 48.566406 50.324219 48.542969 50.328125 48.519531 C 50.332031 48.496094 50.332031 48.5 50.324219 48.542969 C 50.328125 48.527344 50.328125 48.515625 50.332031 48.5 C 50.351562 48.394531 50.371094 48.289062 50.386719 48.179688 C 50.449219 47.753906 50.472656 47.320312 50.453125 46.890625 C 50.449219 46.804688 50.515625 46.699219 50.578125 46.644531 C 50.644531 46.585938 50.753906 46.550781 50.839844 46.558594 C 51.054688 46.585938 51.164062 46.746094 51.171875 46.949219 " fill-opacity="1" fill-rule="nonzero"/></g></g></g><g clip-path="url(#aeab386963)"><g clip-path="url(#faa47684e4)"><g clip-path="url(#a9261ebb6e)"><path fill="#3c2d96" d="M 50.234375 51.042969 C 49.917969 51.691406 49.601562 52.34375 49.285156 52.992188 C 49.203125 53.160156 49.019531 53.292969 48.824219 53.214844 C 48.664062 53.148438 48.515625 52.9375 48.605469 52.753906 C 48.921875 52.105469 49.238281 51.453125 49.554688 50.804688 C 49.636719 50.636719 49.820312 50.503906 50.015625 50.582031 C 50.179688 50.648438 50.324219 50.863281 50.234375 51.042969 " fill-opacity="1" fill-rule="nonzero"/></g></g></g><g clip-path="url(#8ba4cc1857)"><g clip-path="url(#b3404082dd)"><g clip-path="url(#e30d1f19c7)"><path fill="#3c2d96" d="M 48.730469 54.195312 C 48.308594 54.777344 47.851562 55.328125 47.359375 55.851562 C 47.230469 55.992188 46.960938 55.953125 46.851562 55.8125 C 46.722656 55.644531 46.753906 55.453125 46.894531 55.304688 C 46.953125 55.242188 47.007812 55.179688 47.066406 55.117188 C 47.082031 55.101562 47.097656 55.085938 47.109375 55.070312 C 47.082031 55.101562 47.082031 55.101562 47.109375 55.070312 C 47.136719 55.035156 47.167969 55.003906 47.195312 54.972656 C 47.304688 54.847656 47.410156 54.722656 47.515625 54.59375 C 47.730469 54.332031 47.9375 54.066406 48.136719 53.792969 C 48.246094 53.640625 48.476562 53.578125 48.636719 53.695312 C 48.789062 53.808594 48.847656 54.03125 48.730469 54.195312 " fill-opacity="1" fill-rule="nonzero"/></g></g></g><g clip-path="url(#46d2b05e39)"><g clip-path="url(#2e4cecffc9)"><g clip-path="url(#40a22526ba)"><path fill="#3c2d96" d="M 45.824219 56.90625 C 45.207031 57.328125 44.566406 57.71875 43.90625 58.070312 C 43.738281 58.160156 43.5 58.070312 43.425781 57.898438 C 43.351562 57.710938 43.421875 57.515625 43.601562 57.417969 C 43.914062 57.253906 44.21875 57.078125 44.519531 56.898438 C 44.667969 56.808594 44.8125 56.71875 44.957031 56.625 C 44.925781 56.644531 44.925781 56.644531 44.957031 56.625 C 44.972656 56.613281 44.992188 56.601562 45.007812 56.589844 C 45.050781 56.5625 45.089844 56.539062 45.128906 56.511719 C 45.207031 56.460938 45.28125 56.410156 45.355469 56.359375 C 45.511719 56.253906 45.734375 56.234375 45.863281 56.398438 C 45.972656 56.539062 45.988281 56.792969 45.824219 56.90625 " fill-opacity="1" fill-rule="nonzero"/></g></g></g><g clip-path="url(#fbf251e87d)"><g clip-path="url(#e3de0c76dd)"><g clip-path="url(#c54acf6ca7)"><path fill="#3c2d96" d="M 42.464844 58.941406 C 41.804688 59.386719 41.035156 59.617188 40.238281 59.589844 C 40.046875 59.582031 39.882812 59.390625 39.90625 59.203125 C 39.933594 59 40.09375 58.863281 40.296875 58.871094 C 40.335938 58.875 40.375 58.875 40.417969 58.875 C 40.449219 58.875 40.511719 58.882812 40.539062 58.871094 C 40.527344 58.871094 40.515625 58.875 40.503906 58.875 C 40.515625 58.875 40.53125 58.871094 40.542969 58.871094 C 40.5625 58.871094 40.582031 58.871094 40.597656 58.867188 C 40.640625 58.863281 40.679688 58.859375 40.722656 58.855469 C 40.890625 58.835938 41.054688 58.800781 41.214844 58.753906 C 41.234375 58.75 41.25 58.746094 41.269531 58.738281 C 41.320312 58.726562 41.1875 58.769531 41.269531 58.738281 C 41.308594 58.726562 41.347656 58.710938 41.386719 58.699219 C 41.464844 58.667969 41.539062 58.636719 41.613281 58.601562 C 41.6875 58.566406 41.761719 58.53125 41.832031 58.492188 C 41.867188 58.472656 41.90625 58.449219 41.941406 58.429688 C 41.949219 58.421875 41.976562 58.398438 41.984375 58.398438 C 41.945312 58.425781 41.9375 58.429688 41.960938 58.414062 C 41.972656 58.40625 41.984375 58.398438 41.996094 58.390625 C 42.152344 58.285156 42.375 58.265625 42.503906 58.433594 C 42.613281 58.574219 42.628906 58.828125 42.464844 58.941406 " fill-opacity="1" fill-rule="nonzero"/></g></g></g><g clip-path="url(#682790f053)"><g clip-path="url(#9872f09974)"><g clip-path="url(#886fd2060b)"><path fill="#3c2d96" d="M 38.742188 59.976562 C 38.089844 60.003906 37.429688 59.808594 36.882812 59.453125 C 36.722656 59.351562 36.671875 59.109375 36.785156 58.953125 C 36.90625 58.792969 37.117188 58.75 37.285156 58.859375 C 37.347656 58.898438 37.410156 58.9375 37.472656 58.972656 C 37.492188 58.980469 37.507812 58.988281 37.523438 58.996094 C 37.574219 59.023438 37.507812 58.984375 37.503906 58.988281 C 37.511719 58.980469 37.582031 59.023438 37.597656 59.03125 C 37.730469 59.089844 37.867188 59.140625 38.011719 59.179688 C 38.042969 59.1875 38.078125 59.195312 38.109375 59.203125 C 38.125 59.207031 38.140625 59.210938 38.15625 59.214844 C 38.066406 59.1875 38.121094 59.207031 38.144531 59.210938 C 38.214844 59.222656 38.289062 59.234375 38.359375 59.242188 C 38.507812 59.257812 38.652344 59.261719 38.800781 59.257812 C 38.882812 59.253906 38.992188 59.320312 39.042969 59.382812 C 39.101562 59.449219 39.140625 59.554688 39.128906 59.644531 C 39.117188 59.738281 39.078125 59.832031 39.003906 59.890625 C 38.921875 59.953125 38.84375 59.96875 38.742188 59.976562 " fill-opacity="1" fill-rule="nonzero"/></g></g></g><g clip-path="url(#cb076e4bf8)"><g clip-path="url(#a0b49c7fac)"><g clip-path="url(#27127f4d42)"><path fill="#3c2d96" d="M 35.871094 58.574219 C 35.644531 57.996094 35.5 57.390625 35.449219 56.773438 C 35.4375 56.585938 35.535156 56.382812 35.742188 56.355469 C 35.917969 56.332031 36.144531 56.445312 36.160156 56.644531 C 36.183594 56.933594 36.226562 57.21875 36.289062 57.503906 C 36.320312 57.640625 36.359375 57.777344 36.398438 57.914062 C 36.410156 57.953125 36.410156 57.949219 36.394531 57.90625 C 36.398438 57.921875 36.40625 57.941406 36.410156 57.957031 C 36.421875 57.992188 36.433594 58.027344 36.445312 58.0625 C 36.472656 58.128906 36.496094 58.199219 36.523438 58.269531 C 36.59375 58.441406 36.539062 58.667969 36.351562 58.746094 C 36.179688 58.816406 35.945312 58.761719 35.871094 58.574219 " fill-opacity="1" fill-rule="nonzero"/></g></g></g><g clip-path="url(#07c177e6eb)"><g clip-path="url(#86457ead3c)"><g clip-path="url(#fe4512bc65)"><path fill="#3c2d96" d="M 35.375 55.355469 C 35.4375 54.664062 35.53125 53.976562 35.65625 53.292969 C 35.671875 53.195312 35.703125 53.113281 35.78125 53.046875 C 35.847656 52.992188 35.953125 52.953125 36.042969 52.960938 C 36.222656 52.984375 36.410156 53.152344 36.375 53.351562 C 36.25 54.03125 36.15625 54.722656 36.09375 55.410156 C 36.078125 55.597656 35.902344 55.765625 35.707031 55.742188 C 35.515625 55.71875 35.359375 55.554688 35.375 55.355469 " fill-opacity="1" fill-rule="nonzero"/></g></g></g><g clip-path="url(#42d99414d8)"><g clip-path="url(#ae731d0490)"><g clip-path="url(#5d651c5894)"><path fill="#3c2d96" d="M 35.730469 52.074219 C 35.753906 51.96875 35.78125 51.859375 35.804688 51.753906 C 35.816406 51.703125 35.828125 51.648438 35.839844 51.597656 C 35.828125 51.65625 35.839844 51.59375 35.847656 51.566406 C 35.851562 51.542969 35.855469 51.519531 35.863281 51.492188 C 35.90625 51.257812 35.945312 51.023438 35.980469 50.789062 C 36.039062 50.351562 36.078125 49.910156 36.089844 49.46875 C 36.097656 49.28125 36.292969 49.117188 36.476562 49.140625 C 36.679688 49.164062 36.816406 49.324219 36.808594 49.527344 C 36.777344 50.46875 36.640625 51.398438 36.410156 52.3125 C 36.363281 52.496094 36.121094 52.601562 35.949219 52.53125 C 35.753906 52.453125 35.679688 52.269531 35.730469 52.074219 " fill-opacity="1" fill-rule="nonzero"/></g></g></g><g clip-path="url(#a833abd404)"><g clip-path="url(#d1128b390a)"><g clip-path="url(#64a98f4b4e)"><path fill="#3c2d96" d="M 36.0625 48.5625 C 36.074219 48.34375 36.082031 48.128906 36.082031 47.910156 C 36.082031 47.804688 36.082031 47.695312 36.078125 47.585938 C 36.078125 47.5625 36.078125 47.539062 36.074219 47.511719 C 36.074219 47.503906 36.070312 47.410156 36.074219 47.457031 C 36.074219 47.503906 36.070312 47.421875 36.070312 47.414062 C 36.070312 47.382812 36.066406 47.355469 36.066406 47.324219 C 36.039062 46.890625 35.984375 46.460938 35.90625 46.035156 C 35.871094 45.847656 36.003906 45.640625 36.195312 45.617188 C 36.390625 45.589844 36.578125 45.710938 36.613281 45.90625 C 36.78125 46.800781 36.835938 47.714844 36.78125 48.617188 C 36.769531 48.808594 36.582031 48.972656 36.394531 48.949219 C 36.195312 48.925781 36.050781 48.761719 36.0625 48.5625 " fill-opacity="1" fill-rule="nonzero"/></g></g></g><g clip-path="url(#bdcc5faf48)"><g clip-path="url(#22cbe29e95)"><g clip-path="url(#8864e7cfb9)"><path fill="#3c2d96" d="M 35.511719 45.308594 C 35.035156 44.609375 34.484375 43.964844 33.863281 43.390625 C 33.722656 43.261719 33.761719 42.992188 33.902344 42.882812 C 34.070312 42.75 34.261719 42.785156 34.410156 42.921875 C 35.03125 43.496094 35.585938 44.140625 36.058594 44.84375 C 36.164062 44.996094 36.183594 45.222656 36.019531 45.351562 C 35.878906 45.457031 35.621094 45.476562 35.511719 45.308594 " fill-opacity="1" fill-rule="nonzero"/></g></g></g><g clip-path="url(#5f1a5fbfab)"><g clip-path="url(#2b77fd3a5d)"><g clip-path="url(#932cc8320b)"><path fill="#3c2d96" d="M 32.925781 42.78125 C 32.710938 42.699219 32.496094 42.625 32.277344 42.5625 C 32.171875 42.53125 32.066406 42.503906 31.960938 42.476562 C 31.90625 42.464844 31.847656 42.449219 31.792969 42.4375 C 31.765625 42.429688 31.738281 42.425781 31.710938 42.417969 C 31.683594 42.414062 31.691406 42.414062 31.730469 42.421875 C 31.714844 42.421875 31.703125 42.417969 31.6875 42.414062 C 31.246094 42.324219 30.796875 42.273438 30.34375 42.257812 C 30.15625 42.25 29.992188 42.058594 30.011719 41.871094 C 30.039062 41.667969 30.199219 41.53125 30.402344 41.539062 C 31.34375 41.570312 32.28125 41.765625 33.164062 42.101562 C 33.339844 42.167969 33.457031 42.375 33.382812 42.5625 C 33.3125 42.738281 33.113281 42.855469 32.925781 42.78125 " fill-opacity="1" fill-rule="nonzero"/></g></g></g><g clip-path="url(#69a1d7bad4)"><g clip-path="url(#f338255da4)"><g clip-path="url(#f82b4edd1f)"><path fill="#3c2d96" d="M 29.65625 42.625 C 28.996094 42.902344 28.34375 43.195312 27.699219 43.5 C 27.527344 43.578125 27.296875 43.503906 27.222656 43.324219 C 27.144531 43.144531 27.210938 42.933594 27.394531 42.847656 C 28.039062 42.539062 28.691406 42.25 29.351562 41.972656 C 29.523438 41.898438 29.753906 41.960938 29.828125 42.148438 C 29.902344 42.320312 29.839844 42.546875 29.65625 42.625 " fill-opacity="1" fill-rule="nonzero"/></g></g></g><g clip-path="url(#6795c5bc62)"><g clip-path="url(#03deae4d89)"><g clip-path="url(#4dfd446a64)"><path fill="#3c2d96" d="M 26.90625 44.101562 C 26.753906 44.234375 26.605469 44.378906 26.46875 44.527344 C 26.453125 44.542969 26.441406 44.554688 26.425781 44.570312 C 26.359375 44.644531 26.457031 44.535156 26.417969 44.578125 C 26.386719 44.617188 26.351562 44.65625 26.320312 44.695312 C 26.253906 44.773438 26.1875 44.851562 26.128906 44.933594 C 25.882812 45.25 25.667969 45.59375 25.484375 45.949219 C 25.445312 46.027344 25.328125 46.089844 25.25 46.101562 C 25.164062 46.117188 25.054688 46.097656 24.984375 46.046875 C 24.808594 45.917969 24.792969 45.726562 24.886719 45.546875 C 25.273438 44.792969 25.804688 44.117188 26.4375 43.550781 C 26.578125 43.425781 26.828125 43.441406 26.945312 43.59375 C 27.066406 43.75 27.054688 43.964844 26.90625 44.101562 " fill-opacity="1" fill-rule="nonzero"/></g></g></g><g clip-path="url(#760c9cbf1a)"><g clip-path="url(#690363f9e3)"><g clip-path="url(#14e6f4448a)"><path fill="#3c2d96" d="M 24.957031 46.628906 C 24.617188 47.304688 24.230469 47.953125 23.78125 48.566406 C 23.667969 48.714844 23.441406 48.78125 23.28125 48.660156 C 23.128906 48.546875 23.066406 48.320312 23.183594 48.160156 C 23.394531 47.871094 23.597656 47.574219 23.78125 47.273438 C 23.875 47.121094 23.964844 46.96875 24.050781 46.816406 C 24.09375 46.738281 24.132812 46.660156 24.175781 46.585938 C 24.195312 46.546875 24.214844 46.511719 24.234375 46.472656 C 24.246094 46.453125 24.257812 46.429688 24.269531 46.40625 C 24.273438 46.390625 24.308594 46.324219 24.273438 46.390625 C 24.320312 46.300781 24.367188 46.230469 24.464844 46.183594 C 24.542969 46.148438 24.652344 46.136719 24.734375 46.171875 C 24.898438 46.234375 25.046875 46.449219 24.957031 46.628906 " fill-opacity="1" fill-rule="nonzero"/></g></g></g><g clip-path="url(#790d86776b)"><g clip-path="url(#3ac2e3dd80)"><g clip-path="url(#ab081b2b0f)"><path fill="#3c2d96" d="M 23.054688 49.460938 C 22.671875 50.046875 22.226562 50.585938 21.730469 51.082031 C 21.597656 51.214844 21.335938 51.1875 21.222656 51.042969 C 21.097656 50.875 21.121094 50.675781 21.265625 50.535156 C 21.382812 50.414062 21.5 50.292969 21.613281 50.164062 C 21.554688 50.230469 21.644531 50.128906 21.65625 50.117188 C 21.675781 50.09375 21.695312 50.070312 21.71875 50.046875 C 21.773438 49.980469 21.828125 49.917969 21.878906 49.851562 C 22.085938 49.597656 22.277344 49.332031 22.457031 49.054688 C 22.5625 48.898438 22.804688 48.84375 22.957031 48.960938 C 23.117188 49.078125 23.164062 49.292969 23.054688 49.460938 " fill-opacity="1" fill-rule="nonzero"/></g></g></g><g clip-path="url(#cc6aa69c59)"><g clip-path="url(#1d8b9a6fe3)"><g clip-path="url(#5da83efc07)"><path fill="#3c2d96" d="M 20.941406 51.984375 C 20.269531 52.539062 19.519531 53 18.714844 53.332031 C 18.542969 53.40625 18.3125 53.34375 18.238281 53.160156 C 18.164062 52.984375 18.226562 52.757812 18.410156 52.679688 C 18.792969 52.519531 19.164062 52.335938 19.519531 52.121094 C 19.558594 52.097656 19.597656 52.070312 19.640625 52.046875 C 19.660156 52.03125 19.683594 52.019531 19.707031 52.003906 C 19.742188 51.980469 19.65625 52.035156 19.714844 51.996094 C 19.804688 51.941406 19.890625 51.882812 19.976562 51.820312 C 20.144531 51.699219 20.3125 51.570312 20.472656 51.4375 C 20.617188 51.316406 20.859375 51.320312 20.980469 51.476562 C 21.101562 51.628906 21.097656 51.855469 20.941406 51.984375 " fill-opacity="1" fill-rule="nonzero"/></g></g></g><g clip-path="url(#505e7293cb)"><g clip-path="url(#5c03bc3423)"><g clip-path="url(#ddc20ee610)"><path fill="#3c2d96" d="M 17.695312 53.722656 C 16.675781 53.773438 15.652344 53.589844 14.734375 53.140625 C 14.566406 53.058594 14.433594 52.878906 14.511719 52.683594 C 14.578125 52.519531 14.789062 52.375 14.972656 52.460938 C 15.183594 52.5625 15.398438 52.652344 15.621094 52.730469 C 15.730469 52.769531 15.84375 52.800781 15.957031 52.832031 C 16.011719 52.847656 16.070312 52.863281 16.125 52.875 C 16.15625 52.882812 16.1875 52.890625 16.21875 52.898438 C 16.226562 52.898438 16.238281 52.902344 16.246094 52.902344 C 16.285156 52.914062 16.28125 52.910156 16.234375 52.902344 C 16.277344 52.921875 16.347656 52.921875 16.394531 52.933594 C 16.457031 52.941406 16.519531 52.953125 16.582031 52.960938 C 16.695312 52.976562 16.8125 52.988281 16.929688 53 C 17.046875 53.007812 17.164062 53.011719 17.28125 53.015625 C 17.335938 53.015625 17.390625 53.015625 17.441406 53.015625 C 17.46875 53.015625 17.496094 53.011719 17.523438 53.011719 C 17.542969 53.011719 17.664062 53.007812 17.566406 53.011719 C 17.664062 53.007812 17.746094 53.011719 17.832031 53.066406 C 17.90625 53.117188 17.972656 53.210938 17.984375 53.304688 C 18.007812 53.476562 17.894531 53.710938 17.695312 53.722656 " fill-opacity="1" fill-rule="nonzero"/></g></g></g><g clip-path="url(#8fa1be07ee)"><g clip-path="url(#a51f275e68)"><g clip-path="url(#e1986b9f02)"><path fill="#3c2d96" d="M 13.792969 52.679688 C 13.324219 52.300781 12.90625 51.859375 12.558594 51.363281 C 12.453125 51.210938 12.4375 50.984375 12.601562 50.855469 C 12.742188 50.746094 12.992188 50.734375 13.109375 50.898438 C 13.269531 51.128906 13.445312 51.347656 13.632812 51.554688 C 13.726562 51.652344 13.824219 51.753906 13.925781 51.847656 C 13.949219 51.871094 13.976562 51.898438 14.003906 51.921875 C 13.953125 51.878906 14.007812 51.925781 14.027344 51.941406 C 14.085938 51.992188 14.140625 52.039062 14.199219 52.085938 C 14.34375 52.203125 14.417969 52.421875 14.292969 52.585938 C 14.1875 52.730469 13.949219 52.808594 13.792969 52.679688 " fill-opacity="1" fill-rule="nonzero"/></g></g></g><g clip-path="url(#4fc77003b2)"><g clip-path="url(#09d0b34105)"><g clip-path="url(#f23e2df6e2)"><path fill="#3c2d96" d="M 11.8125 50.574219 C 11.367188 50.097656 10.957031 49.585938 10.578125 49.050781 C 10.46875 48.898438 10.457031 48.671875 10.621094 48.542969 C 10.761719 48.433594 11.011719 48.417969 11.128906 48.582031 C 11.503906 49.121094 11.914062 49.628906 12.359375 50.109375 C 12.488281 50.246094 12.46875 50.5 12.320312 50.617188 C 12.160156 50.742188 11.949219 50.722656 11.8125 50.574219 " fill-opacity="1" fill-rule="nonzero"/></g></g></g><g clip-path="url(#de637f6e55)"><g clip-path="url(#c1e95e5531)"><g clip-path="url(#54ba5bd6e6)"><path fill="#3c2d96" d="M 9.679688 46.347656 C 9.96875 46.804688 10.242188 47.269531 10.503906 47.746094 C 10.59375 47.910156 10.5 48.152344 10.328125 48.222656 C 10.140625 48.300781 9.945312 48.226562 9.847656 48.050781 C 9.589844 47.574219 9.316406 47.109375 9.027344 46.652344 C 8.984375 46.582031 8.988281 46.457031 9.015625 46.382812 C 9.042969 46.296875 9.117188 46.207031 9.203125 46.171875 C 9.285156 46.140625 9.386719 46.125 9.472656 46.160156 C 9.570312 46.199219 9.625 46.261719 9.679688 46.347656 " fill-opacity="1" fill-rule="nonzero"/></g></g></g><g clip-path="url(#048a43c93a)"><g clip-path="url(#d44e509bcc)"><g clip-path="url(#0e27566e3a)"><path fill="#3c2d96" d="M 57.941406 24.519531 L 58.023438 24.613281 C 58.4375 25.066406 58.886719 25.507812 59.355469 25.917969 C 60.132812 26.597656 60.917969 27.160156 61.320312 27.4375 C 61.648438 27.664062 61.972656 27.90625 62.285156 28.144531 C 62.53125 28.324219 62.78125 28.515625 63.03125 28.695312 L 63.0625 28.714844 C 63.226562 28.832031 63.378906 28.941406 63.484375 29.035156 C 63.613281 29.148438 63.625 29.195312 63.625 29.203125 C 63.589844 29.257812 63.292969 29.304688 62.910156 29.253906 C 62.523438 29.203125 62.25 29.058594 62.148438 29.003906 C 61.554688 28.691406 61.347656 28.601562 61.148438 28.511719 C 60.914062 28.410156 60.695312 28.316406 59.851562 27.847656 C 59.792969 27.816406 59.738281 27.785156 59.679688 27.753906 C 59.433594 27.617188 59.183594 27.476562 58.8125 27.28125 C 58.523438 27.128906 58.3125 27.019531 58.183594 26.953125 L 58.117188 26.921875 C 57.5625 26.636719 56.945312 26.265625 56.28125 25.808594 L 56.222656 25.769531 L 56.164062 25.808594 C 55.6875 26.121094 55.199219 26.4375 54.710938 26.753906 C 54.089844 27.152344 53.792969 27.335938 53.34375 27.507812 C 53.164062 27.578125 52.890625 27.683594 52.640625 27.742188 C 52.273438 27.828125 52.1875 27.757812 52.171875 27.734375 C 52.152344 27.710938 52.109375 27.609375 52.289062 27.28125 C 52.414062 27.058594 52.585938 26.824219 52.691406 26.6875 C 53.03125 26.226562 53.59375 25.761719 54 25.453125 C 54.40625 25.152344 54.835938 24.867188 55.277344 24.613281 L 55.335938 24.578125 L 55.332031 24.511719 C 55.277344 23.824219 55.226562 23.121094 55.179688 22.421875 C 55.125 21.59375 55.105469 21.144531 55.09375 20.816406 C 55.078125 20.4375 55.070312 20.210938 55.019531 19.75 C 54.988281 19.460938 54.960938 19.164062 54.9375 18.878906 C 54.914062 18.605469 54.890625 18.324219 54.859375 18.046875 L 54.855469 17.996094 C 54.820312 17.679688 54.800781 17.488281 54.828125 17.210938 C 54.875 16.671875 55.066406 16.1875 55.171875 16.0625 C 55.203125 16.15625 55.230469 16.382812 55.257812 16.601562 C 55.273438 16.71875 55.289062 16.851562 55.308594 16.996094 C 55.339844 17.203125 55.355469 17.265625 55.558594 18.03125 C 55.617188 18.238281 55.6875 18.503906 55.777344 18.835938 C 55.960938 19.523438 56.085938 20.007812 56.179688 20.359375 C 56.375 21.109375 56.425781 21.308594 56.566406 21.75 C 56.714844 22.210938 56.871094 22.675781 57.039062 23.125 L 57.082031 23.242188 L 57.191406 23.179688 C 57.5 22.996094 57.8125 22.800781 58.121094 22.605469 C 58.453125 22.390625 58.6875 22.234375 58.890625 22.09375 C 59.15625 21.914062 59.367188 21.769531 59.664062 21.597656 C 60.054688 21.371094 60.472656 21.164062 60.902344 20.984375 L 60.960938 20.960938 L 60.96875 20.898438 C 60.996094 20.648438 61.023438 20.394531 61.046875 20.136719 C 61.074219 19.820312 61.085938 19.605469 61.097656 19.429688 C 61.113281 19.164062 61.125 19.019531 61.167969 18.796875 C 61.253906 18.355469 61.398438 17.984375 61.492188 17.820312 C 61.5 17.863281 61.503906 17.921875 61.507812 17.976562 C 61.523438 18.152344 61.542969 18.386719 61.589844 18.71875 C 61.644531 19.09375 61.6875 19.28125 61.773438 19.65625 C 61.933594 20.359375 62.019531 20.492188 62.164062 20.542969 C 62.324219 20.597656 62.445312 20.519531 62.734375 20.328125 C 62.757812 20.3125 62.785156 20.296875 62.808594 20.28125 C 62.773438 20.304688 62.742188 20.328125 62.714844 20.347656 C 62.4375 20.546875 62.324219 20.628906 62.3125 20.796875 C 62.296875 21.042969 62.539062 21.207031 62.9375 21.480469 C 63.128906 21.617188 63.273438 21.699219 63.425781 21.785156 C 63.570312 21.867188 63.722656 21.953125 63.925781 22.089844 C 64.121094 22.21875 64.355469 22.378906 64.402344 22.449219 C 64.34375 22.484375 64.144531 22.507812 63.894531 22.488281 C 63.726562 22.472656 63.617188 22.433594 63.300781 22.320312 C 63.25 22.300781 63.195312 22.28125 63.132812 22.257812 C 63.128906 22.257812 63.027344 22.222656 62.5 22.042969 C 62.1875 21.933594 61.863281 21.832031 61.535156 21.734375 L 61.472656 21.714844 L 61.425781 21.765625 C 61.203125 22.015625 60.964844 22.253906 60.71875 22.480469 C 60.523438 22.660156 60.203125 22.933594 59.433594 23.492188 C 58.984375 23.816406 58.515625 24.140625 58.046875 24.453125 Z M 63.816406 29.296875 C 63.820312 29.289062 63.824219 29.277344 63.828125 29.265625 C 63.898438 29.050781 63.613281 28.847656 63.183594 28.542969 L 63.15625 28.519531 C 62.90625 28.34375 62.65625 28.15625 62.414062 27.972656 C 62.097656 27.734375 61.773438 27.492188 61.441406 27.261719 C 61.042969 26.988281 60.261719 26.429688 59.496094 25.757812 C 59.0625 25.378906 58.652344 24.976562 58.265625 24.5625 C 58.703125 24.269531 59.140625 23.96875 59.558594 23.664062 C 60.335938 23.101562 60.664062 22.820312 60.863281 22.636719 C 61.097656 22.421875 61.324219 22.191406 61.539062 21.957031 C 61.84375 22.046875 62.144531 22.144531 62.433594 22.242188 C 62.957031 22.421875 63.058594 22.457031 63.0625 22.460938 C 63.125 22.480469 63.179688 22.5 63.230469 22.519531 C 63.558594 22.636719 63.679688 22.679688 63.875 22.699219 C 64.074219 22.714844 64.550781 22.734375 64.613281 22.507812 C 64.664062 22.328125 64.457031 22.191406 64.042969 21.914062 C 63.832031 21.773438 63.679688 21.683594 63.53125 21.601562 C 63.382812 21.515625 63.242188 21.4375 63.054688 21.308594 C 62.710938 21.070312 62.519531 20.929688 62.527344 20.808594 C 62.53125 20.746094 62.605469 20.6875 62.839844 20.523438 C 62.878906 20.492188 62.917969 20.464844 62.964844 20.429688 C 63.171875 20.28125 63.386719 20.117188 63.550781 19.984375 C 63.632812 19.917969 63.695312 19.863281 63.738281 19.820312 C 63.796875 19.769531 63.871094 19.699219 63.820312 19.613281 C 63.765625 19.53125 63.667969 19.570312 63.609375 19.59375 C 63.554688 19.617188 63.484375 19.648438 63.40625 19.6875 C 63.292969 19.742188 63.0625 19.863281 62.792969 20.039062 C 62.726562 20.082031 62.671875 20.117188 62.621094 20.152344 C 62.375 20.3125 62.292969 20.363281 62.234375 20.34375 C 62.171875 20.320312 62.089844 20.082031 61.980469 19.609375 C 61.894531 19.242188 61.851562 19.054688 61.800781 18.6875 C 61.753906 18.363281 61.734375 18.128906 61.71875 17.960938 C 61.710938 17.839844 61.703125 17.753906 61.691406 17.695312 C 61.683594 17.65625 61.660156 17.542969 61.558594 17.527344 C 61.4375 17.503906 61.328125 17.628906 61.199219 17.941406 C 61.101562 18.179688 61.015625 18.476562 60.957031 18.757812 C 60.914062 18.992188 60.902344 19.140625 60.886719 19.417969 C 60.875 19.589844 60.863281 19.804688 60.835938 20.121094 C 60.8125 20.351562 60.789062 20.585938 60.765625 20.8125 C 60.34375 20.988281 59.9375 21.191406 59.554688 21.414062 C 59.253906 21.589844 59.039062 21.734375 58.773438 21.917969 C 58.566406 22.054688 58.335938 22.214844 58.003906 22.425781 C 57.738281 22.597656 57.464844 22.769531 57.195312 22.929688 C 57.042969 22.523438 56.902344 22.105469 56.769531 21.6875 C 56.632812 21.25 56.578125 21.050781 56.382812 20.304688 C 56.292969 19.953125 56.164062 19.46875 55.980469 18.785156 C 55.890625 18.449219 55.820312 18.183594 55.765625 17.976562 C 55.5625 17.222656 55.546875 17.160156 55.519531 16.964844 C 55.5 16.820312 55.484375 16.691406 55.46875 16.574219 C 55.40625 16.0625 55.378906 15.851562 55.207031 15.828125 C 55.171875 15.824219 55.121094 15.828125 55.0625 15.875 C 54.871094 16.027344 54.667969 16.632812 54.613281 17.191406 C 54.585938 17.488281 54.609375 17.699219 54.644531 18.019531 L 54.648438 18.070312 C 54.679688 18.34375 54.703125 18.625 54.726562 18.898438 C 54.75 19.183594 54.777344 19.480469 54.808594 19.773438 C 54.855469 20.226562 54.867188 20.453125 54.882812 20.824219 C 54.894531 21.152344 54.914062 21.605469 54.96875 22.4375 C 55.015625 23.113281 55.0625 23.792969 55.117188 24.460938 C 54.683594 24.710938 54.265625 24.988281 53.875 25.285156 C 53.453125 25.601562 52.878906 26.078125 52.519531 26.558594 C 52.132812 27.082031 51.800781 27.597656 52 27.863281 C 52.210938 28.140625 52.84375 27.929688 53.421875 27.707031 C 53.890625 27.527344 54.207031 27.328125 54.824219 26.933594 C 55.292969 26.628906 55.761719 26.324219 56.222656 26.027344 C 56.871094 26.464844 57.472656 26.832031 58.019531 27.109375 L 58.089844 27.144531 C 58.214844 27.207031 58.425781 27.316406 58.714844 27.46875 C 59.082031 27.660156 59.332031 27.800781 59.578125 27.9375 C 59.632812 27.96875 59.691406 28 59.75 28.035156 C 60.601562 28.507812 60.824219 28.605469 61.0625 28.707031 C 61.261719 28.792969 61.464844 28.882812 62.046875 29.191406 C 62.160156 29.253906 62.457031 29.410156 62.882812 29.464844 C 63.019531 29.484375 63.683594 29.554688 63.816406 29.296875 " fill-opacity="1" fill-rule="nonzero"/><path fill="#3c2d96" d="M 57.785156 24.339844 C 57.742188 24.375 57.710938 24.429688 57.703125 24.492188 C 57.695312 24.558594 57.71875 24.628906 57.765625 24.683594 L 57.847656 24.773438 C 58.265625 25.238281 58.722656 25.683594 59.195312 26.097656 C 59.980469 26.785156 60.777344 27.355469 61.183594 27.636719 C 61.507812 27.859375 61.832031 28.101562 62.144531 28.335938 C 62.386719 28.519531 62.640625 28.707031 62.894531 28.890625 L 62.921875 28.910156 C 62.980469 28.953125 63.039062 28.992188 63.089844 29.03125 C 63.042969 29.027344 62.992188 29.023438 62.941406 29.015625 C 62.597656 28.972656 62.351562 28.84375 62.261719 28.792969 C 61.660156 28.476562 61.449219 28.382812 61.242188 28.292969 C 61.015625 28.195312 60.804688 28.101562 59.96875 27.636719 L 59.796875 27.542969 C 59.550781 27.40625 59.296875 27.265625 58.925781 27.066406 C 58.636719 26.914062 58.425781 26.808594 58.296875 26.742188 L 58.226562 26.707031 C 57.679688 26.429688 57.074219 26.058594 56.417969 25.613281 L 56.359375 25.570312 C 56.28125 25.515625 56.175781 25.515625 56.09375 25.570312 L 56.035156 25.609375 C 55.558594 25.917969 55.070312 26.234375 54.578125 26.550781 C 53.972656 26.941406 53.6875 27.121094 53.261719 27.285156 C 53.082031 27.351562 52.820312 27.453125 52.585938 27.507812 C 52.523438 27.523438 52.472656 27.53125 52.433594 27.535156 C 52.449219 27.5 52.46875 27.453125 52.5 27.398438 C 52.613281 27.1875 52.78125 26.964844 52.882812 26.832031 C 53.207031 26.394531 53.75 25.945312 54.144531 25.644531 C 54.542969 25.347656 54.960938 25.070312 55.398438 24.820312 L 55.457031 24.789062 C 55.539062 24.742188 55.582031 24.652344 55.578125 24.5625 L 55.570312 24.496094 C 55.519531 23.808594 55.46875 23.105469 55.421875 22.40625 C 55.367188 21.585938 55.347656 21.136719 55.332031 20.8125 L 55.121094 20.8125 L 55.332031 20.804688 C 55.316406 20.421875 55.308594 20.191406 55.257812 19.726562 C 55.226562 19.4375 55.199219 19.144531 55.175781 18.859375 C 55.152344 18.585938 55.128906 18.300781 55.101562 18.023438 L 55.09375 17.972656 C 55.0625 17.660156 55.042969 17.484375 55.066406 17.234375 C 55.070312 17.1875 55.074219 17.140625 55.082031 17.09375 C 55.109375 17.273438 55.140625 17.398438 55.328125 18.089844 L 55.332031 18.105469 C 55.386719 18.3125 55.457031 18.570312 55.542969 18.898438 C 55.722656 19.574219 55.847656 20.054688 55.941406 20.402344 L 55.945312 20.421875 C 56.144531 21.171875 56.195312 21.375 56.339844 21.820312 C 56.484375 22.289062 56.644531 22.753906 56.8125 23.207031 L 56.859375 23.328125 C 56.882812 23.394531 56.933594 23.445312 57.003906 23.46875 C 57.070312 23.492188 57.144531 23.484375 57.207031 23.449219 L 57.316406 23.382812 C 57.625 23.199219 57.941406 23.003906 58.25 22.808594 C 58.585938 22.59375 58.820312 22.433594 59.023438 22.292969 C 59.289062 22.113281 59.492188 21.972656 59.785156 21.804688 C 60.167969 21.582031 60.574219 21.382812 60.996094 21.207031 L 61.054688 21.183594 C 61.132812 21.152344 61.191406 21.078125 61.199219 20.988281 L 61.207031 20.925781 C 61.238281 20.675781 61.261719 20.417969 61.285156 20.160156 C 61.3125 19.839844 61.328125 19.625 61.335938 19.449219 C 61.351562 19.230469 61.359375 19.105469 61.382812 18.953125 C 61.425781 19.21875 61.46875 19.402344 61.539062 19.710938 C 61.695312 20.398438 61.804688 20.667969 62.074219 20.765625 L 62.074219 20.78125 C 62.050781 21.164062 62.363281 21.378906 62.800781 21.679688 C 63.003906 21.820312 63.152344 21.902344 63.308594 21.992188 C 63.40625 22.046875 63.503906 22.105469 63.617188 22.175781 C 63.558594 22.15625 63.480469 22.128906 63.382812 22.09375 L 63.214844 22.035156 C 63.203125 22.03125 63.058594 21.980469 62.578125 21.8125 C 62.261719 21.707031 61.933594 21.601562 61.605469 21.503906 L 61.539062 21.484375 C 61.453125 21.460938 61.355469 21.488281 61.292969 21.554688 L 61.25 21.605469 C 61.03125 21.847656 60.796875 22.082031 60.554688 22.304688 C 60.367188 22.476562 60.050781 22.746094 59.292969 23.296875 C 58.847656 23.621094 58.382812 23.941406 57.914062 24.253906 L 57.808594 24.320312 C 57.800781 24.324219 57.792969 24.332031 57.785156 24.339844 Z M 63.917969 29.546875 C 63.964844 29.507812 64 29.460938 64.03125 29.40625 C 64.039062 29.386719 64.050781 29.363281 64.054688 29.34375 C 64.183594 28.957031 63.820312 28.699219 63.324219 28.347656 L 63.296875 28.324219 C 63.046875 28.148438 62.796875 27.960938 62.558594 27.78125 C 62.242188 27.542969 61.914062 27.296875 61.578125 27.0625 C 61.183594 26.792969 60.410156 26.242188 59.652344 25.578125 C 59.300781 25.265625 58.957031 24.941406 58.636719 24.601562 C 58.996094 24.359375 59.351562 24.109375 59.699219 23.855469 C 60.488281 23.289062 60.820312 23 61.023438 22.816406 C 61.226562 22.628906 61.425781 22.433594 61.613281 22.230469 C 61.863281 22.308594 62.113281 22.386719 62.355469 22.46875 C 62.867188 22.644531 62.972656 22.683594 62.980469 22.6875 L 63.148438 22.746094 C 63.488281 22.867188 63.628906 22.917969 63.851562 22.9375 C 64.570312 23.003906 64.789062 22.777344 64.84375 22.574219 C 64.941406 22.226562 64.636719 22.023438 64.179688 21.714844 C 63.960938 21.566406 63.804688 21.476562 63.652344 21.390625 C 63.507812 21.308594 63.371094 21.230469 63.191406 21.109375 C 63.074219 21.027344 62.90625 20.914062 62.816406 20.832031 C 62.863281 20.796875 62.925781 20.753906 62.976562 20.71875 C 63.015625 20.6875 63.058594 20.660156 63.105469 20.625 C 63.316406 20.472656 63.53125 20.308594 63.703125 20.171875 C 63.789062 20.101562 63.855469 20.042969 63.902344 20 C 64.136719 19.785156 64.09375 19.601562 64.019531 19.484375 C 63.960938 19.390625 63.816406 19.253906 63.519531 19.371094 C 63.460938 19.394531 63.382812 19.429688 63.296875 19.472656 C 63.179688 19.53125 62.941406 19.65625 62.660156 19.839844 C 62.597656 19.878906 62.539062 19.917969 62.488281 19.949219 C 62.441406 19.980469 62.390625 20.015625 62.34375 20.042969 C 62.3125 19.953125 62.269531 19.804688 62.214844 19.554688 C 62.128906 19.195312 62.089844 19.011719 62.039062 18.65625 C 61.996094 18.335938 61.972656 18.109375 61.960938 17.941406 C 61.949219 17.8125 61.941406 17.722656 61.925781 17.648438 C 61.871094 17.367188 61.679688 17.304688 61.597656 17.289062 C 61.234375 17.226562 61.0625 17.648438 60.976562 17.851562 C 60.875 18.101562 60.78125 18.414062 60.722656 18.710938 C 60.671875 18.960938 60.664062 19.125 60.644531 19.402344 C 60.636719 19.574219 60.621094 19.785156 60.59375 20.097656 C 60.578125 20.28125 60.5625 20.464844 60.542969 20.648438 C 60.160156 20.8125 59.789062 21 59.4375 21.207031 C 59.125 21.386719 58.910156 21.53125 58.640625 21.71875 L 58.753906 21.898438 L 58.632812 21.722656 C 58.429688 21.859375 58.203125 22.015625 57.875 22.226562 C 57.691406 22.34375 57.507812 22.457031 57.320312 22.574219 C 57.207031 22.257812 57.101562 21.933594 57 21.613281 C 56.863281 21.183594 56.808594 20.984375 56.617188 20.246094 C 56.523438 19.886719 56.394531 19.40625 56.214844 18.722656 C 56.125 18.390625 56.054688 18.128906 56 17.921875 L 55.996094 17.914062 C 55.800781 17.171875 55.785156 17.113281 55.757812 16.933594 C 55.738281 16.789062 55.722656 16.660156 55.707031 16.546875 C 55.636719 15.976562 55.59375 15.636719 55.238281 15.589844 C 55.125 15.574219 55.007812 15.609375 54.914062 15.6875 C 54.632812 15.914062 54.425781 16.621094 54.375 17.167969 C 54.347656 17.492188 54.371094 17.722656 54.40625 18.046875 L 54.410156 18.097656 C 54.441406 18.367188 54.464844 18.644531 54.484375 18.914062 C 54.511719 19.207031 54.535156 19.503906 54.570312 19.800781 C 54.617188 20.246094 54.625 20.46875 54.640625 20.832031 C 54.65625 21.164062 54.671875 21.613281 54.730469 22.453125 C 54.769531 23.078125 54.816406 23.707031 54.863281 24.332031 C 54.472656 24.566406 54.089844 24.820312 53.730469 25.09375 C 53.296875 25.417969 52.703125 25.914062 52.328125 26.417969 C 51.894531 26.996094 51.5 27.597656 51.8125 28.007812 C 52.121094 28.417969 52.820312 28.195312 53.507812 27.933594 C 53.996094 27.746094 54.324219 27.539062 54.953125 27.132812 C 55.382812 26.859375 55.804688 26.585938 56.21875 26.3125 C 56.824219 26.71875 57.394531 27.058594 57.910156 27.324219 L 57.992188 27.363281 C 58.113281 27.425781 58.324219 27.535156 58.601562 27.679688 C 58.964844 27.871094 59.214844 28.011719 59.457031 28.144531 L 59.632812 28.242188 C 60.496094 28.722656 60.726562 28.824219 60.964844 28.929688 C 61.160156 29.011719 61.359375 29.097656 61.933594 29.40625 C 62.058594 29.46875 62.382812 29.644531 62.851562 29.703125 C 63.15625 29.742188 63.660156 29.765625 63.917969 29.546875 " fill-opacity="1" fill-rule="nonzero"/></g></g></g></svg>