<svg xmlns="http://www.w3.org/2000/svg" xmlns:xlink="http://www.w3.org/1999/xlink" width="100" zoomAndPan="magnify" viewBox="0 0 75 74.999997" height="100" preserveAspectRatio="xMidYMid meet" version="1.0"><defs><clipPath id="537065ed3b"><path d="M 34.6875 37.160156 L 38 37.160156 L 38 37.910156 L 34.6875 37.910156 Z M 34.6875 37.160156 " clip-rule="nonzero"/></clipPath><clipPath id="0077296658"><path d="M 37 37.160156 L 40.6875 37.160156 L 40.6875 37.910156 L 37 37.910156 Z M 37 37.160156 " clip-rule="nonzero"/></clipPath></defs><g clip-path="url(#537065ed3b)"><path fill="#a2383a" d="M 34.738281 37.578125 C 34.746094 37.566406 34.757812 37.554688 34.769531 37.546875 C 34.78125 37.535156 34.792969 37.527344 34.808594 37.519531 C 34.832031 37.507812 34.863281 37.496094 34.890625 37.488281 C 34.921875 37.480469 34.949219 37.476562 34.980469 37.476562 C 35.011719 37.472656 35.039062 37.472656 35.070312 37.476562 C 35.085938 37.476562 35.101562 37.480469 35.117188 37.484375 C 35.121094 37.484375 35.128906 37.484375 35.136719 37.488281 C 35.144531 37.488281 35.152344 37.488281 35.160156 37.492188 C 35.1875 37.496094 35.21875 37.503906 35.246094 37.511719 C 35.304688 37.527344 35.359375 37.546875 35.417969 37.558594 C 35.445312 37.566406 35.472656 37.570312 35.503906 37.574219 C 35.53125 37.578125 35.558594 37.578125 35.585938 37.578125 C 35.597656 37.574219 35.613281 37.574219 35.625 37.570312 C 35.636719 37.566406 35.648438 37.558594 35.660156 37.554688 C 35.679688 37.539062 35.695312 37.523438 35.703125 37.5 C 35.707031 37.488281 35.707031 37.476562 35.707031 37.464844 L 35.707031 37.457031 C 35.707031 37.457031 35.703125 37.453125 35.703125 37.449219 L 35.703125 37.445312 L 35.699219 37.445312 C 35.699219 37.441406 35.699219 37.441406 35.695312 37.441406 C 35.691406 37.433594 35.683594 37.425781 35.671875 37.421875 C 35.667969 37.421875 35.664062 37.421875 35.660156 37.417969 C 35.652344 37.417969 35.648438 37.417969 35.644531 37.421875 C 35.640625 37.421875 35.636719 37.421875 35.632812 37.425781 C 35.628906 37.425781 35.625 37.429688 35.625 37.429688 C 35.621094 37.4375 35.617188 37.445312 35.617188 37.453125 C 35.621094 37.464844 35.621094 37.472656 35.628906 37.480469 C 35.628906 37.484375 35.628906 37.484375 35.628906 37.484375 L 35.632812 37.488281 L 35.632812 37.492188 C 35.636719 37.492188 35.636719 37.492188 35.636719 37.492188 C 35.640625 37.496094 35.644531 37.5 35.648438 37.503906 C 35.660156 37.511719 35.671875 37.515625 35.683594 37.519531 C 35.6875 37.519531 35.695312 37.523438 35.703125 37.523438 C 35.707031 37.523438 35.714844 37.527344 35.722656 37.527344 C 35.746094 37.53125 35.773438 37.53125 35.800781 37.527344 C 35.828125 37.523438 35.855469 37.519531 35.878906 37.507812 C 35.902344 37.5 35.929688 37.488281 35.949219 37.472656 L 35.957031 37.46875 C 35.960938 37.464844 35.964844 37.464844 35.964844 37.460938 C 35.972656 37.457031 35.976562 37.453125 35.980469 37.449219 L 35.996094 37.433594 C 36 37.429688 36.003906 37.425781 36.007812 37.417969 C 36.011719 37.417969 36.011719 37.417969 36.011719 37.414062 L 36.023438 37.402344 C 36.027344 37.398438 36.03125 37.394531 36.03125 37.386719 C 36.039062 37.378906 36.046875 37.367188 36.050781 37.355469 C 36.054688 37.34375 36.058594 37.332031 36.058594 37.320312 L 36.058594 37.316406 C 36.058594 37.316406 36.0625 37.3125 36.0625 37.3125 C 36.0625 37.308594 36.0625 37.304688 36.0625 37.304688 C 36.0625 37.300781 36.0625 37.300781 36.0625 37.300781 C 36.0625 37.296875 36.0625 37.296875 36.058594 37.296875 L 36.058594 37.292969 C 36.058594 37.289062 36.058594 37.289062 36.058594 37.289062 C 36.058594 37.277344 36.054688 37.269531 36.046875 37.261719 C 36.046875 37.257812 36.046875 37.257812 36.046875 37.257812 L 36.035156 37.246094 L 36.03125 37.246094 L 36.03125 37.242188 L 36.027344 37.242188 C 36.011719 37.230469 35.996094 37.230469 35.980469 37.242188 C 35.972656 37.246094 35.964844 37.253906 35.960938 37.261719 C 35.953125 37.269531 35.949219 37.28125 35.949219 37.289062 C 35.945312 37.292969 35.945312 37.300781 35.945312 37.304688 L 35.945312 37.3125 C 35.945312 37.3125 35.945312 37.3125 35.945312 37.316406 C 35.945312 37.316406 35.945312 37.316406 35.945312 37.320312 C 35.949219 37.328125 35.953125 37.339844 35.957031 37.351562 C 35.964844 37.371094 35.980469 37.390625 36 37.40625 C 36.011719 37.414062 36.023438 37.421875 36.03125 37.429688 L 36.035156 37.433594 L 36.042969 37.433594 L 36.050781 37.441406 C 36.050781 37.441406 36.054688 37.445312 36.058594 37.445312 L 36.066406 37.449219 C 36.09375 37.460938 36.117188 37.472656 36.144531 37.476562 C 36.195312 37.492188 36.25 37.496094 36.304688 37.488281 L 36.324219 37.484375 L 36.34375 37.476562 C 36.355469 37.476562 36.367188 37.472656 36.382812 37.464844 C 36.40625 37.457031 36.433594 37.445312 36.457031 37.429688 C 36.480469 37.417969 36.503906 37.402344 36.53125 37.386719 C 36.554688 37.371094 36.578125 37.355469 36.601562 37.335938 C 36.648438 37.300781 36.699219 37.265625 36.753906 37.238281 C 36.78125 37.222656 36.8125 37.210938 36.839844 37.199219 C 36.84375 37.199219 36.847656 37.195312 36.851562 37.195312 L 36.875 37.1875 C 36.878906 37.1875 36.882812 37.1875 36.886719 37.1875 C 36.894531 37.183594 36.902344 37.183594 36.910156 37.179688 C 36.914062 37.179688 36.917969 37.179688 36.921875 37.179688 L 36.933594 37.175781 C 36.96875 37.171875 37 37.171875 37.03125 37.179688 C 37.035156 37.179688 37.039062 37.179688 37.042969 37.179688 C 37.046875 37.179688 37.054688 37.179688 37.058594 37.183594 L 37.070312 37.183594 L 37.074219 37.1875 L 37.082031 37.1875 L 37.09375 37.191406 C 37.097656 37.195312 37.101562 37.195312 37.105469 37.199219 C 37.113281 37.199219 37.121094 37.203125 37.128906 37.207031 C 37.144531 37.214844 37.15625 37.226562 37.171875 37.238281 C 37.183594 37.246094 37.195312 37.257812 37.207031 37.273438 C 37.230469 37.300781 37.246094 37.332031 37.253906 37.363281 C 37.257812 37.378906 37.261719 37.398438 37.261719 37.414062 C 37.261719 37.453125 37.253906 37.488281 37.234375 37.519531 C 37.222656 37.535156 37.214844 37.546875 37.199219 37.558594 C 37.1875 37.570312 37.175781 37.582031 37.160156 37.589844 C 37.144531 37.597656 37.128906 37.605469 37.113281 37.613281 C 37.082031 37.621094 37.050781 37.628906 37.019531 37.632812 C 37.003906 37.632812 36.988281 37.632812 36.972656 37.632812 C 36.96875 37.632812 36.964844 37.632812 36.960938 37.632812 L 36.953125 37.632812 L 36.945312 37.628906 C 36.9375 37.628906 36.929688 37.628906 36.921875 37.625 C 36.90625 37.621094 36.890625 37.617188 36.875 37.609375 C 36.859375 37.605469 36.84375 37.59375 36.832031 37.585938 C 36.816406 37.574219 36.804688 37.558594 36.792969 37.542969 C 36.777344 37.519531 36.773438 37.488281 36.78125 37.460938 C 36.785156 37.449219 36.789062 37.441406 36.792969 37.433594 C 36.804688 37.417969 36.816406 37.402344 36.828125 37.390625 C 36.84375 37.382812 36.855469 37.375 36.871094 37.367188 C 36.886719 37.359375 36.902344 37.355469 36.917969 37.347656 C 36.921875 37.347656 36.925781 37.347656 36.929688 37.347656 L 36.941406 37.34375 C 36.949219 37.34375 36.957031 37.339844 36.964844 37.339844 L 36.984375 37.335938 L 36.996094 37.335938 L 37.007812 37.332031 L 37.03125 37.332031 C 37.039062 37.332031 37.046875 37.332031 37.054688 37.332031 L 37.066406 37.328125 C 37.070312 37.328125 37.074219 37.328125 37.078125 37.328125 L 37.101562 37.332031 C 37.132812 37.332031 37.160156 37.335938 37.191406 37.34375 L 37.207031 37.34375 L 37.214844 37.347656 L 37.238281 37.351562 C 37.242188 37.355469 37.25 37.355469 37.257812 37.359375 L 37.269531 37.363281 C 37.273438 37.363281 37.277344 37.363281 37.28125 37.367188 L 37.300781 37.375 C 37.304688 37.375 37.308594 37.378906 37.3125 37.378906 L 37.320312 37.382812 C 37.328125 37.386719 37.335938 37.390625 37.34375 37.394531 L 37.363281 37.402344 L 37.375 37.410156 L 37.382812 37.414062 L 37.421875 37.4375 L 37.429688 37.445312 C 37.433594 37.449219 37.4375 37.449219 37.441406 37.453125 C 37.464844 37.46875 37.488281 37.492188 37.507812 37.511719 C 37.527344 37.535156 37.546875 37.5625 37.558594 37.589844 C 37.566406 37.601562 37.570312 37.617188 37.574219 37.632812 C 37.578125 37.648438 37.582031 37.664062 37.582031 37.679688 C 37.582031 37.691406 37.578125 37.707031 37.578125 37.722656 C 37.574219 37.738281 37.566406 37.753906 37.558594 37.765625 C 37.554688 37.78125 37.542969 37.792969 37.535156 37.804688 C 37.523438 37.8125 37.511719 37.820312 37.496094 37.828125 L 37.496094 37.824219 C 37.523438 37.8125 37.542969 37.789062 37.554688 37.761719 C 37.5625 37.75 37.566406 37.734375 37.566406 37.722656 C 37.570312 37.707031 37.574219 37.691406 37.570312 37.679688 C 37.570312 37.664062 37.570312 37.648438 37.566406 37.636719 C 37.558594 37.621094 37.554688 37.609375 37.546875 37.59375 C 37.535156 37.566406 37.515625 37.542969 37.496094 37.523438 C 37.476562 37.503906 37.453125 37.484375 37.429688 37.464844 C 37.425781 37.464844 37.425781 37.460938 37.421875 37.460938 L 37.410156 37.453125 L 37.394531 37.441406 L 37.375 37.429688 L 37.363281 37.425781 L 37.355469 37.421875 L 37.335938 37.410156 C 37.328125 37.40625 37.320312 37.40625 37.316406 37.402344 L 37.304688 37.398438 C 37.300781 37.394531 37.296875 37.394531 37.292969 37.394531 L 37.273438 37.386719 C 37.269531 37.386719 37.265625 37.382812 37.261719 37.382812 L 37.253906 37.378906 C 37.246094 37.378906 37.238281 37.375 37.230469 37.375 L 37.210938 37.367188 L 37.199219 37.367188 L 37.1875 37.363281 L 37.171875 37.363281 C 37.167969 37.363281 37.167969 37.359375 37.167969 37.359375 L 37.144531 37.359375 C 37.136719 37.355469 37.128906 37.355469 37.121094 37.355469 L 37.113281 37.355469 C 37.109375 37.355469 37.105469 37.355469 37.101562 37.355469 L 37.078125 37.355469 C 37.074219 37.355469 37.070312 37.355469 37.066406 37.355469 L 37.054688 37.355469 C 37.050781 37.355469 37.042969 37.355469 37.035156 37.355469 L 37.011719 37.359375 L 37 37.359375 L 36.992188 37.363281 L 36.96875 37.367188 C 36.960938 37.367188 36.953125 37.367188 36.945312 37.371094 C 36.941406 37.371094 36.933594 37.375 36.925781 37.375 C 36.898438 37.382812 36.871094 37.398438 36.847656 37.414062 C 36.835938 37.425781 36.828125 37.433594 36.820312 37.449219 C 36.8125 37.460938 36.808594 37.472656 36.808594 37.488281 C 36.808594 37.503906 36.8125 37.515625 36.820312 37.527344 C 36.828125 37.539062 36.839844 37.550781 36.851562 37.558594 C 36.863281 37.570312 36.875 37.574219 36.886719 37.582031 C 36.902344 37.585938 36.914062 37.589844 36.929688 37.59375 C 36.9375 37.59375 36.945312 37.597656 36.949219 37.597656 C 36.953125 37.597656 36.957031 37.597656 36.960938 37.597656 C 36.964844 37.597656 36.96875 37.597656 36.972656 37.597656 C 36.988281 37.597656 37.003906 37.597656 37.015625 37.597656 C 37.046875 37.59375 37.074219 37.589844 37.101562 37.578125 C 37.117188 37.574219 37.128906 37.566406 37.140625 37.558594 C 37.152344 37.550781 37.164062 37.542969 37.175781 37.53125 C 37.1875 37.523438 37.195312 37.511719 37.203125 37.5 C 37.21875 37.472656 37.226562 37.445312 37.222656 37.417969 C 37.222656 37.402344 37.222656 37.386719 37.21875 37.375 C 37.210938 37.34375 37.195312 37.320312 37.175781 37.296875 C 37.160156 37.273438 37.136719 37.257812 37.109375 37.242188 C 37.101562 37.238281 37.097656 37.238281 37.089844 37.234375 C 37.085938 37.234375 37.082031 37.230469 37.078125 37.230469 L 37.070312 37.226562 L 37.0625 37.226562 L 37.058594 37.222656 L 37.046875 37.222656 C 37.042969 37.21875 37.042969 37.21875 37.039062 37.21875 C 37.035156 37.21875 37.03125 37.21875 37.027344 37.21875 C 36.996094 37.214844 36.96875 37.214844 36.941406 37.21875 C 36.910156 37.222656 36.882812 37.226562 36.855469 37.238281 C 36.828125 37.25 36.800781 37.261719 36.773438 37.273438 C 36.722656 37.300781 36.675781 37.335938 36.625 37.371094 C 36.578125 37.40625 36.53125 37.441406 36.476562 37.46875 C 36.453125 37.484375 36.425781 37.496094 36.394531 37.507812 C 36.382812 37.511719 36.367188 37.515625 36.355469 37.519531 L 36.308594 37.527344 C 36.25 37.539062 36.191406 37.535156 36.132812 37.519531 C 36.101562 37.511719 36.074219 37.5 36.046875 37.488281 L 36.039062 37.480469 C 36.035156 37.480469 36.03125 37.480469 36.027344 37.476562 L 36.019531 37.472656 L 36.015625 37.46875 L 36.007812 37.464844 C 35.996094 37.457031 35.984375 37.449219 35.972656 37.4375 C 35.949219 37.417969 35.929688 37.394531 35.917969 37.367188 C 35.910156 37.355469 35.90625 37.339844 35.90625 37.324219 C 35.902344 37.308594 35.902344 37.292969 35.90625 37.277344 C 35.910156 37.265625 35.917969 37.25 35.925781 37.238281 C 35.9375 37.226562 35.945312 37.214844 35.960938 37.207031 C 35.988281 37.1875 36.019531 37.1875 36.046875 37.207031 C 36.050781 37.207031 36.050781 37.207031 36.054688 37.210938 C 36.054688 37.210938 36.058594 37.210938 36.058594 37.214844 L 36.0625 37.214844 L 36.066406 37.21875 C 36.070312 37.222656 36.070312 37.226562 36.074219 37.230469 C 36.074219 37.230469 36.078125 37.230469 36.078125 37.234375 C 36.078125 37.234375 36.078125 37.238281 36.082031 37.238281 C 36.089844 37.25 36.09375 37.265625 36.097656 37.28125 C 36.101562 37.296875 36.101562 37.3125 36.097656 37.324219 C 36.097656 37.339844 36.09375 37.355469 36.085938 37.371094 C 36.082031 37.382812 36.074219 37.398438 36.066406 37.410156 C 36.0625 37.414062 36.058594 37.421875 36.050781 37.425781 L 36.046875 37.4375 L 36.042969 37.441406 C 36.042969 37.441406 36.039062 37.445312 36.039062 37.445312 C 36.035156 37.449219 36.027344 37.457031 36.023438 37.460938 L 36.007812 37.476562 C 36 37.480469 35.996094 37.484375 35.988281 37.492188 C 35.988281 37.492188 35.984375 37.496094 35.980469 37.496094 L 35.972656 37.503906 C 35.945312 37.519531 35.921875 37.535156 35.890625 37.542969 C 35.863281 37.554688 35.835938 37.5625 35.804688 37.5625 C 35.773438 37.566406 35.746094 37.566406 35.714844 37.5625 C 35.699219 37.558594 35.6875 37.554688 35.671875 37.550781 C 35.65625 37.546875 35.644531 37.539062 35.632812 37.53125 C 35.625 37.527344 35.617188 37.523438 35.613281 37.515625 C 35.597656 37.5 35.585938 37.480469 35.585938 37.457031 C 35.585938 37.4375 35.589844 37.425781 35.597656 37.410156 C 35.605469 37.40625 35.609375 37.398438 35.617188 37.394531 C 35.625 37.390625 35.632812 37.390625 35.640625 37.390625 C 35.65625 37.386719 35.667969 37.386719 35.683594 37.394531 C 35.699219 37.398438 35.710938 37.410156 35.722656 37.421875 C 35.726562 37.425781 35.730469 37.433594 35.730469 37.441406 C 35.734375 37.445312 35.734375 37.449219 35.734375 37.453125 L 35.738281 37.457031 C 35.738281 37.460938 35.738281 37.460938 35.738281 37.464844 C 35.738281 37.480469 35.734375 37.492188 35.730469 37.507812 C 35.71875 37.539062 35.699219 37.5625 35.671875 37.578125 C 35.660156 37.585938 35.648438 37.589844 35.632812 37.59375 C 35.617188 37.597656 35.601562 37.601562 35.585938 37.601562 C 35.558594 37.605469 35.527344 37.601562 35.5 37.597656 C 35.46875 37.59375 35.441406 37.589844 35.410156 37.582031 C 35.355469 37.566406 35.296875 37.546875 35.242188 37.53125 C 35.210938 37.523438 35.183594 37.515625 35.15625 37.507812 C 35.148438 37.507812 35.140625 37.503906 35.132812 37.503906 C 35.125 37.5 35.121094 37.5 35.113281 37.5 C 35.097656 37.496094 35.082031 37.492188 35.070312 37.492188 C 35.011719 37.484375 34.949219 37.484375 34.894531 37.496094 C 34.863281 37.503906 34.835938 37.515625 34.808594 37.527344 C 34.785156 37.542969 34.761719 37.558594 34.738281 37.578125 Z M 34.738281 37.578125 " fill-opacity="1" fill-rule="nonzero"/></g><g clip-path="url(#0077296658)"><path fill="#a2383a" d="M 40.261719 37.578125 C 40.238281 37.558594 40.214844 37.542969 40.1875 37.53125 C 40.160156 37.515625 40.132812 37.507812 40.105469 37.503906 C 40.046875 37.492188 39.988281 37.492188 39.933594 37.5 C 39.917969 37.503906 39.902344 37.503906 39.890625 37.507812 C 39.886719 37.511719 39.882812 37.511719 39.878906 37.511719 L 39.867188 37.515625 C 39.859375 37.515625 39.855469 37.515625 39.847656 37.519531 C 39.820312 37.527344 39.789062 37.535156 39.761719 37.542969 C 39.707031 37.5625 39.652344 37.582031 39.59375 37.597656 C 39.5625 37.605469 39.535156 37.613281 39.503906 37.617188 C 39.472656 37.621094 39.441406 37.625 39.410156 37.621094 C 39.378906 37.621094 39.34375 37.613281 39.316406 37.59375 C 39.300781 37.585938 39.285156 37.574219 39.273438 37.5625 C 39.265625 37.546875 39.253906 37.53125 39.25 37.515625 C 39.242188 37.5 39.238281 37.480469 39.238281 37.460938 C 39.238281 37.460938 39.238281 37.457031 39.238281 37.453125 L 39.242188 37.449219 C 39.242188 37.445312 39.242188 37.441406 39.242188 37.441406 L 39.246094 37.433594 L 39.246094 37.429688 C 39.246094 37.429688 39.246094 37.425781 39.246094 37.425781 L 39.25 37.421875 L 39.25 37.417969 C 39.253906 37.414062 39.257812 37.410156 39.257812 37.40625 C 39.273438 37.390625 39.289062 37.378906 39.308594 37.371094 C 39.324219 37.363281 39.34375 37.363281 39.363281 37.363281 C 39.375 37.367188 39.386719 37.367188 39.394531 37.375 C 39.40625 37.378906 39.414062 37.386719 39.421875 37.394531 C 39.433594 37.414062 39.441406 37.433594 39.441406 37.457031 C 39.4375 37.464844 39.4375 37.476562 39.433594 37.484375 C 39.433594 37.496094 39.429688 37.503906 39.421875 37.511719 C 39.421875 37.515625 39.421875 37.515625 39.417969 37.519531 L 39.414062 37.523438 L 39.410156 37.53125 C 39.410156 37.53125 39.40625 37.535156 39.40625 37.535156 C 39.398438 37.542969 39.390625 37.546875 39.382812 37.554688 C 39.371094 37.5625 39.355469 37.570312 39.335938 37.578125 C 39.328125 37.582031 39.320312 37.582031 39.3125 37.585938 C 39.304688 37.585938 39.296875 37.585938 39.289062 37.589844 C 39.257812 37.59375 39.226562 37.597656 39.191406 37.59375 C 39.160156 37.589844 39.128906 37.582031 39.097656 37.574219 C 39.066406 37.5625 39.039062 37.546875 39.011719 37.527344 L 39 37.523438 C 39 37.519531 38.996094 37.519531 38.992188 37.515625 C 38.984375 37.511719 38.980469 37.503906 38.972656 37.5 L 38.953125 37.484375 C 38.949219 37.476562 38.945312 37.472656 38.9375 37.464844 C 38.9375 37.464844 38.933594 37.460938 38.933594 37.460938 L 38.929688 37.457031 L 38.921875 37.445312 C 38.917969 37.441406 38.914062 37.433594 38.910156 37.425781 C 38.898438 37.410156 38.890625 37.398438 38.882812 37.382812 C 38.878906 37.363281 38.871094 37.347656 38.871094 37.332031 C 38.867188 37.3125 38.867188 37.292969 38.871094 37.273438 C 38.875 37.253906 38.882812 37.238281 38.890625 37.222656 C 38.894531 37.21875 38.894531 37.214844 38.894531 37.214844 C 38.898438 37.210938 38.898438 37.210938 38.902344 37.207031 L 38.90625 37.203125 C 38.90625 37.203125 38.90625 37.203125 38.90625 37.199219 L 38.910156 37.199219 C 38.914062 37.195312 38.914062 37.195312 38.917969 37.191406 L 38.921875 37.1875 C 38.921875 37.1875 38.921875 37.1875 38.925781 37.183594 L 38.929688 37.183594 C 38.929688 37.179688 38.933594 37.179688 38.933594 37.179688 C 38.953125 37.167969 38.972656 37.160156 38.996094 37.160156 C 39.007812 37.160156 39.019531 37.164062 39.027344 37.164062 C 39.039062 37.167969 39.046875 37.171875 39.058594 37.179688 C 39.074219 37.1875 39.089844 37.203125 39.101562 37.21875 C 39.109375 37.234375 39.121094 37.25 39.125 37.269531 C 39.125 37.28125 39.128906 37.289062 39.128906 37.300781 L 39.128906 37.308594 C 39.128906 37.308594 39.128906 37.3125 39.128906 37.316406 C 39.128906 37.316406 39.128906 37.320312 39.128906 37.320312 C 39.128906 37.324219 39.128906 37.328125 39.128906 37.328125 C 39.125 37.347656 39.121094 37.367188 39.113281 37.382812 C 39.105469 37.398438 39.09375 37.414062 39.082031 37.425781 C 39.074219 37.441406 39.0625 37.453125 39.046875 37.464844 C 39.035156 37.476562 39.023438 37.484375 39.007812 37.492188 L 39 37.5 L 38.988281 37.507812 C 38.984375 37.507812 38.980469 37.511719 38.976562 37.511719 L 38.964844 37.519531 C 38.9375 37.53125 38.90625 37.542969 38.875 37.550781 C 38.8125 37.570312 38.75 37.574219 38.683594 37.5625 L 38.660156 37.558594 L 38.636719 37.550781 C 38.621094 37.546875 38.605469 37.542969 38.589844 37.539062 C 38.5625 37.527344 38.535156 37.511719 38.507812 37.5 C 38.480469 37.484375 38.453125 37.46875 38.429688 37.449219 C 38.402344 37.433594 38.378906 37.414062 38.355469 37.398438 C 38.304688 37.363281 38.257812 37.332031 38.210938 37.304688 C 38.1875 37.289062 38.160156 37.277344 38.132812 37.269531 C 38.109375 37.261719 38.082031 37.253906 38.054688 37.25 C 38.03125 37.246094 38.003906 37.246094 37.976562 37.25 C 37.972656 37.25 37.972656 37.25 37.96875 37.25 L 37.957031 37.253906 L 37.945312 37.253906 L 37.941406 37.257812 L 37.929688 37.257812 C 37.925781 37.261719 37.925781 37.261719 37.921875 37.261719 C 37.914062 37.265625 37.910156 37.269531 37.902344 37.269531 C 37.859375 37.292969 37.824219 37.335938 37.8125 37.382812 C 37.808594 37.394531 37.804688 37.40625 37.804688 37.417969 C 37.804688 37.429688 37.804688 37.441406 37.808594 37.453125 C 37.8125 37.464844 37.816406 37.472656 37.824219 37.484375 C 37.828125 37.496094 37.835938 37.503906 37.84375 37.511719 C 37.863281 37.53125 37.882812 37.542969 37.90625 37.554688 C 37.933594 37.5625 37.960938 37.570312 37.984375 37.570312 C 38 37.574219 38.011719 37.574219 38.027344 37.574219 C 38.03125 37.574219 38.03125 37.574219 38.035156 37.570312 L 38.046875 37.570312 C 38.050781 37.570312 38.058594 37.570312 38.066406 37.570312 C 38.078125 37.566406 38.089844 37.5625 38.101562 37.558594 C 38.113281 37.554688 38.125 37.546875 38.136719 37.539062 C 38.144531 37.535156 38.152344 37.527344 38.160156 37.515625 C 38.164062 37.507812 38.167969 37.5 38.167969 37.488281 C 38.167969 37.476562 38.164062 37.46875 38.160156 37.457031 C 38.152344 37.449219 38.148438 37.441406 38.136719 37.433594 C 38.117188 37.417969 38.09375 37.40625 38.066406 37.394531 C 38.066406 37.394531 38.0625 37.394531 38.058594 37.394531 L 38.046875 37.390625 C 38.042969 37.390625 38.035156 37.386719 38.027344 37.386719 L 38.007812 37.382812 L 37.996094 37.378906 L 37.984375 37.378906 L 37.964844 37.375 C 37.957031 37.375 37.949219 37.375 37.941406 37.375 L 37.933594 37.375 C 37.929688 37.375 37.925781 37.375 37.921875 37.375 L 37.898438 37.375 C 37.898438 37.375 37.894531 37.375 37.890625 37.375 L 37.878906 37.375 C 37.871094 37.375 37.863281 37.375 37.859375 37.375 L 37.835938 37.378906 C 37.835938 37.378906 37.832031 37.378906 37.832031 37.378906 L 37.824219 37.378906 L 37.816406 37.382812 L 37.792969 37.382812 L 37.773438 37.390625 C 37.765625 37.390625 37.757812 37.394531 37.75 37.394531 L 37.742188 37.398438 C 37.738281 37.398438 37.734375 37.398438 37.730469 37.402344 L 37.710938 37.40625 C 37.707031 37.410156 37.703125 37.410156 37.699219 37.410156 L 37.691406 37.414062 C 37.683594 37.417969 37.675781 37.421875 37.671875 37.421875 L 37.652344 37.433594 L 37.640625 37.4375 L 37.632812 37.441406 L 37.59375 37.464844 L 37.585938 37.46875 C 37.582031 37.472656 37.578125 37.472656 37.578125 37.476562 C 37.554688 37.492188 37.53125 37.507812 37.511719 37.53125 C 37.488281 37.550781 37.472656 37.574219 37.457031 37.597656 C 37.453125 37.609375 37.445312 37.625 37.441406 37.636719 C 37.4375 37.648438 37.433594 37.664062 37.433594 37.679688 C 37.433594 37.691406 37.433594 37.707031 37.4375 37.722656 C 37.4375 37.734375 37.441406 37.75 37.449219 37.761719 C 37.460938 37.789062 37.480469 37.808594 37.503906 37.824219 L 37.503906 37.828125 C 37.476562 37.8125 37.457031 37.792969 37.441406 37.765625 C 37.433594 37.75 37.429688 37.738281 37.425781 37.722656 C 37.425781 37.707031 37.421875 37.691406 37.421875 37.679688 C 37.425781 37.664062 37.425781 37.648438 37.429688 37.632812 C 37.433594 37.621094 37.441406 37.605469 37.449219 37.59375 C 37.460938 37.566406 37.480469 37.542969 37.5 37.519531 C 37.519531 37.5 37.542969 37.480469 37.566406 37.460938 C 37.570312 37.460938 37.574219 37.457031 37.574219 37.453125 L 37.585938 37.449219 L 37.625 37.425781 L 37.632812 37.421875 L 37.644531 37.414062 L 37.664062 37.40625 C 37.667969 37.402344 37.675781 37.398438 37.683594 37.394531 L 37.695312 37.390625 C 37.695312 37.390625 37.699219 37.390625 37.703125 37.386719 L 37.726562 37.378906 C 37.726562 37.378906 37.730469 37.378906 37.734375 37.378906 L 37.746094 37.375 C 37.753906 37.371094 37.761719 37.371094 37.765625 37.367188 L 37.789062 37.363281 L 37.792969 37.359375 L 37.8125 37.359375 C 37.839844 37.351562 37.871094 37.351562 37.898438 37.347656 L 37.921875 37.347656 C 37.925781 37.347656 37.929688 37.347656 37.933594 37.347656 L 37.945312 37.347656 C 37.953125 37.347656 37.957031 37.351562 37.964844 37.351562 L 37.988281 37.351562 L 38 37.355469 L 38.011719 37.355469 L 38.03125 37.359375 C 38.039062 37.359375 38.046875 37.363281 38.054688 37.363281 C 38.0625 37.367188 38.070312 37.367188 38.078125 37.371094 C 38.105469 37.378906 38.132812 37.390625 38.15625 37.410156 C 38.167969 37.417969 38.179688 37.429688 38.1875 37.445312 C 38.195312 37.457031 38.199219 37.472656 38.199219 37.488281 C 38.199219 37.503906 38.195312 37.519531 38.183594 37.53125 C 38.175781 37.546875 38.167969 37.554688 38.15625 37.566406 C 38.140625 37.574219 38.128906 37.582031 38.117188 37.585938 C 38.101562 37.59375 38.085938 37.597656 38.074219 37.601562 C 38.066406 37.601562 38.058594 37.601562 38.050781 37.605469 C 38.046875 37.605469 38.042969 37.605469 38.039062 37.605469 C 38.035156 37.605469 38.03125 37.605469 38.027344 37.605469 C 38.011719 37.605469 37.996094 37.605469 37.984375 37.605469 C 37.953125 37.601562 37.925781 37.597656 37.894531 37.585938 C 37.882812 37.578125 37.867188 37.574219 37.855469 37.566406 C 37.84375 37.558594 37.832031 37.546875 37.820312 37.539062 C 37.808594 37.527344 37.800781 37.515625 37.792969 37.503906 C 37.777344 37.476562 37.769531 37.449219 37.769531 37.417969 C 37.769531 37.402344 37.769531 37.386719 37.773438 37.371094 C 37.785156 37.34375 37.796875 37.316406 37.816406 37.292969 C 37.835938 37.269531 37.859375 37.25 37.886719 37.234375 C 37.894531 37.234375 37.898438 37.230469 37.90625 37.226562 C 37.910156 37.226562 37.914062 37.222656 37.917969 37.222656 L 37.929688 37.21875 L 37.933594 37.21875 L 37.9375 37.214844 L 37.949219 37.214844 C 37.953125 37.210938 37.957031 37.210938 37.960938 37.210938 C 37.964844 37.210938 37.96875 37.210938 37.972656 37.210938 C 38 37.207031 38.03125 37.207031 38.0625 37.210938 C 38.089844 37.214844 38.121094 37.222656 38.148438 37.230469 C 38.175781 37.242188 38.203125 37.253906 38.230469 37.265625 C 38.28125 37.296875 38.332031 37.328125 38.378906 37.363281 C 38.425781 37.398438 38.476562 37.433594 38.527344 37.460938 C 38.550781 37.476562 38.578125 37.488281 38.605469 37.496094 C 38.621094 37.503906 38.632812 37.507812 38.648438 37.511719 L 38.667969 37.515625 L 38.691406 37.519531 C 38.75 37.527344 38.808594 37.527344 38.867188 37.511719 C 38.894531 37.503906 38.921875 37.492188 38.949219 37.480469 L 38.957031 37.476562 C 38.960938 37.472656 38.964844 37.472656 38.96875 37.46875 L 38.976562 37.464844 L 38.984375 37.457031 C 38.996094 37.449219 39.007812 37.441406 39.019531 37.433594 C 39.042969 37.414062 39.0625 37.390625 39.074219 37.363281 C 39.082031 37.351562 39.085938 37.335938 39.085938 37.324219 C 39.089844 37.308594 39.089844 37.296875 39.085938 37.28125 C 39.082031 37.265625 39.074219 37.253906 39.066406 37.242188 C 39.058594 37.230469 39.046875 37.222656 39.035156 37.214844 C 39.007812 37.195312 38.980469 37.195312 38.957031 37.210938 C 38.929688 37.226562 38.914062 37.253906 38.910156 37.28125 C 38.90625 37.296875 38.90625 37.308594 38.910156 37.324219 C 38.910156 37.339844 38.914062 37.351562 38.921875 37.367188 C 38.925781 37.378906 38.933594 37.394531 38.941406 37.40625 C 38.945312 37.410156 38.949219 37.417969 38.953125 37.421875 L 38.960938 37.429688 L 38.964844 37.4375 C 38.964844 37.4375 38.964844 37.4375 38.96875 37.441406 C 38.972656 37.445312 38.976562 37.449219 38.980469 37.457031 L 38.996094 37.472656 C 39.003906 37.476562 39.007812 37.480469 39.015625 37.484375 C 39.019531 37.488281 39.019531 37.488281 39.023438 37.492188 L 39.03125 37.496094 C 39.058594 37.515625 39.082031 37.527344 39.109375 37.539062 C 39.136719 37.546875 39.167969 37.554688 39.195312 37.558594 C 39.226562 37.558594 39.253906 37.558594 39.285156 37.554688 C 39.296875 37.550781 39.3125 37.550781 39.328125 37.542969 C 39.339844 37.539062 39.351562 37.535156 39.363281 37.527344 C 39.378906 37.519531 39.386719 37.507812 39.394531 37.496094 C 39.402344 37.484375 39.40625 37.46875 39.40625 37.453125 C 39.40625 37.441406 39.402344 37.425781 39.394531 37.414062 C 39.390625 37.410156 39.386719 37.40625 39.378906 37.402344 C 39.375 37.398438 39.367188 37.398438 39.359375 37.394531 C 39.347656 37.394531 39.332031 37.394531 39.316406 37.398438 C 39.304688 37.40625 39.292969 37.414062 39.285156 37.425781 C 39.28125 37.429688 39.277344 37.4375 39.273438 37.441406 C 39.273438 37.445312 39.273438 37.449219 39.269531 37.453125 L 39.269531 37.464844 C 39.269531 37.480469 39.269531 37.492188 39.277344 37.507812 C 39.285156 37.535156 39.304688 37.554688 39.328125 37.570312 C 39.34375 37.578125 39.355469 37.585938 39.371094 37.589844 C 39.382812 37.59375 39.398438 37.59375 39.414062 37.597656 C 39.441406 37.597656 39.472656 37.597656 39.5 37.59375 C 39.53125 37.585938 39.558594 37.582031 39.585938 37.574219 C 39.644531 37.5625 39.699219 37.542969 39.757812 37.527344 C 39.785156 37.515625 39.8125 37.507812 39.84375 37.503906 C 39.851562 37.5 39.859375 37.5 39.863281 37.496094 C 39.871094 37.496094 39.878906 37.496094 39.886719 37.492188 C 39.902344 37.492188 39.914062 37.488281 39.929688 37.488281 C 39.988281 37.480469 40.050781 37.480469 40.109375 37.492188 C 40.136719 37.5 40.164062 37.507812 40.191406 37.523438 C 40.21875 37.539062 40.242188 37.554688 40.261719 37.578125 Z M 40.261719 37.578125 " fill-opacity="1" fill-rule="nonzero"/></g><path fill="#4c5699" d="M 47.035156 60.542969 C 47.359375 60.039062 47.554688 59.441406 47.554688 58.796875 C 47.554688 57.023438 46.109375 55.582031 44.335938 55.582031 L 41.707031 55.582031 C 41.082031 55.582031 40.574219 56.085938 40.574219 56.710938 L 40.574219 65.765625 C 40.574219 66.390625 41.082031 66.898438 41.707031 66.898438 C 41.710938 66.898438 44.128906 66.886719 44.796875 66.886719 C 46.765625 66.886719 48.367188 65.285156 48.367188 63.320312 C 48.367188 62.199219 47.84375 61.199219 47.035156 60.542969 Z M 42.839844 57.84375 L 44.335938 57.84375 C 44.863281 57.84375 45.289062 58.269531 45.289062 58.796875 C 45.289062 59.324219 44.863281 59.75 44.335938 59.75 L 42.839844 59.75 Z M 44.796875 64.625 C 44.4375 64.625 43.566406 64.628906 42.839844 64.628906 L 42.839844 62.015625 L 44.796875 62.015625 C 45.515625 62.015625 46.101562 62.601562 46.101562 63.320312 C 46.101562 64.039062 45.515625 64.625 44.796875 64.625 Z M 44.796875 64.625 " fill-opacity="1" fill-rule="nonzero"/><path fill="#4c5699" d="M 34.199219 31.289062 C 30.113281 20.464844 30.9375 22.617188 30.820312 22.332031 C 30.359375 21.210938 28.761719 21.238281 28.335938 22.359375 L 24.933594 31.289062 C 24.710938 31.871094 25.007812 32.523438 25.589844 32.746094 C 26.175781 32.96875 26.828125 32.675781 27.050781 32.09375 L 27.621094 30.597656 L 31.519531 30.597656 L 32.082031 32.089844 C 32.304688 32.675781 32.957031 32.96875 33.542969 32.75 C 34.125 32.527344 34.421875 31.875 34.199219 31.289062 Z M 28.480469 28.335938 L 29.578125 25.457031 L 30.664062 28.335938 Z M 28.480469 28.335938 " fill-opacity="1" fill-rule="nonzero"/><path fill="#ff8e9e" d="M 18.109375 0.777344 L 12.074219 0.777344 C 10.40625 0.777344 9.054688 2.128906 9.054688 3.796875 L 9.054688 13.578125 C 9.0625 10.929688 11.339844 8.847656 13.964844 9.070312 C 16.246094 9.261719 18.0625 11.199219 18.109375 13.484375 C 18.160156 16.03125 16.113281 18.109375 13.582031 18.109375 C 11.082031 18.109375 9.054688 16.078125 9.054688 13.578125 L 9.054688 27.902344 L 20.992188 27.902344 L 25.351562 20.347656 C 26.503906 18.355469 27.164062 16.042969 27.164062 13.578125 C 27.164062 7.675781 23.378906 2.648438 18.109375 0.777344 Z M 18.109375 0.777344 " fill-opacity="1" fill-rule="nonzero"/><path fill="#ea5b70" d="M 12.179688 22.625 L 10.867188 20.347656 C 9.714844 18.355469 9.054688 16.042969 9.054688 13.578125 C 9.054688 7.679688 12.839844 2.648438 18.109375 0.777344 C 16.691406 0.277344 15.167969 0 13.582031 0 C 6.09375 0 0 6.089844 0 13.578125 C 0 16.042969 0.660156 18.355469 1.8125 20.347656 L 9.660156 33.949219 C 10.441406 35.304688 11.90625 36.21875 13.582031 36.21875 C 15.257812 36.21875 16.71875 35.304688 17.503906 33.949219 L 20.992188 27.902344 C 17.347656 27.785156 14.007812 25.796875 12.179688 22.625 Z M 12.179688 22.625 " fill-opacity="1" fill-rule="nonzero"/><path fill="#ff8e9e" d="M 65.945312 35.035156 L 59.910156 35.035156 C 58.242188 35.035156 56.890625 36.386719 56.890625 38.050781 L 56.890625 47.835938 C 56.898438 45.1875 59.175781 43.105469 61.800781 43.324219 C 64.082031 43.519531 65.898438 45.453125 65.945312 47.742188 C 65.996094 50.285156 63.949219 52.363281 61.417969 52.363281 C 58.917969 52.363281 56.894531 50.335938 56.890625 47.835938 L 56.890625 62.15625 L 68.828125 62.15625 L 73.1875 54.605469 C 74.339844 52.609375 75 50.296875 75 47.835938 C 75 41.933594 71.214844 36.902344 65.945312 35.035156 Z M 65.945312 35.035156 " fill-opacity="1" fill-rule="nonzero"/><path fill="#ea5b70" d="M 60.015625 56.878906 L 58.703125 54.605469 C 57.550781 52.609375 56.890625 50.296875 56.890625 47.835938 C 56.890625 41.933594 60.675781 36.902344 65.945312 35.035156 C 64.527344 34.53125 63.003906 34.253906 61.417969 34.253906 C 53.929688 34.253906 47.835938 40.347656 47.835938 47.835938 C 47.835938 50.296875 48.496094 52.609375 49.648438 54.605469 L 57.496094 68.207031 C 58.28125 69.558594 59.742188 70.472656 61.417969 70.472656 C 63.09375 70.472656 64.558594 69.558594 65.339844 68.207031 L 68.828125 62.15625 C 65.183594 62.039062 61.847656 60.050781 60.015625 56.878906 Z M 60.015625 56.878906 " fill-opacity="1" fill-rule="nonzero"/><path fill="#ffce71" d="M 61.417969 70.472656 L 34.960938 70.472656 L 31.1875 72.738281 L 34.960938 75 L 61.417969 75 C 62.667969 75 63.683594 73.988281 63.683594 72.738281 C 63.683594 71.484375 62.667969 70.472656 61.417969 70.472656 Z M 61.417969 70.472656 " fill-opacity="1" fill-rule="nonzero"/><path fill="#ffce71" d="M 29.796875 36.21875 L 26.777344 36.21875 L 23.003906 38.480469 L 26.777344 40.746094 L 29.796875 40.746094 C 33.269531 40.746094 36.097656 43.570312 36.097656 47.042969 C 36.097656 50.519531 33.269531 53.34375 29.796875 53.34375 L 26.777344 53.34375 L 23.003906 55.609375 L 26.777344 57.871094 L 29.796875 57.871094 C 35.765625 57.871094 40.625 53.015625 40.625 47.042969 C 40.625 41.074219 35.765625 36.21875 29.796875 36.21875 Z M 29.796875 36.21875 " fill-opacity="1" fill-rule="nonzero"/><path fill="#ffb357" d="M 13.582031 40.746094 L 26.777344 40.746094 C 25.527344 39.496094 25.527344 37.46875 26.777344 36.21875 L 13.582031 36.21875 C 12.332031 36.21875 11.316406 37.230469 11.316406 38.480469 C 11.316406 39.730469 12.332031 40.746094 13.582031 40.746094 Z M 13.582031 40.746094 " fill-opacity="1" fill-rule="nonzero"/><path fill="#ffb357" d="M 32.695312 72.738281 L 34.960938 70.472656 Z M 32.695312 72.738281 " fill-opacity="1" fill-rule="nonzero"/><path fill="#ffb357" d="M 34.960938 70.472656 L 10.828125 70.472656 C 7.351562 70.472656 4.527344 67.648438 4.527344 64.171875 C 4.527344 60.699219 7.351562 57.871094 10.828125 57.871094 L 26.777344 57.871094 C 26.175781 57.273438 25.839844 56.457031 25.839844 55.609375 C 25.839844 54.757812 26.175781 53.945312 26.777344 53.34375 L 10.828125 53.34375 C 4.855469 53.34375 0 58.203125 0 64.171875 C 0 70.144531 4.855469 75 10.828125 75 L 34.960938 75 C 33.710938 73.75 33.710938 71.722656 34.960938 70.472656 Z M 34.960938 70.472656 " fill-opacity="1" fill-rule="nonzero"/></svg>