<svg xmlns="http://www.w3.org/2000/svg" xmlns:xlink="http://www.w3.org/1999/xlink" width="100" zoomAndPan="magnify" viewBox="0 0 75 74.999997" height="100" preserveAspectRatio="xMidYMid meet" version="1.0"><defs><filter x="0%" y="0%" width="100%" height="100%" id="8928bf310c"><feColorMatrix values="0 0 0 0 1 0 0 0 0 1 0 0 0 0 1 0 0 0 1 0" color-interpolation-filters="sRGB"/></filter><clipPath id="59a954ce4b"><path d="M 34.6875 37.160156 L 38 37.160156 L 38 37.910156 L 34.6875 37.910156 Z M 34.6875 37.160156 " clip-rule="nonzero"/></clipPath><clipPath id="8da5009ad3"><path d="M 37 37.160156 L 40.6875 37.160156 L 40.6875 37.910156 L 37 37.910156 Z M 37 37.160156 " clip-rule="nonzero"/></clipPath><mask id="d8c2196b27"><g filter="url(#8928bf310c)"><rect x="-7.5" width="90" fill="#000000" y="-7.5" height="89.999996" fill-opacity="0.56"/></g></mask><clipPath id="69c3255ccd"><path d="M 7 15 L 69 15 L 69 54 L 7 54 Z M 7 15 " clip-rule="nonzero"/></clipPath><clipPath id="6da02f03bc"><path d="M 25.90625 0.00390625 L 74.886719 39.625 L 48.945312 71.695312 L -0.0351562 32.074219 Z M 25.90625 0.00390625 " clip-rule="nonzero"/></clipPath><clipPath id="fc61c13077"><path d="M 25.90625 0.00390625 L 74.886719 39.625 L 48.945312 71.695312 L -0.0351562 32.074219 Z M 25.90625 0.00390625 " clip-rule="nonzero"/></clipPath><clipPath id="0af66735a9"><path d="M 11 23 L 63 23 L 63 47 L 11 47 Z M 11 23 " clip-rule="nonzero"/></clipPath><clipPath id="bc34e06cd5"><path d="M 25.90625 0.00390625 L 74.886719 39.625 L 48.945312 71.695312 L -0.0351562 32.074219 Z M 25.90625 0.00390625 " clip-rule="nonzero"/></clipPath><clipPath id="faedd1f351"><path d="M 25.90625 0.00390625 L 74.886719 39.625 L 48.945312 71.695312 L -0.0351562 32.074219 Z M 25.90625 0.00390625 " clip-rule="nonzero"/></clipPath><clipPath id="94afd7c896"><rect x="0" width="75" y="0" height="72"/></clipPath></defs><g clip-path="url(#59a954ce4b)"><path fill="#a2383a" d="M 34.738281 37.578125 C 34.746094 37.566406 34.757812 37.554688 34.769531 37.546875 C 34.78125 37.535156 34.792969 37.527344 34.808594 37.519531 C 34.832031 37.507812 34.863281 37.496094 34.890625 37.488281 C 34.921875 37.480469 34.949219 37.476562 34.980469 37.476562 C 35.011719 37.472656 35.039062 37.472656 35.070312 37.476562 C 35.085938 37.476562 35.101562 37.480469 35.117188 37.484375 C 35.121094 37.484375 35.128906 37.484375 35.136719 37.488281 C 35.144531 37.488281 35.152344 37.488281 35.160156 37.492188 C 35.1875 37.496094 35.21875 37.503906 35.246094 37.511719 C 35.304688 37.527344 35.359375 37.546875 35.417969 37.558594 C 35.445312 37.566406 35.472656 37.570312 35.503906 37.574219 C 35.53125 37.578125 35.558594 37.578125 35.585938 37.578125 C 35.597656 37.574219 35.613281 37.574219 35.625 37.570312 C 35.636719 37.566406 35.648438 37.558594 35.660156 37.554688 C 35.679688 37.539062 35.695312 37.523438 35.703125 37.5 C 35.707031 37.488281 35.707031 37.476562 35.707031 37.464844 L 35.707031 37.457031 C 35.707031 37.457031 35.703125 37.453125 35.703125 37.449219 L 35.703125 37.445312 L 35.699219 37.445312 C 35.699219 37.441406 35.699219 37.441406 35.695312 37.441406 C 35.691406 37.433594 35.683594 37.425781 35.671875 37.421875 C 35.667969 37.421875 35.664062 37.421875 35.660156 37.417969 C 35.652344 37.417969 35.648438 37.417969 35.644531 37.421875 C 35.640625 37.421875 35.636719 37.421875 35.632812 37.425781 C 35.628906 37.425781 35.625 37.429688 35.625 37.429688 C 35.621094 37.4375 35.617188 37.445312 35.617188 37.453125 C 35.621094 37.464844 35.621094 37.472656 35.628906 37.480469 C 35.628906 37.484375 35.628906 37.484375 35.628906 37.484375 L 35.632812 37.488281 L 35.632812 37.492188 C 35.636719 37.492188 35.636719 37.492188 35.636719 37.492188 C 35.640625 37.496094 35.644531 37.5 35.648438 37.503906 C 35.660156 37.511719 35.671875 37.515625 35.683594 37.519531 C 35.6875 37.519531 35.695312 37.523438 35.703125 37.523438 C 35.707031 37.523438 35.714844 37.527344 35.722656 37.527344 C 35.746094 37.53125 35.773438 37.53125 35.800781 37.527344 C 35.828125 37.523438 35.855469 37.519531 35.878906 37.507812 C 35.902344 37.5 35.929688 37.488281 35.949219 37.472656 L 35.957031 37.46875 C 35.960938 37.464844 35.964844 37.464844 35.964844 37.460938 C 35.972656 37.457031 35.976562 37.453125 35.980469 37.449219 L 35.996094 37.433594 C 36 37.429688 36.003906 37.425781 36.007812 37.417969 C 36.011719 37.417969 36.011719 37.417969 36.011719 37.414062 L 36.023438 37.402344 C 36.027344 37.398438 36.03125 37.394531 36.03125 37.386719 C 36.039062 37.378906 36.046875 37.367188 36.050781 37.355469 C 36.054688 37.34375 36.058594 37.332031 36.058594 37.320312 L 36.058594 37.316406 C 36.058594 37.316406 36.0625 37.3125 36.0625 37.3125 C 36.0625 37.308594 36.0625 37.304688 36.0625 37.304688 C 36.0625 37.300781 36.0625 37.300781 36.0625 37.300781 C 36.0625 37.296875 36.0625 37.296875 36.058594 37.296875 L 36.058594 37.292969 C 36.058594 37.289062 36.058594 37.289062 36.058594 37.289062 C 36.058594 37.277344 36.054688 37.269531 36.046875 37.261719 C 36.046875 37.257812 36.046875 37.257812 36.046875 37.257812 L 36.035156 37.246094 L 36.03125 37.246094 L 36.03125 37.242188 L 36.027344 37.242188 C 36.011719 37.230469 35.996094 37.230469 35.980469 37.242188 C 35.972656 37.246094 35.964844 37.253906 35.960938 37.261719 C 35.953125 37.269531 35.949219 37.28125 35.949219 37.289062 C 35.945312 37.292969 35.945312 37.300781 35.945312 37.304688 L 35.945312 37.3125 C 35.945312 37.3125 35.945312 37.3125 35.945312 37.316406 C 35.945312 37.316406 35.945312 37.316406 35.945312 37.320312 C 35.949219 37.328125 35.953125 37.339844 35.957031 37.351562 C 35.964844 37.371094 35.980469 37.390625 36 37.40625 C 36.011719 37.414062 36.023438 37.421875 36.03125 37.429688 L 36.035156 37.433594 L 36.042969 37.433594 L 36.050781 37.441406 C 36.050781 37.441406 36.054688 37.445312 36.058594 37.445312 L 36.066406 37.449219 C 36.09375 37.460938 36.117188 37.472656 36.144531 37.476562 C 36.195312 37.492188 36.25 37.496094 36.304688 37.488281 L 36.324219 37.484375 L 36.34375 37.476562 C 36.355469 37.476562 36.367188 37.472656 36.382812 37.464844 C 36.40625 37.457031 36.433594 37.445312 36.457031 37.429688 C 36.480469 37.417969 36.503906 37.402344 36.53125 37.386719 C 36.554688 37.371094 36.578125 37.355469 36.601562 37.335938 C 36.648438 37.300781 36.699219 37.265625 36.753906 37.238281 C 36.78125 37.222656 36.8125 37.210938 36.839844 37.199219 C 36.84375 37.199219 36.847656 37.195312 36.851562 37.195312 L 36.875 37.1875 C 36.878906 37.1875 36.882812 37.1875 36.886719 37.1875 C 36.894531 37.183594 36.902344 37.183594 36.910156 37.179688 C 36.914062 37.179688 36.917969 37.179688 36.921875 37.179688 L 36.933594 37.175781 C 36.96875 37.171875 37 37.171875 37.03125 37.179688 C 37.035156 37.179688 37.039062 37.179688 37.042969 37.179688 C 37.046875 37.179688 37.054688 37.179688 37.058594 37.183594 L 37.070312 37.183594 L 37.074219 37.1875 L 37.082031 37.1875 L 37.09375 37.191406 C 37.097656 37.195312 37.101562 37.195312 37.105469 37.199219 C 37.113281 37.199219 37.121094 37.203125 37.128906 37.207031 C 37.144531 37.214844 37.15625 37.226562 37.171875 37.238281 C 37.183594 37.246094 37.195312 37.257812 37.207031 37.273438 C 37.230469 37.300781 37.246094 37.332031 37.253906 37.363281 C 37.257812 37.378906 37.261719 37.398438 37.261719 37.414062 C 37.261719 37.453125 37.253906 37.488281 37.234375 37.519531 C 37.222656 37.535156 37.214844 37.546875 37.199219 37.558594 C 37.1875 37.570312 37.175781 37.582031 37.160156 37.589844 C 37.144531 37.597656 37.128906 37.605469 37.113281 37.613281 C 37.082031 37.621094 37.050781 37.628906 37.019531 37.632812 C 37.003906 37.632812 36.988281 37.632812 36.972656 37.632812 C 36.96875 37.632812 36.964844 37.632812 36.960938 37.632812 L 36.953125 37.632812 L 36.945312 37.628906 C 36.9375 37.628906 36.929688 37.628906 36.921875 37.625 C 36.90625 37.621094 36.890625 37.617188 36.875 37.609375 C 36.859375 37.605469 36.84375 37.59375 36.832031 37.585938 C 36.816406 37.574219 36.804688 37.558594 36.792969 37.542969 C 36.777344 37.519531 36.773438 37.488281 36.78125 37.460938 C 36.785156 37.449219 36.789062 37.441406 36.792969 37.433594 C 36.804688 37.417969 36.816406 37.402344 36.828125 37.390625 C 36.84375 37.382812 36.855469 37.375 36.871094 37.367188 C 36.886719 37.359375 36.902344 37.355469 36.917969 37.347656 C 36.921875 37.347656 36.925781 37.347656 36.929688 37.347656 L 36.941406 37.34375 C 36.949219 37.34375 36.957031 37.339844 36.964844 37.339844 L 36.984375 37.335938 L 36.996094 37.335938 L 37.007812 37.332031 L 37.03125 37.332031 C 37.039062 37.332031 37.046875 37.332031 37.054688 37.332031 L 37.066406 37.328125 C 37.070312 37.328125 37.074219 37.328125 37.078125 37.328125 L 37.101562 37.332031 C 37.132812 37.332031 37.160156 37.335938 37.191406 37.34375 L 37.207031 37.34375 L 37.214844 37.347656 L 37.238281 37.351562 C 37.242188 37.355469 37.25 37.355469 37.257812 37.359375 L 37.269531 37.363281 C 37.273438 37.363281 37.277344 37.363281 37.28125 37.367188 L 37.300781 37.375 C 37.304688 37.375 37.308594 37.378906 37.3125 37.378906 L 37.320312 37.382812 C 37.328125 37.386719 37.335938 37.390625 37.34375 37.394531 L 37.363281 37.402344 L 37.375 37.410156 L 37.382812 37.414062 L 37.421875 37.4375 L 37.429688 37.445312 C 37.433594 37.449219 37.4375 37.449219 37.441406 37.453125 C 37.464844 37.46875 37.488281 37.492188 37.507812 37.511719 C 37.527344 37.535156 37.546875 37.5625 37.558594 37.589844 C 37.566406 37.601562 37.570312 37.617188 37.574219 37.632812 C 37.578125 37.648438 37.582031 37.664062 37.582031 37.679688 C 37.582031 37.691406 37.578125 37.707031 37.578125 37.722656 C 37.574219 37.738281 37.566406 37.753906 37.558594 37.765625 C 37.554688 37.78125 37.542969 37.792969 37.535156 37.804688 C 37.523438 37.8125 37.511719 37.820312 37.496094 37.828125 L 37.496094 37.824219 C 37.523438 37.8125 37.542969 37.789062 37.554688 37.761719 C 37.5625 37.75 37.566406 37.734375 37.566406 37.722656 C 37.570312 37.707031 37.574219 37.691406 37.570312 37.679688 C 37.570312 37.664062 37.570312 37.648438 37.566406 37.636719 C 37.558594 37.621094 37.554688 37.609375 37.546875 37.59375 C 37.535156 37.566406 37.515625 37.542969 37.496094 37.523438 C 37.476562 37.503906 37.453125 37.484375 37.429688 37.464844 C 37.425781 37.464844 37.425781 37.460938 37.421875 37.460938 L 37.410156 37.453125 L 37.394531 37.441406 L 37.375 37.429688 L 37.363281 37.425781 L 37.355469 37.421875 L 37.335938 37.410156 C 37.328125 37.40625 37.320312 37.40625 37.316406 37.402344 L 37.304688 37.398438 C 37.300781 37.394531 37.296875 37.394531 37.292969 37.394531 L 37.273438 37.386719 C 37.269531 37.386719 37.265625 37.382812 37.261719 37.382812 L 37.253906 37.378906 C 37.246094 37.378906 37.238281 37.375 37.230469 37.375 L 37.210938 37.367188 L 37.199219 37.367188 L 37.1875 37.363281 L 37.171875 37.363281 C 37.167969 37.363281 37.167969 37.359375 37.167969 37.359375 L 37.144531 37.359375 C 37.136719 37.355469 37.128906 37.355469 37.121094 37.355469 L 37.113281 37.355469 C 37.109375 37.355469 37.105469 37.355469 37.101562 37.355469 L 37.078125 37.355469 C 37.074219 37.355469 37.070312 37.355469 37.066406 37.355469 L 37.054688 37.355469 C 37.050781 37.355469 37.042969 37.355469 37.035156 37.355469 L 37.011719 37.359375 L 37 37.359375 L 36.992188 37.363281 L 36.96875 37.367188 C 36.960938 37.367188 36.953125 37.367188 36.945312 37.371094 C 36.941406 37.371094 36.933594 37.375 36.925781 37.375 C 36.898438 37.382812 36.871094 37.398438 36.847656 37.414062 C 36.835938 37.425781 36.828125 37.433594 36.820312 37.449219 C 36.8125 37.460938 36.808594 37.472656 36.808594 37.488281 C 36.808594 37.503906 36.8125 37.515625 36.820312 37.527344 C 36.828125 37.539062 36.839844 37.550781 36.851562 37.558594 C 36.863281 37.570312 36.875 37.574219 36.886719 37.582031 C 36.902344 37.585938 36.914062 37.589844 36.929688 37.59375 C 36.9375 37.59375 36.945312 37.597656 36.949219 37.597656 C 36.953125 37.597656 36.957031 37.597656 36.960938 37.597656 C 36.964844 37.597656 36.96875 37.597656 36.972656 37.597656 C 36.988281 37.597656 37.003906 37.597656 37.015625 37.597656 C 37.046875 37.59375 37.074219 37.589844 37.101562 37.578125 C 37.117188 37.574219 37.128906 37.566406 37.140625 37.558594 C 37.152344 37.550781 37.164062 37.542969 37.175781 37.53125 C 37.1875 37.523438 37.195312 37.511719 37.203125 37.5 C 37.21875 37.472656 37.226562 37.445312 37.222656 37.417969 C 37.222656 37.402344 37.222656 37.386719 37.21875 37.375 C 37.210938 37.34375 37.195312 37.320312 37.175781 37.296875 C 37.160156 37.273438 37.136719 37.257812 37.109375 37.242188 C 37.101562 37.238281 37.097656 37.238281 37.089844 37.234375 C 37.085938 37.234375 37.082031 37.230469 37.078125 37.230469 L 37.070312 37.226562 L 37.0625 37.226562 L 37.058594 37.222656 L 37.046875 37.222656 C 37.042969 37.21875 37.042969 37.21875 37.039062 37.21875 C 37.035156 37.21875 37.03125 37.21875 37.027344 37.21875 C 36.996094 37.214844 36.96875 37.214844 36.941406 37.21875 C 36.910156 37.222656 36.882812 37.226562 36.855469 37.238281 C 36.828125 37.25 36.800781 37.261719 36.773438 37.273438 C 36.722656 37.300781 36.675781 37.335938 36.625 37.371094 C 36.578125 37.40625 36.53125 37.441406 36.476562 37.46875 C 36.453125 37.484375 36.425781 37.496094 36.394531 37.507812 C 36.382812 37.511719 36.367188 37.515625 36.355469 37.519531 L 36.308594 37.527344 C 36.25 37.539062 36.191406 37.535156 36.132812 37.519531 C 36.101562 37.511719 36.074219 37.5 36.046875 37.488281 L 36.039062 37.480469 C 36.035156 37.480469 36.03125 37.480469 36.027344 37.476562 L 36.019531 37.472656 L 36.015625 37.46875 L 36.007812 37.464844 C 35.996094 37.457031 35.984375 37.449219 35.972656 37.4375 C 35.949219 37.417969 35.929688 37.394531 35.917969 37.367188 C 35.910156 37.355469 35.90625 37.339844 35.90625 37.324219 C 35.902344 37.308594 35.902344 37.292969 35.90625 37.277344 C 35.910156 37.265625 35.917969 37.25 35.925781 37.238281 C 35.9375 37.226562 35.945312 37.214844 35.960938 37.207031 C 35.988281 37.1875 36.019531 37.1875 36.046875 37.207031 C 36.050781 37.207031 36.050781 37.207031 36.054688 37.210938 C 36.054688 37.210938 36.058594 37.210938 36.058594 37.214844 L 36.0625 37.214844 L 36.066406 37.21875 C 36.070312 37.222656 36.070312 37.226562 36.074219 37.230469 C 36.074219 37.230469 36.078125 37.230469 36.078125 37.234375 C 36.078125 37.234375 36.078125 37.238281 36.082031 37.238281 C 36.089844 37.25 36.09375 37.265625 36.097656 37.28125 C 36.101562 37.296875 36.101562 37.3125 36.097656 37.324219 C 36.097656 37.339844 36.09375 37.355469 36.085938 37.371094 C 36.082031 37.382812 36.074219 37.398438 36.066406 37.410156 C 36.0625 37.414062 36.058594 37.421875 36.050781 37.425781 L 36.046875 37.4375 L 36.042969 37.441406 C 36.042969 37.441406 36.039062 37.445312 36.039062 37.445312 C 36.035156 37.449219 36.027344 37.457031 36.023438 37.460938 L 36.007812 37.476562 C 36 37.480469 35.996094 37.484375 35.988281 37.492188 C 35.988281 37.492188 35.984375 37.496094 35.980469 37.496094 L 35.972656 37.503906 C 35.945312 37.519531 35.921875 37.535156 35.890625 37.542969 C 35.863281 37.554688 35.835938 37.5625 35.804688 37.5625 C 35.773438 37.566406 35.746094 37.566406 35.714844 37.5625 C 35.699219 37.558594 35.6875 37.554688 35.671875 37.550781 C 35.65625 37.546875 35.644531 37.539062 35.632812 37.53125 C 35.625 37.527344 35.617188 37.523438 35.613281 37.515625 C 35.597656 37.5 35.585938 37.480469 35.585938 37.457031 C 35.585938 37.4375 35.589844 37.425781 35.597656 37.410156 C 35.605469 37.40625 35.609375 37.398438 35.617188 37.394531 C 35.625 37.390625 35.632812 37.390625 35.640625 37.390625 C 35.65625 37.386719 35.667969 37.386719 35.683594 37.394531 C 35.699219 37.398438 35.710938 37.410156 35.722656 37.421875 C 35.726562 37.425781 35.730469 37.433594 35.730469 37.441406 C 35.734375 37.445312 35.734375 37.449219 35.734375 37.453125 L 35.738281 37.457031 C 35.738281 37.460938 35.738281 37.460938 35.738281 37.464844 C 35.738281 37.480469 35.734375 37.492188 35.730469 37.507812 C 35.71875 37.539062 35.699219 37.5625 35.671875 37.578125 C 35.660156 37.585938 35.648438 37.589844 35.632812 37.59375 C 35.617188 37.597656 35.601562 37.601562 35.585938 37.601562 C 35.558594 37.605469 35.527344 37.601562 35.5 37.597656 C 35.46875 37.59375 35.441406 37.589844 35.410156 37.582031 C 35.355469 37.566406 35.296875 37.546875 35.242188 37.53125 C 35.210938 37.523438 35.183594 37.515625 35.15625 37.507812 C 35.148438 37.507812 35.140625 37.503906 35.132812 37.503906 C 35.125 37.5 35.121094 37.5 35.113281 37.5 C 35.097656 37.496094 35.082031 37.492188 35.070312 37.492188 C 35.011719 37.484375 34.949219 37.484375 34.894531 37.496094 C 34.863281 37.503906 34.835938 37.515625 34.808594 37.527344 C 34.785156 37.542969 34.761719 37.558594 34.738281 37.578125 Z M 34.738281 37.578125 " fill-opacity="1" fill-rule="nonzero"/></g><g clip-path="url(#8da5009ad3)"><path fill="#a2383a" d="M 40.261719 37.578125 C 40.238281 37.558594 40.214844 37.542969 40.1875 37.53125 C 40.160156 37.515625 40.132812 37.507812 40.105469 37.503906 C 40.046875 37.492188 39.988281 37.492188 39.933594 37.5 C 39.917969 37.503906 39.902344 37.503906 39.890625 37.507812 C 39.886719 37.511719 39.882812 37.511719 39.878906 37.511719 L 39.867188 37.515625 C 39.859375 37.515625 39.855469 37.515625 39.847656 37.519531 C 39.820312 37.527344 39.789062 37.535156 39.761719 37.542969 C 39.707031 37.5625 39.652344 37.582031 39.59375 37.597656 C 39.5625 37.605469 39.535156 37.613281 39.503906 37.617188 C 39.472656 37.621094 39.441406 37.625 39.410156 37.621094 C 39.378906 37.621094 39.34375 37.613281 39.316406 37.59375 C 39.300781 37.585938 39.285156 37.574219 39.273438 37.5625 C 39.265625 37.546875 39.253906 37.53125 39.25 37.515625 C 39.242188 37.5 39.238281 37.480469 39.238281 37.460938 C 39.238281 37.460938 39.238281 37.457031 39.238281 37.453125 L 39.242188 37.449219 C 39.242188 37.445312 39.242188 37.441406 39.242188 37.441406 L 39.246094 37.433594 L 39.246094 37.429688 C 39.246094 37.429688 39.246094 37.425781 39.246094 37.425781 L 39.25 37.421875 L 39.25 37.417969 C 39.253906 37.414062 39.257812 37.410156 39.257812 37.40625 C 39.273438 37.390625 39.289062 37.378906 39.308594 37.371094 C 39.324219 37.363281 39.34375 37.363281 39.363281 37.363281 C 39.375 37.367188 39.386719 37.367188 39.394531 37.375 C 39.40625 37.378906 39.414062 37.386719 39.421875 37.394531 C 39.433594 37.414062 39.441406 37.433594 39.441406 37.457031 C 39.4375 37.464844 39.4375 37.476562 39.433594 37.484375 C 39.433594 37.496094 39.429688 37.503906 39.421875 37.511719 C 39.421875 37.515625 39.421875 37.515625 39.417969 37.519531 L 39.414062 37.523438 L 39.410156 37.53125 C 39.410156 37.53125 39.40625 37.535156 39.40625 37.535156 C 39.398438 37.542969 39.390625 37.546875 39.382812 37.554688 C 39.371094 37.5625 39.355469 37.570312 39.335938 37.578125 C 39.328125 37.582031 39.320312 37.582031 39.3125 37.585938 C 39.304688 37.585938 39.296875 37.585938 39.289062 37.589844 C 39.257812 37.59375 39.226562 37.597656 39.191406 37.59375 C 39.160156 37.589844 39.128906 37.582031 39.097656 37.574219 C 39.066406 37.5625 39.039062 37.546875 39.011719 37.527344 L 39 37.523438 C 39 37.519531 38.996094 37.519531 38.992188 37.515625 C 38.984375 37.511719 38.980469 37.503906 38.972656 37.5 L 38.953125 37.484375 C 38.949219 37.476562 38.945312 37.472656 38.9375 37.464844 C 38.9375 37.464844 38.933594 37.460938 38.933594 37.460938 L 38.929688 37.457031 L 38.921875 37.445312 C 38.917969 37.441406 38.914062 37.433594 38.910156 37.425781 C 38.898438 37.410156 38.890625 37.398438 38.882812 37.382812 C 38.878906 37.363281 38.871094 37.347656 38.871094 37.332031 C 38.867188 37.3125 38.867188 37.292969 38.871094 37.273438 C 38.875 37.253906 38.882812 37.238281 38.890625 37.222656 C 38.894531 37.21875 38.894531 37.21875 38.894531 37.214844 C 38.898438 37.210938 38.898438 37.210938 38.902344 37.207031 L 38.90625 37.203125 C 38.90625 37.203125 38.90625 37.203125 38.90625 37.199219 L 38.910156 37.199219 C 38.914062 37.195312 38.914062 37.195312 38.917969 37.191406 L 38.921875 37.1875 C 38.921875 37.1875 38.921875 37.1875 38.925781 37.183594 L 38.929688 37.183594 C 38.929688 37.179688 38.933594 37.179688 38.933594 37.179688 C 38.953125 37.167969 38.972656 37.160156 38.996094 37.160156 C 39.007812 37.160156 39.019531 37.164062 39.027344 37.164062 C 39.039062 37.167969 39.046875 37.171875 39.058594 37.179688 C 39.074219 37.1875 39.089844 37.203125 39.101562 37.21875 C 39.109375 37.234375 39.121094 37.25 39.125 37.269531 C 39.125 37.28125 39.128906 37.289062 39.128906 37.300781 L 39.128906 37.308594 C 39.128906 37.308594 39.128906 37.3125 39.128906 37.316406 C 39.128906 37.316406 39.128906 37.320312 39.128906 37.320312 C 39.128906 37.324219 39.128906 37.328125 39.128906 37.328125 C 39.125 37.347656 39.121094 37.367188 39.113281 37.382812 C 39.105469 37.398438 39.09375 37.414062 39.082031 37.425781 C 39.074219 37.441406 39.0625 37.453125 39.046875 37.464844 C 39.035156 37.476562 39.023438 37.484375 39.007812 37.492188 L 39 37.5 L 38.988281 37.507812 C 38.984375 37.507812 38.980469 37.511719 38.976562 37.511719 L 38.964844 37.519531 C 38.9375 37.53125 38.90625 37.542969 38.875 37.550781 C 38.8125 37.570312 38.75 37.574219 38.683594 37.5625 L 38.660156 37.558594 L 38.636719 37.550781 C 38.621094 37.546875 38.605469 37.542969 38.589844 37.539062 C 38.5625 37.527344 38.535156 37.511719 38.507812 37.5 C 38.480469 37.484375 38.453125 37.46875 38.429688 37.449219 C 38.402344 37.433594 38.378906 37.414062 38.355469 37.398438 C 38.304688 37.363281 38.257812 37.332031 38.210938 37.304688 C 38.1875 37.289062 38.160156 37.277344 38.132812 37.269531 C 38.109375 37.261719 38.082031 37.253906 38.054688 37.25 C 38.03125 37.246094 38.003906 37.246094 37.976562 37.25 C 37.972656 37.25 37.972656 37.25 37.96875 37.25 L 37.957031 37.253906 L 37.945312 37.253906 L 37.941406 37.257812 L 37.929688 37.257812 C 37.925781 37.261719 37.925781 37.261719 37.921875 37.261719 C 37.914062 37.265625 37.910156 37.269531 37.902344 37.269531 C 37.859375 37.292969 37.824219 37.335938 37.8125 37.382812 C 37.808594 37.394531 37.804688 37.40625 37.804688 37.417969 C 37.804688 37.429688 37.804688 37.441406 37.808594 37.453125 C 37.8125 37.464844 37.816406 37.472656 37.824219 37.484375 C 37.828125 37.496094 37.835938 37.503906 37.84375 37.511719 C 37.863281 37.53125 37.882812 37.542969 37.90625 37.554688 C 37.933594 37.5625 37.960938 37.570312 37.984375 37.570312 C 38 37.574219 38.011719 37.574219 38.027344 37.574219 C 38.03125 37.574219 38.03125 37.574219 38.035156 37.570312 L 38.046875 37.570312 C 38.050781 37.570312 38.058594 37.570312 38.066406 37.570312 C 38.078125 37.566406 38.089844 37.5625 38.101562 37.558594 C 38.113281 37.554688 38.125 37.546875 38.136719 37.539062 C 38.144531 37.535156 38.152344 37.527344 38.160156 37.515625 C 38.164062 37.507812 38.167969 37.5 38.167969 37.488281 C 38.167969 37.476562 38.164062 37.46875 38.160156 37.457031 C 38.152344 37.449219 38.148438 37.441406 38.136719 37.433594 C 38.117188 37.417969 38.09375 37.40625 38.066406 37.394531 C 38.066406 37.394531 38.0625 37.394531 38.058594 37.394531 L 38.046875 37.390625 C 38.042969 37.390625 38.035156 37.386719 38.027344 37.386719 L 38.007812 37.382812 L 37.996094 37.378906 L 37.984375 37.378906 L 37.964844 37.375 C 37.957031 37.375 37.949219 37.375 37.941406 37.375 L 37.933594 37.375 C 37.929688 37.375 37.925781 37.375 37.921875 37.375 L 37.898438 37.375 C 37.898438 37.375 37.894531 37.375 37.890625 37.375 L 37.878906 37.375 C 37.871094 37.375 37.863281 37.375 37.859375 37.375 L 37.835938 37.378906 C 37.835938 37.378906 37.832031 37.378906 37.832031 37.378906 L 37.824219 37.378906 L 37.816406 37.382812 L 37.792969 37.382812 L 37.773438 37.390625 C 37.765625 37.390625 37.757812 37.394531 37.75 37.394531 L 37.742188 37.398438 C 37.738281 37.398438 37.734375 37.398438 37.730469 37.402344 L 37.710938 37.40625 C 37.707031 37.410156 37.703125 37.410156 37.699219 37.410156 L 37.691406 37.414062 C 37.683594 37.417969 37.675781 37.421875 37.671875 37.421875 L 37.652344 37.433594 L 37.640625 37.4375 L 37.632812 37.441406 L 37.59375 37.464844 L 37.585938 37.46875 C 37.582031 37.472656 37.578125 37.472656 37.578125 37.476562 C 37.554688 37.492188 37.53125 37.507812 37.511719 37.53125 C 37.488281 37.550781 37.472656 37.574219 37.457031 37.597656 C 37.453125 37.609375 37.445312 37.625 37.441406 37.636719 C 37.4375 37.648438 37.433594 37.664062 37.433594 37.679688 C 37.433594 37.691406 37.433594 37.707031 37.4375 37.722656 C 37.4375 37.734375 37.441406 37.75 37.449219 37.761719 C 37.460938 37.789062 37.480469 37.808594 37.503906 37.824219 L 37.503906 37.828125 C 37.476562 37.8125 37.457031 37.792969 37.441406 37.765625 C 37.433594 37.75 37.429688 37.738281 37.425781 37.722656 C 37.425781 37.707031 37.421875 37.691406 37.421875 37.679688 C 37.425781 37.664062 37.425781 37.648438 37.429688 37.632812 C 37.433594 37.621094 37.441406 37.605469 37.449219 37.59375 C 37.460938 37.566406 37.480469 37.542969 37.5 37.519531 C 37.519531 37.5 37.542969 37.480469 37.566406 37.460938 C 37.570312 37.460938 37.574219 37.457031 37.574219 37.453125 L 37.585938 37.449219 L 37.625 37.425781 L 37.632812 37.421875 L 37.644531 37.414062 L 37.664062 37.40625 C 37.667969 37.402344 37.675781 37.398438 37.683594 37.394531 L 37.695312 37.390625 C 37.695312 37.390625 37.699219 37.390625 37.703125 37.386719 L 37.726562 37.378906 C 37.726562 37.378906 37.730469 37.378906 37.734375 37.378906 L 37.746094 37.375 C 37.753906 37.371094 37.761719 37.371094 37.765625 37.367188 L 37.789062 37.363281 L 37.792969 37.359375 L 37.8125 37.359375 C 37.839844 37.351562 37.871094 37.351562 37.898438 37.347656 L 37.921875 37.347656 C 37.925781 37.347656 37.929688 37.347656 37.933594 37.347656 L 37.945312 37.347656 C 37.953125 37.347656 37.957031 37.351562 37.964844 37.351562 L 37.988281 37.351562 L 38 37.355469 L 38.011719 37.355469 L 38.03125 37.359375 C 38.039062 37.359375 38.046875 37.363281 38.054688 37.363281 C 38.0625 37.367188 38.070312 37.367188 38.078125 37.371094 C 38.105469 37.378906 38.132812 37.390625 38.15625 37.410156 C 38.167969 37.417969 38.179688 37.429688 38.1875 37.445312 C 38.195312 37.457031 38.199219 37.472656 38.199219 37.488281 C 38.199219 37.503906 38.195312 37.519531 38.183594 37.53125 C 38.175781 37.546875 38.167969 37.554688 38.15625 37.566406 C 38.140625 37.574219 38.128906 37.582031 38.117188 37.585938 C 38.101562 37.59375 38.085938 37.597656 38.074219 37.601562 C 38.066406 37.601562 38.058594 37.601562 38.050781 37.605469 C 38.046875 37.605469 38.042969 37.605469 38.039062 37.605469 C 38.035156 37.605469 38.03125 37.605469 38.027344 37.605469 C 38.011719 37.605469 37.996094 37.605469 37.984375 37.605469 C 37.953125 37.601562 37.925781 37.597656 37.894531 37.585938 C 37.882812 37.578125 37.867188 37.574219 37.855469 37.566406 C 37.84375 37.558594 37.832031 37.546875 37.820312 37.539062 C 37.808594 37.527344 37.800781 37.515625 37.792969 37.503906 C 37.777344 37.476562 37.769531 37.449219 37.769531 37.417969 C 37.769531 37.402344 37.769531 37.386719 37.773438 37.371094 C 37.785156 37.34375 37.796875 37.316406 37.816406 37.292969 C 37.835938 37.269531 37.859375 37.25 37.886719 37.234375 C 37.894531 37.234375 37.898438 37.230469 37.90625 37.226562 C 37.910156 37.226562 37.914062 37.222656 37.917969 37.222656 L 37.929688 37.21875 L 37.933594 37.21875 L 37.9375 37.214844 L 37.949219 37.214844 C 37.953125 37.210938 37.957031 37.210938 37.960938 37.210938 C 37.964844 37.210938 37.96875 37.210938 37.972656 37.210938 C 38 37.207031 38.03125 37.207031 38.0625 37.210938 C 38.089844 37.214844 38.121094 37.222656 38.148438 37.230469 C 38.175781 37.242188 38.203125 37.253906 38.230469 37.265625 C 38.28125 37.296875 38.332031 37.328125 38.378906 37.363281 C 38.425781 37.398438 38.476562 37.433594 38.527344 37.460938 C 38.550781 37.476562 38.578125 37.488281 38.605469 37.496094 C 38.621094 37.503906 38.632812 37.507812 38.648438 37.511719 L 38.667969 37.515625 L 38.691406 37.519531 C 38.75 37.527344 38.808594 37.527344 38.867188 37.511719 C 38.894531 37.503906 38.921875 37.492188 38.949219 37.480469 L 38.957031 37.476562 C 38.960938 37.472656 38.964844 37.472656 38.96875 37.46875 L 38.976562 37.464844 L 38.984375 37.457031 C 38.996094 37.449219 39.007812 37.441406 39.019531 37.433594 C 39.042969 37.414062 39.0625 37.390625 39.074219 37.363281 C 39.082031 37.351562 39.085938 37.335938 39.085938 37.324219 C 39.089844 37.308594 39.089844 37.296875 39.085938 37.28125 C 39.082031 37.265625 39.074219 37.253906 39.066406 37.242188 C 39.058594 37.230469 39.046875 37.222656 39.035156 37.214844 C 39.007812 37.195312 38.980469 37.195312 38.957031 37.210938 C 38.929688 37.226562 38.914062 37.253906 38.910156 37.28125 C 38.90625 37.296875 38.90625 37.308594 38.910156 37.324219 C 38.910156 37.339844 38.914062 37.351562 38.921875 37.367188 C 38.925781 37.378906 38.933594 37.394531 38.941406 37.40625 C 38.945312 37.410156 38.949219 37.417969 38.953125 37.421875 L 38.960938 37.429688 L 38.964844 37.4375 C 38.964844 37.4375 38.964844 37.4375 38.96875 37.441406 C 38.972656 37.445312 38.976562 37.449219 38.980469 37.457031 L 38.996094 37.472656 C 39.003906 37.476562 39.007812 37.480469 39.015625 37.484375 C 39.019531 37.488281 39.019531 37.488281 39.023438 37.492188 L 39.03125 37.496094 C 39.058594 37.515625 39.082031 37.527344 39.109375 37.539062 C 39.136719 37.546875 39.167969 37.554688 39.195312 37.558594 C 39.226562 37.558594 39.253906 37.558594 39.285156 37.554688 C 39.296875 37.550781 39.3125 37.550781 39.328125 37.542969 C 39.339844 37.539062 39.351562 37.535156 39.363281 37.527344 C 39.378906 37.519531 39.386719 37.507812 39.394531 37.496094 C 39.402344 37.484375 39.40625 37.46875 39.40625 37.453125 C 39.40625 37.441406 39.402344 37.425781 39.394531 37.414062 C 39.390625 37.410156 39.386719 37.40625 39.378906 37.402344 C 39.375 37.398438 39.367188 37.398438 39.359375 37.394531 C 39.347656 37.394531 39.332031 37.394531 39.316406 37.398438 C 39.304688 37.40625 39.292969 37.414062 39.285156 37.425781 C 39.28125 37.429688 39.277344 37.4375 39.273438 37.441406 C 39.273438 37.445312 39.273438 37.449219 39.269531 37.453125 L 39.269531 37.464844 C 39.269531 37.480469 39.269531 37.492188 39.277344 37.507812 C 39.285156 37.535156 39.304688 37.554688 39.328125 37.570312 C 39.34375 37.578125 39.355469 37.585938 39.371094 37.589844 C 39.382812 37.59375 39.398438 37.59375 39.414062 37.597656 C 39.441406 37.597656 39.472656 37.597656 39.5 37.59375 C 39.53125 37.585938 39.558594 37.582031 39.585938 37.574219 C 39.644531 37.5625 39.699219 37.542969 39.757812 37.527344 C 39.785156 37.515625 39.8125 37.507812 39.84375 37.503906 C 39.851562 37.5 39.859375 37.5 39.863281 37.496094 C 39.871094 37.496094 39.878906 37.496094 39.886719 37.492188 C 39.902344 37.492188 39.914062 37.488281 39.929688 37.488281 C 39.988281 37.480469 40.050781 37.480469 40.109375 37.492188 C 40.136719 37.5 40.164062 37.507812 40.191406 37.523438 C 40.21875 37.539062 40.242188 37.554688 40.261719 37.578125 Z M 40.261719 37.578125 " fill-opacity="1" fill-rule="nonzero"/></g><g mask="url(#d8c2196b27)"><g transform="matrix(1, 0, 0, 1, 0, -0.000000000000001893)"><g clip-path="url(#94afd7c896)"><g clip-path="url(#69c3255ccd)"><g clip-path="url(#6da02f03bc)"><g clip-path="url(#fc61c13077)"><path fill="#3c2d96" d="M 25.511719 51.824219 C 25.535156 51.226562 25.660156 50.78125 25.917969 50.378906 L 25.9375 50.347656 C 26.421875 49.597656 26.917969 48.824219 27.699219 48.339844 C 28.132812 48.074219 28.585938 47.824219 29.023438 47.582031 C 29.199219 47.484375 29.378906 47.386719 29.558594 47.285156 C 29.652344 47.234375 29.75 47.183594 29.855469 47.128906 C 29.90625 47.105469 29.957031 47.078125 30.011719 47.050781 L 30.082031 47.011719 L 30.058594 46.9375 C 30.039062 46.882812 30.023438 46.832031 30.011719 46.785156 C 29.980469 46.679688 29.953125 46.582031 29.90625 46.492188 C 29.8125 46.296875 29.71875 46.105469 29.628906 45.910156 C 29.226562 45.078125 28.808594 44.214844 28.382812 43.375 C 28.179688 42.976562 27.96875 42.574219 27.765625 42.1875 C 27.214844 41.128906 26.644531 40.039062 26.1875 38.914062 C 26.128906 38.769531 26.058594 38.632812 25.992188 38.496094 C 25.945312 38.410156 25.902344 38.316406 25.859375 38.226562 C 25.8125 38.125 25.753906 38.042969 25.675781 37.980469 C 25.625 37.941406 25.566406 37.90625 25.5 37.882812 C 25.394531 37.839844 25.296875 37.789062 25.1875 37.734375 C 25.164062 37.71875 25.136719 37.707031 25.113281 37.691406 C 24.785156 37.523438 24.457031 37.355469 24.125 37.1875 C 23.328125 36.777344 22.5 36.355469 21.699219 35.925781 C 21.128906 35.621094 20.5625 35.289062 20.011719 34.96875 C 19.808594 34.847656 19.609375 34.730469 19.40625 34.613281 C 19.144531 34.460938 18.839844 34.28125 18.542969 34.09375 C 18.089844 33.800781 17.625 33.5 17.175781 33.210938 C 16.445312 32.734375 15.6875 32.246094 14.9375 31.769531 C 13.871094 31.09375 12.914062 30.410156 12.011719 29.683594 C 11.570312 29.328125 11.144531 28.957031 10.738281 28.585938 C 9.722656 27.648438 8.9375 26.710938 8.335938 25.714844 C 8.128906 25.371094 7.917969 25 7.777344 24.609375 C 7.4375 23.652344 7.570312 22.757812 8.179688 21.957031 C 8.605469 21.394531 9.089844 21.023438 9.667969 20.824219 C 10.925781 20.386719 11.984375 20.101562 12.996094 19.921875 C 14.027344 19.742188 15.089844 19.710938 16.121094 19.679688 C 16.289062 19.675781 16.457031 19.667969 16.628906 19.664062 C 17.453125 19.636719 18.355469 19.6875 19.378906 19.824219 C 19.75 19.871094 20.128906 19.925781 20.492188 19.980469 C 21.191406 20.082031 21.914062 20.1875 22.628906 20.253906 C 24.335938 20.414062 25.957031 20.832031 27.179688 21.175781 C 27.582031 21.289062 27.910156 21.378906 28.214844 21.457031 C 28.3125 21.484375 28.414062 21.5 28.519531 21.515625 C 28.566406 21.523438 28.621094 21.53125 28.671875 21.542969 L 28.730469 21.550781 L 28.925781 21.269531 C 29.042969 21.101562 29.15625 20.933594 29.273438 20.769531 C 29.902344 19.859375 30.628906 19.039062 31.429688 18.34375 C 31.777344 18.042969 32.160156 17.773438 32.53125 17.507812 C 32.632812 17.4375 32.734375 17.363281 32.835938 17.292969 C 33.671875 16.691406 34.625 16.289062 35.734375 16.066406 C 35.820312 16.050781 35.902344 16.03125 35.988281 16.015625 C 36.515625 15.910156 37.058594 15.800781 37.589844 15.667969 C 39.363281 15.214844 41.015625 15.21875 42.644531 15.6875 C 44.128906 16.109375 45.585938 16.714844 47.101562 17.535156 C 48.0625 18.046875 48.890625 18.59375 49.644531 19.203125 C 49.898438 19.410156 50.144531 19.621094 50.375 19.839844 C 50.421875 19.882812 50.46875 19.925781 50.515625 19.96875 C 50.996094 20.417969 51.496094 20.878906 51.855469 21.441406 C 52.28125 22.105469 52.710938 22.820312 53.253906 23.757812 C 53.421875 24.042969 53.546875 24.375 53.65625 24.660156 C 54.257812 26.210938 54.457031 27.90625 54.25 29.703125 C 54.195312 30.195312 54.101562 30.691406 54.007812 31.175781 C 53.964844 31.402344 53.921875 31.636719 53.878906 31.871094 C 53.867188 31.941406 53.859375 32.007812 53.851562 32.082031 C 53.847656 32.117188 53.84375 32.15625 53.835938 32.191406 L 53.828125 32.25 L 53.875 32.285156 C 53.929688 32.320312 53.980469 32.355469 54.03125 32.390625 C 54.140625 32.46875 54.246094 32.542969 54.355469 32.613281 C 54.71875 32.835938 55.09375 33.054688 55.441406 33.257812 C 56.527344 33.894531 57.421875 34.457031 58.257812 35.136719 C 58.390625 35.242188 58.519531 35.351562 58.644531 35.460938 C 58.699219 35.507812 58.757812 35.558594 58.824219 35.613281 C 58.960938 35.722656 59.101562 35.828125 59.242188 35.929688 C 59.355469 36.019531 59.476562 36.109375 59.59375 36.199219 C 59.757812 36.332031 59.925781 36.464844 60.089844 36.59375 C 60.601562 36.996094 61.128906 37.414062 61.640625 37.832031 C 61.746094 37.917969 61.851562 38 61.957031 38.085938 C 62.390625 38.441406 62.777344 38.765625 63.125 39.128906 C 63.828125 39.863281 64.527344 40.628906 65.203125 41.40625 C 66.347656 42.726562 67.148438 44.238281 67.78125 45.546875 C 68.105469 46.214844 68.171875 46.9375 67.992188 47.761719 C 67.820312 48.539062 67.371094 49.117188 66.621094 49.53125 C 66.402344 49.652344 66.152344 49.75 65.878906 49.824219 C 64.800781 50.121094 63.832031 50.265625 62.917969 50.265625 C 61.074219 50.273438 59.269531 50.074219 57.5625 49.679688 C 57.101562 49.574219 56.636719 49.46875 56.1875 49.371094 C 55.164062 49.140625 54.109375 48.902344 53.082031 48.640625 C 51.808594 48.3125 50.527344 47.949219 49.285156 47.59375 C 48.871094 47.476562 48.457031 47.359375 48.042969 47.242188 C 47.878906 47.195312 47.714844 47.136719 47.558594 47.078125 C 47.445312 47.039062 47.328125 46.996094 47.210938 46.957031 C 47.1875 46.949219 47.160156 46.941406 47.132812 46.933594 C 46.976562 46.882812 46.8125 46.828125 46.644531 46.808594 C 46.363281 46.773438 46.078125 46.742188 45.792969 46.707031 C 44.429688 46.542969 43.023438 46.375 41.632812 46.230469 C 40.171875 46.078125 38.683594 46.089844 37.207031 46.257812 C 34.964844 46.511719 33.289062 46.871094 31.769531 47.421875 C 31.648438 47.464844 31.53125 47.519531 31.417969 47.570312 C 31.367188 47.59375 31.3125 47.617188 31.257812 47.640625 L 31.195312 47.667969 L 31.203125 47.738281 C 31.21875 47.914062 31.234375 48.089844 31.253906 48.261719 C 31.285156 48.636719 31.316406 48.988281 31.363281 49.34375 C 31.5 50.457031 31.207031 51.460938 30.492188 52.328125 C 30.242188 52.632812 29.941406 52.910156 29.660156 53.167969 C 29.003906 53.757812 28.246094 53.960938 27.40625 53.769531 C 27.011719 53.683594 26.636719 53.519531 26.289062 53.28125 C 26.234375 53.246094 26.179688 53.203125 26.128906 53.164062 C 25.695312 52.808594 25.492188 52.371094 25.511719 51.824219 Z M 30.453125 47.984375 L 30.378906 47.996094 C 29.917969 48.058594 29.546875 48.277344 29.242188 48.484375 C 28.582031 48.929688 27.929688 49.410156 27.308594 49.902344 C 26.957031 50.183594 26.664062 50.570312 26.414062 51.082031 C 25.945312 52.042969 26.503906 52.640625 26.765625 52.851562 C 26.902344 52.960938 27.058594 53.050781 27.21875 53.117188 C 27.953125 53.40625 28.660156 53.292969 29.261719 52.792969 C 29.863281 52.292969 30.222656 51.777344 30.390625 51.171875 C 30.460938 50.921875 30.546875 50.625 30.652344 50.335938 C 30.949219 49.519531 30.746094 48.757812 30.476562 48.054688 Z M 43.585938 45.714844 L 27.0625 38.691406 L 27.128906 38.890625 C 27.148438 38.949219 27.160156 38.996094 27.171875 39.039062 C 27.195312 39.117188 27.210938 39.171875 27.238281 39.222656 C 27.402344 39.535156 27.570312 39.855469 27.726562 40.164062 C 28.128906 40.9375 28.542969 41.742188 28.980469 42.511719 C 29.636719 43.664062 30.308594 44.914062 30.78125 46.242188 C 30.800781 46.296875 30.828125 46.351562 30.863281 46.410156 C 30.878906 46.4375 30.894531 46.464844 30.910156 46.5 L 30.945312 46.566406 L 31.019531 46.546875 C 31.058594 46.539062 31.101562 46.53125 31.140625 46.519531 C 31.226562 46.503906 31.3125 46.484375 31.394531 46.449219 C 32.746094 45.898438 34.183594 45.609375 35.789062 45.570312 C 36.09375 45.5625 36.402344 45.550781 36.699219 45.542969 C 37.601562 45.515625 38.53125 45.484375 39.441406 45.507812 C 40.105469 45.527344 40.777344 45.597656 41.429688 45.664062 C 41.746094 45.699219 42.070312 45.730469 42.390625 45.757812 C 42.460938 45.765625 42.53125 45.773438 42.605469 45.785156 C 42.824219 45.816406 43.050781 45.851562 43.3125 45.785156 Z M 60.164062 37.414062 C 59.894531 37.207031 59.621094 36.992188 59.359375 36.78125 C 58.746094 36.292969 58.117188 35.789062 57.433594 35.371094 C 56.792969 34.980469 56.128906 34.59375 55.488281 34.222656 C 55.183594 34.042969 54.863281 33.859375 54.550781 33.675781 C 54.34375 33.554688 54.136719 33.433594 53.921875 33.300781 C 53.816406 33.238281 53.714844 33.175781 53.605469 33.113281 L 53.507812 33.054688 L 53.46875 33.160156 C 53.390625 33.355469 53.320312 33.546875 53.25 33.734375 C 53.097656 34.144531 52.957031 34.53125 52.78125 34.902344 C 52.539062 35.417969 52.257812 35.929688 51.988281 36.425781 C 51.898438 36.585938 51.8125 36.742188 51.726562 36.90625 C 51.675781 37 51.601562 37.097656 51.515625 37.183594 C 51.371094 37.328125 51.203125 37.398438 50.964844 37.414062 C 50.65625 37.429688 50.339844 37.378906 49.949219 37.246094 C 49.367188 37.050781 48.777344 36.839844 48.207031 36.632812 C 47.957031 36.542969 47.707031 36.453125 47.457031 36.363281 C 47.144531 36.253906 46.835938 36.144531 46.523438 36.035156 C 45.894531 35.8125 45.242188 35.582031 44.609375 35.347656 C 43.40625 34.90625 42.203125 34.453125 41.183594 34.066406 C 40.847656 33.9375 40.503906 33.800781 40.171875 33.667969 C 39.949219 33.578125 39.714844 33.480469 39.484375 33.394531 C 39.164062 33.265625 38.832031 33.140625 38.511719 33.015625 C 37.886719 32.773438 37.242188 32.527344 36.609375 32.265625 C 35.757812 31.914062 35.007812 31.578125 34.3125 31.246094 L 34.167969 31.175781 C 32.171875 30.207031 30.105469 29.207031 28.136719 28.101562 C 27.960938 28.007812 27.792969 27.890625 27.613281 27.746094 C 27.480469 27.636719 27.339844 27.511719 27.167969 27.347656 C 26.890625 27.082031 26.804688 26.785156 26.894531 26.410156 C 26.917969 26.316406 26.941406 26.222656 26.964844 26.128906 C 27.078125 25.636719 27.199219 25.128906 27.347656 24.640625 C 27.589844 23.824219 27.847656 23.179688 28.15625 22.613281 C 28.179688 22.566406 28.191406 22.519531 28.199219 22.476562 C 28.207031 22.457031 28.210938 22.4375 28.214844 22.417969 L 28.242188 22.328125 C 28.242188 22.328125 27.6875 22.167969 27.457031 22.101562 C 26.847656 21.925781 26.21875 21.742188 25.601562 21.570312 C 25.5 21.539062 25.394531 21.515625 25.296875 21.492188 C 25.175781 21.464844 25.050781 21.4375 24.933594 21.398438 C 23.285156 20.886719 21.5625 20.695312 20.074219 20.5625 C 19.207031 20.480469 18.316406 20.460938 17.457031 20.441406 C 17.074219 20.433594 16.679688 20.425781 16.292969 20.410156 C 14.875 20.359375 13.46875 20.574219 12.105469 20.785156 C 11.96875 20.804688 11.832031 20.828125 11.695312 20.847656 C 11.402344 20.890625 11.085938 20.964844 10.703125 21.074219 C 10.117188 21.242188 9.648438 21.554688 9.3125 21.996094 C 8.996094 22.410156 8.808594 22.917969 8.753906 23.507812 C 8.714844 23.914062 8.761719 24.324219 8.886719 24.730469 C 9.097656 25.394531 9.375 25.933594 9.734375 26.378906 C 10.164062 26.914062 10.59375 27.429688 11.074219 27.902344 C 11.65625 28.480469 12.25 29.015625 12.84375 29.496094 C 13.503906 30.027344 14.1875 30.515625 14.875 30.941406 C 15.753906 31.484375 16.628906 32.058594 17.480469 32.617188 C 17.996094 32.953125 18.53125 33.300781 19.0625 33.640625 C 19.441406 33.882812 19.832031 34.109375 20.21875 34.304688 C 21.191406 34.804688 22.183594 35.300781 23.144531 35.785156 C 23.632812 36.03125 24.121094 36.277344 24.609375 36.523438 C 25.183594 36.8125 25.757812 37.105469 26.332031 37.394531 C 27.535156 38.003906 28.785156 38.636719 30.011719 39.25 C 30.371094 39.429688 30.746094 39.585938 31.105469 39.742188 C 31.222656 39.789062 31.339844 39.839844 31.457031 39.890625 C 31.78125 40.03125 32.113281 40.171875 32.429688 40.304688 C 32.628906 40.390625 32.828125 40.472656 33.027344 40.554688 C 33.058594 40.570312 33.09375 40.589844 33.128906 40.605469 C 33.191406 40.636719 33.253906 40.667969 33.324219 40.691406 C 33.890625 40.855469 34.433594 41.117188 34.960938 41.371094 C 35.214844 41.492188 35.476562 41.617188 35.738281 41.734375 C 35.855469 41.78125 35.976562 41.824219 36.09375 41.863281 C 36.132812 41.878906 36.175781 41.890625 36.214844 41.90625 C 36.265625 41.921875 36.316406 41.9375 36.367188 41.953125 C 36.457031 41.980469 36.542969 42.007812 36.621094 42.042969 C 38.816406 43.09375 41.140625 44.023438 43.535156 44.808594 C 44.515625 45.132812 45.503906 45.480469 46.464844 45.816406 C 46.855469 45.953125 47.25 46.09375 47.644531 46.230469 C 48.03125 46.363281 48.425781 46.503906 48.808594 46.636719 C 49.460938 46.867188 50.136719 47.101562 50.800781 47.328125 C 52.089844 47.769531 53.4375 48.074219 54.738281 48.367188 C 55.132812 48.457031 55.539062 48.546875 55.9375 48.640625 C 56.242188 48.714844 56.550781 48.78125 56.851562 48.847656 C 57.097656 48.898438 57.351562 48.953125 57.601562 49.011719 C 59.347656 49.414062 61.191406 49.578125 63.074219 49.492188 C 63.859375 49.457031 64.480469 49.34375 65.023438 49.136719 C 65.511719 48.949219 65.886719 48.742188 66.199219 48.484375 C 66.652344 48.113281 67 47.570312 67.152344 46.992188 C 67.332031 46.300781 67.234375 45.59375 66.875 44.941406 C 66.855469 44.90625 66.839844 44.875 66.820312 44.839844 C 66.757812 44.726562 66.695312 44.609375 66.617188 44.496094 C 66.550781 44.402344 66.484375 44.308594 66.417969 44.214844 C 65.546875 42.96875 64.640625 41.675781 63.515625 40.589844 C 63.105469 40.191406 62.691406 39.785156 62.289062 39.394531 C 61.847656 38.960938 61.390625 38.515625 60.941406 38.082031 C 60.761719 37.910156 60.570312 37.738281 60.375 37.582031 C 60.308594 37.523438 60.238281 37.46875 60.164062 37.414062 Z M 52.0625 33.949219 C 51.1875 33.800781 50.328125 33.515625 49.496094 33.242188 C 49.292969 33.175781 49.078125 33.101562 48.867188 33.039062 C 48.285156 32.851562 47.695312 32.648438 47.125 32.453125 C 46.660156 32.292969 46.179688 32.128906 45.703125 31.972656 C 43.828125 31.355469 42.007812 30.605469 40.304688 29.890625 C 39.46875 29.539062 38.625 29.140625 37.898438 28.796875 C 37.339844 28.53125 36.777344 28.253906 36.230469 27.988281 C 35.53125 27.648438 34.8125 27.292969 34.097656 26.960938 C 33.605469 26.730469 33.128906 26.460938 32.667969 26.199219 C 32.320312 26.003906 31.964844 25.800781 31.601562 25.617188 C 30.664062 25.136719 29.757812 24.574219 28.835938 23.902344 C 28.796875 23.875 28.757812 23.851562 28.707031 23.828125 C 28.679688 23.816406 28.652344 23.800781 28.617188 23.785156 L 28.539062 23.742188 L 28.492188 23.820312 C 27.941406 24.761719 27.609375 25.945312 27.683594 26.699219 L 27.6875 26.75 L 28.203125 26.996094 C 31.757812 28.699219 35.4375 30.460938 39.136719 32.050781 C 42.179688 33.359375 45.324219 34.535156 48.363281 35.671875 C 49.164062 35.96875 49.992188 36.277344 50.800781 36.585938 L 50.832031 36.597656 L 50.863281 36.589844 C 51.144531 36.503906 51.289062 36.316406 51.398438 36.125 C 51.738281 35.554688 52.019531 34.929688 52.238281 34.273438 C 52.253906 34.226562 52.246094 34.183594 52.242188 34.148438 C 52.242188 34.140625 52.238281 34.136719 52.238281 34.128906 L 52.238281 34.089844 L 52.210938 34.0625 C 52.199219 34.054688 52.191406 34.042969 52.179688 34.03125 C 52.167969 34.015625 52.152344 34 52.132812 33.984375 C 52.113281 33.964844 52.089844 33.953125 52.0625 33.949219 Z M 47.328125 18.613281 C 45.300781 17.476562 43.402344 16.710938 41.53125 16.277344 C 40.273438 15.984375 39.039062 15.980469 37.863281 16.273438 C 37.734375 16.308594 37.605469 16.339844 37.472656 16.371094 C 36.617188 16.582031 35.730469 16.800781 34.878906 17.101562 C 33.492188 17.589844 32.371094 18.332031 31.460938 19.367188 C 31.121094 19.753906 30.839844 20.066406 30.574219 20.347656 C 29.832031 21.140625 29.304688 22.070312 28.886719 22.878906 C 28.84375 22.957031 28.816406 23.035156 28.78125 23.136719 C 28.761719 23.1875 28.742188 23.246094 28.714844 23.3125 L 28.6875 23.382812 L 28.753906 23.425781 C 28.882812 23.511719 29.007812 23.59375 29.132812 23.675781 C 29.394531 23.851562 29.644531 24.015625 29.90625 24.160156 C 30.761719 24.636719 31.636719 25.109375 32.480469 25.570312 C 32.914062 25.804688 33.347656 26.039062 33.78125 26.273438 C 35.207031 27.054688 36.664062 27.699219 38.417969 28.429688 C 40.230469 29.191406 42.101562 29.886719 43.914062 30.558594 C 45.125 31.011719 46.375 31.476562 47.601562 31.957031 C 48.523438 32.320312 49.421875 32.640625 50.503906 33.019531 C 50.789062 33.121094 51.09375 33.191406 51.382812 33.261719 C 51.4375 33.277344 51.492188 33.289062 51.546875 33.300781 C 51.726562 33.34375 51.914062 33.378906 52.105469 33.417969 C 52.195312 33.433594 52.285156 33.449219 52.382812 33.46875 L 52.457031 33.484375 L 52.488281 33.414062 C 52.507812 33.371094 52.523438 33.328125 52.542969 33.292969 C 52.582031 33.210938 52.617188 33.132812 52.644531 33.050781 C 52.886719 32.214844 53.167969 31.105469 53.167969 29.921875 C 53.167969 29.667969 53.175781 29.417969 53.191406 29.171875 C 53.3125 27.28125 52.90625 25.390625 51.945312 23.394531 C 51.480469 22.429688 50.800781 21.613281 50.132812 20.875 C 49.941406 20.664062 49.730469 20.460938 49.527344 20.265625 C 49.402344 20.144531 49.273438 20.019531 49.148438 19.890625 C 49.023438 19.765625 48.890625 19.644531 48.738281 19.519531 C 48.304688 19.167969 47.824219 18.890625 47.328125 18.613281 Z M 47.328125 18.613281 " fill-opacity="1" fill-rule="nonzero"/></g></g></g><g clip-path="url(#0af66735a9)"><g clip-path="url(#bc34e06cd5)"><g clip-path="url(#faedd1f351)"><path fill="#3c2d96" d="M 14.816406 25.765625 C 15.464844 26.292969 16.078125 26.738281 16.683594 27.136719 C 16.929688 27.296875 17.164062 27.476562 17.390625 27.65625 C 17.429688 27.683594 17.464844 27.714844 17.503906 27.742188 C 19.355469 29.179688 21.3125 30.4375 23.316406 31.476562 C 24.609375 32.148438 25.976562 32.90625 27.617188 33.867188 C 29.042969 34.703125 30.546875 35.367188 32.085938 36.027344 C 34.109375 36.894531 36.171875 37.785156 38.105469 38.625 C 38.59375 38.835938 39.089844 39.054688 39.566406 39.269531 C 40.542969 39.703125 41.550781 40.152344 42.558594 40.546875 C 46.019531 41.894531 49.441406 43.082031 52.734375 44.082031 C 56.890625 45.339844 59.375 45.761719 60.882812 45.96875 C 61.28125 46.023438 61.714844 46.070312 62.257812 46.117188 C 62.410156 46.132812 62.585938 46.125 62.800781 46.101562 C 62.8125 46.097656 62.835938 46.070312 62.859375 46.050781 C 62.839844 46.035156 62.816406 46.019531 62.808594 46.019531 C 60.761719 45.71875 58.738281 45.179688 56.78125 44.660156 C 56.492188 44.585938 56.207031 44.507812 55.917969 44.433594 C 52.777344 43.605469 49.710938 42.414062 46.742188 41.261719 C 46.425781 41.140625 46.113281 41.019531 45.796875 40.894531 C 42.042969 39.445312 38.042969 37.691406 33.207031 35.375 C 32.171875 34.878906 31.140625 34.332031 30.144531 33.804688 C 29.605469 33.519531 29.050781 33.222656 28.503906 32.941406 C 26.804688 32.0625 24.984375 31.128906 23.171875 30.214844 C 21.964844 29.605469 20.726562 28.902344 19.488281 28.132812 C 18.964844 27.804688 18.425781 27.480469 17.90625 27.167969 C 17.542969 26.949219 17.164062 26.722656 16.796875 26.496094 C 16.140625 26.09375 15.507812 25.695312 14.925781 25.226562 C 14.785156 25.113281 14.652344 24.996094 14.523438 24.878906 C 14.082031 24.472656 13.613281 24.082031 13.15625 23.707031 C 13.070312 23.632812 12.984375 23.5625 12.898438 23.492188 C 12.886719 23.480469 12.871094 23.472656 12.859375 23.460938 C 12.707031 23.335938 12.53125 23.214844 12.34375 23.105469 C 12.183594 23.007812 12.046875 23.007812 11.90625 23.097656 C 11.910156 23.109375 11.914062 23.117188 11.917969 23.125 C 11.957031 23.191406 11.988281 23.257812 12.035156 23.300781 C 12.910156 24.117188 13.84375 24.980469 14.816406 25.765625 Z M 14.816406 25.765625 " fill-opacity="1" fill-rule="nonzero"/></g></g></g></g></g></g></svg>